<svg xmlns="http://www.w3.org/2000/svg" xmlns:xlink="http://www.w3.org/1999/xlink" width="1230" height="280" viewBox="0 0 1230 280"><defs><filter id="a" x="0" y="0" width="1230" height="280" filterUnits="userSpaceOnUse"><feOffset input="SourceAlpha"/><feGaussianBlur stdDeviation="10" result="b"/><feFlood flood-color="#b4b4b4" flood-opacity="0.302"/><feComposite operator="in" in2="b"/><feComposite in="SourceGraphic"/></filter></defs><g transform="translate(-345 -2647)"><g transform="matrix(1, 0, 0, 1, 345, 2647)" filter="url(#a)"><rect width="1170" height="220" rx="5" transform="translate(30 30)" fill="#ffc039"/></g><path d="M7,0l7,12H0Z" transform="matrix(0.848, 0.53, -0.53, 0.848, 743.563, 2701.573)" fill="#fff"/><g transform="matrix(0.848, 0.53, -0.53, 0.848, 426.238, 2856.422)" fill="none"><path d="M7,0l7,11H0Z" stroke="none"/><path d="M 7 3.725252628326416 L 3.643342971801758 9 L 10.35665702819824 9 L 7 3.725252628326416 M 7 0 L 14 11 L 0 11 L 7 0 Z" stroke="none" fill="#fff"/></g><g transform="matrix(0.848, 0.53, -0.53, 0.848, 1504.238, 2701.422)" fill="none"><path d="M7,0l7,11H0Z" stroke="none"/><path d="M 7 3.725252628326416 L 3.643342971801758 9 L 10.35665702819824 9 L 7 3.725252628326416 M 7 0 L 14 11 L 0 11 L 7 0 Z" stroke="none" fill="#fff"/></g><g transform="matrix(0.848, -0.53, 0.53, 0.848, 1404, 2867.036)" fill="none" stroke="#fff" stroke-width="2"><rect width="12" height="12" stroke="none"/><rect x="1" y="1" width="10" height="10" fill="none"/></g><rect width="12" height="12" transform="matrix(0.848, -0.53, 0.53, 0.848, 397.437, 2724.036)" fill="#fff"/><g transform="translate(867.728 2859.642) rotate(-29)" fill="none"><path d="M26.457,15A13.229,13.229,0,0,1,0,15Z" stroke="none"/><path d="M 2.176485061645508 17 C 2.576614379882812 19.23807525634766 3.647329330444336 21.29841423034668 5.288824081420898 22.93990135192871 C 7.409643173217773 25.06072998046875 10.22942352294922 26.22872161865234 13.22872352600098 26.22872161865234 C 16.22802352905273 26.22872161865234 19.04780387878418 25.06072998046875 21.16862297058105 22.93990135192871 C 22.81011772155762 21.29841423034668 23.88083267211914 19.23807525634766 24.28096199035645 17 L 2.176485061645508 17 M 3.814697265625e-06 15 L 26.45744323730469 15 C 26.45744323730469 22.30602073669434 20.53474426269531 28.22872161865234 13.22872352600098 28.22872161865234 C 5.922702789306641 28.22872161865234 3.814697265625e-06 22.30602073669434 3.814697265625e-06 15 Z" stroke="none" fill="#fff"/></g><path d="M25.59,15A12.795,12.795,0,0,1,0,15Z" transform="matrix(-0.695, -0.719, 0.719, -0.695, 1155.006, 2727.965)" fill="#fff"/></g></svg>