<?xml version="1.0" encoding="utf-8"?>
<!-- Generator: Adobe Illustrator 22.0.1, SVG Export Plug-In . SVG Version: 6.00 Build 0)  -->
<svg version="1.1" id="Layer_1" xmlns="http://www.w3.org/2000/svg" xmlns:xlink="http://www.w3.org/1999/xlink" x="0px" y="0px"
	 viewBox="0 0 129.7 129.7" style="enable-background:new 0 0 129.7 129.7;" xml:space="preserve">
<style type="text/css">
	.st0{fill:#FD2E3D;}
</style>
<g transform="translate(0 0)">
	<path class="st0" d="M129.2,39.5l-6.4-8l4.6-4.1c1.1-0.9,1.2-2.5,0.2-3.6l0,0l-20-22.9c-0.9-1.1-2.5-1.2-3.6-0.2l0,0L89.5,13.3
		l-16-12.8c-1.1-0.9-2.7-0.7-3.6,0.4L50.1,25.8H12.7c-0.8,0-1.5,0.3-2,1L0.6,39.5C0.2,39.9,0,40.5,0,41v86.1c0,1.4,1.1,2.5,2.5,2.5
		h0h124.6c1.4,0,2.5-1.1,2.5-2.5l0,0V41C129.7,40.5,129.5,39.9,129.2,39.5z M105.5,6.1l16.6,19.1L83.6,58.8H45.2L105.5,6.1z
		 M72.3,6.1l13.3,10.6l-48.1,42h-7.2L72.3,6.1z M5.1,41.9l8.8-11H46l-20,25l-6.6-6.5c-0.5-0.5-1.1-0.7-1.8-0.7H5.1V41.9z
		 M124.6,124.6H5.1V63.8h6.6l9.4,9.4c0.5,0.5,1.1,0.7,1.8,0.7h84.1c0.7,0,1.3-0.3,1.8-0.7l9.4-9.4h6.6V124.6z M124.6,58.8H117
		c-0.7,0-1.3,0.3-1.8,0.7l-9.4,9.4h-82l-9.4-9.4c-0.5-0.5-1.1-0.7-1.8-0.7H5.1v-5.1h11.6l9.4,9.4c0.5,0.5,1.1,0.7,1.8,0.7h74
		c0.7,0,1.3-0.3,1.8-0.7l9.4-9.4h11.6L124.6,58.8z M124.6,48.6H112c-0.7,0-1.3,0.3-1.8,0.7l-9.4,9.4h-9.5l27.6-24l5.7,7.2
		L124.6,48.6z"/>
	<path class="st0" d="M93.6,37.6c0,0.7,0.2,1.3,0.6,1.8c0.9,1.1,2.5,1.2,3.6,0.2l15.3-13.3c1-0.9,1.1-2.5,0.2-3.6
		c-0.9-1-2.5-1.1-3.5-0.2L94.5,35.9C94,36.3,93.6,36.9,93.6,37.6z"/>
	<path class="st0" d="M104.6,19.5c0.6,0,1.2-0.2,1.7-0.6l0.2-0.2c1.1-0.9,1.2-2.5,0.2-3.6s-2.5-1.2-3.6-0.2l-0.2,0.2
		c-1.1,0.9-1.2,2.5-0.2,3.6C103.1,19.2,103.8,19.5,104.6,19.5L104.6,19.5z"/>
	<path class="st0" d="M89.5,32.7c0.6,0,1.2-0.2,1.7-0.6l7.4-6.5c1.1-0.9,1.2-2.5,0.2-3.6s-2.5-1.2-3.6-0.2l-7.4,6.5
		c-1.1,0.9-1.2,2.5-0.2,3.6C88,32.4,88.7,32.7,89.5,32.7L89.5,32.7z"/>
	<path class="st0" d="M48.8,81.9c-1.1-0.9-2.7-0.8-3.6,0.3c0,0,0,0,0,0l-23.8,27.9c-0.9,1.1-0.8,2.7,0.3,3.6
		c1.1,0.9,2.7,0.8,3.6-0.3L49,85.5C50,84.4,49.8,82.8,48.8,81.9z"/>
	<path class="st0" d="M30.4,88.9c0-4.2-3.4-7.6-7.6-7.6c-4.2,0-7.6,3.4-7.6,7.6c0,4.2,3.4,7.6,7.6,7.6C27,96.5,30.4,93.1,30.4,88.9z
		 M20.3,88.9c0-1.4,1.1-2.5,2.5-2.5c1.4,0,2.5,1.1,2.5,2.5c0,1.4-1.1,2.5-2.5,2.5c0,0,0,0,0,0C21.4,91.5,20.3,90.3,20.3,88.9
		L20.3,88.9z"/>
	<path class="st0" d="M47.9,99.1c-4.2,0-7.6,3.4-7.6,7.6s3.4,7.6,7.6,7.6c4.2,0,7.6-3.4,7.6-7.6C55.5,102.5,52.1,99.1,47.9,99.1z
		 M47.9,109.2c-1.4,0-2.5-1.1-2.5-2.5c0-1.4,1.1-2.5,2.5-2.5c1.4,0,2.5,1.1,2.5,2.5l0,0C50.4,108.1,49.3,109.2,47.9,109.2z"/>
	<path class="st0" d="M111.7,86.9H68.7c-1.4,0-2.5,1.1-2.5,2.5c0,1.4,1.1,2.5,2.5,2.5h43.1c1.4,0,2.5-1.1,2.5-2.5
		C114.3,88,113.1,86.9,111.7,86.9z"/>
	<path class="st0" d="M78.5,102.1c1.4,0,2.5-1.1,2.5-2.5c0-1.4-1.1-2.5-2.5-2.5h-9.9c-1.4,0-2.5,1.1-2.5,2.5c0,1.4,1.1,2.5,2.5,2.5
		H78.5z"/>
	<path class="st0" d="M111.7,97H88.7c-1.4,0-2.5,1.1-2.5,2.5c0,1.4,1.1,2.5,2.5,2.5h23.1c1.4,0,2.5-1.1,2.5-2.5
		C114.3,98.2,113.1,97,111.7,97L111.7,97z"/>
	<path class="st0" d="M111.7,107.2h-7.6c-1.4,0-2.5,1.1-2.5,2.5c0,1.4,1.1,2.5,2.5,2.5h7.6c1.4,0,2.5-1.1,2.5-2.5
		C114.3,108.3,113.1,107.2,111.7,107.2L111.7,107.2z"/>
	<path class="st0" d="M94,107.2c-1.4,0-2.5,1.1-2.5,2.5c0,1.4,1.1,2.5,2.5,2.5c1.4,0,2.5-1.1,2.5-2.5c0,0,0,0,0,0
		C96.5,108.3,95.4,107.2,94,107.2z"/>
	<path class="st0" d="M83.9,107.2H68.7c-1.4,0-2.5,1.1-2.5,2.5c0,1.4,1.1,2.5,2.5,2.5h15.2c1.4,0,2.5-1.1,2.5-2.5
		C86.4,108.3,85.3,107.2,83.9,107.2z"/>
</g>
</svg>
