<svg data-name="Group 35" xmlns="http://www.w3.org/2000/svg" ><path data-name="Path 84" d="M74.011 0a2.137 2.137 0 01.908 2.06c-.041 1.562-.011 3.125-.011 4.783 1.443-.479 2.8-.942 4.159-1.375.964-.306 1.941-.568 2.911-.856a1.741 1.741 0 011.91.534c1.228 1.289 2.507 2.53 3.738 3.817.333.349.594.433 1 .137 2.2-1.6 5.243.045 5.225 3.119-.08 13.572-.034 27.145-.037 40.717a3.832 3.832 0 01-.075.914 1.26 1.26 0 01-1.344 1.025 1.235 1.235 0 01-1.264-1.009 6.026 6.026 0 01-.084-1.281V12.973c0-.276.008-.553 0-.829-.036-.957-.26-1.086-1.121-.6q-17.365 9.763-34.731 19.524a1.254 1.254 0 00-.716 1.249q.023 28.419.024 56.839c0 1.169.215 1.308 1.2.752q17.326-9.738 34.654-19.473a1.234 1.234 0 00.691-1.255c-.02-2.18 0-4.36 0-6.54a1.4 1.4 0 01.992-1.567 1.282 1.282 0 011.727 1.141 79.745 79.745 0 01-.04 8.1 3.2 3.2 0 01-1.957 2.5q-9.312 5.217-18.608 10.464-7.9 4.443-15.8 8.885a3.992 3.992 0 01-3.116.78.344.344 0 00-.405.13 5.234 5.234 0 01-1.76 1.266H41.763a5.3 5.3 0 01-1.7-1.2.489.489 0 00-.559-.189 4.228 4.228 0 01-2.881-.7q-17.234-9.7-34.478-19.388a3.793 3.793 0 01-2.131-3.645c.018-19 .043-38-.024-57.007-.011-3.079 3.056-4.709 5.233-3.1.411.3.67.2 1-.144 1.209-1.265 2.472-2.478 3.669-3.753a1.858 1.858 0 012.069-.576c.909.275 1.829.516 2.734.806 1.391.444 2.772.917 4.246 1.407 0-1.687.032-3.282-.013-4.874a2.114 2.114 0 01.905-1.967h.921c1.227.548 2.469 1.068 3.68 1.65 8.66 4.156 15.67 10.109 20.29 18.661.809 1.5 1.462 3.068 2.116 4.622.315-.066.293-.3.352-.45 3.548-9 9.773-15.663 17.989-20.591a70.88 70.88 0 017.9-3.892zM39.349 60.8h.007c0-9.393-.012-18.786.02-28.179a1.707 1.707 0 00-1.005-1.733Q22.879 22.219 7.418 13.493c-1.176-.661-2.35-1.326-3.532-1.977-.84-.463-1.054-.327-1.082.658v.368q0 28.179-.02 56.358a1.7 1.7 0 001.02 1.713q17.134 9.6 34.241 19.242c1.087.611 1.306.479 1.306-.785l-.002-28.27zM21.721 3.447c0 1.387.026 2.613-.012 3.837a.945.945 0 00.666 1.03q2.47 1.119 4.89 2.349a1.279 1.279 0 01.607 1.79 1.335 1.335 0 01-1.855.644c-.282-.12-.553-.264-.826-.4a75.237 75.237 0 00-12.712-5.061 1.186 1.186 0 00-1.445.351 19.808 19.808 0 01-2.066 2.1c-.681.589-.557.826.187 1.242 10.091 5.644 20.182 11.288 30.221 17.023a8.436 8.436 0 005.3.855 32.291 32.291 0 00-3.794-4.921 49.6 49.6 0 00-7.352-6.537 1.38 1.38 0 111.594-2.242c.431.293.841.618 1.256.933a73.9 73.9 0 015.683 4.9C37.472 12.971 30.483 7.337 21.72 3.446zm30.016 58.381c0-5.46-.012-10.921.016-16.381 0-.687-.172-.876-.866-.865-2.668.042-5.338.031-8.006 0-.6-.007-.775.161-.774.768q.026 16.427 0 32.854c0 .633.162.839.816.83 2.638-.035 5.277-.041 7.914 0 .729.012.921-.2.917-.919-.032-5.429-.019-10.859-.018-16.288zm-2.564-32.616a8.387 8.387 0 005.212-.8c5.506-3.216 11.095-6.289 16.652-9.417 4.6-2.586 9.184-5.186 13.8-7.743.674-.373.66-.595.135-1.075a27.055 27.055 0 01-2.126-2.168 1.193 1.193 0 00-1.435-.375 73.59 73.59 0 00-9.73 3.611A56.735 56.735 0 0052.892 24.4a32.823 32.823 0 00-3.72 4.811zm2.634-7.875c1.4-1.26 2.761-2.542 4.21-3.726a65.594 65.594 0 0115.3-9.243c.313-.137.8-.145.806-.629.023-1.388.008-2.776.008-4.292-8.765 3.902-15.767 9.521-20.33 17.89zm-4.823 14.366v.007c1.347 0 2.695-.025 4.041.012.571.015.753-.181.722-.736-.04-.7-.03-1.409 0-2.112.022-.567-.156-.842-.777-.838q-4.041.03-8.082 0c-.543 0-.787.192-.769.751.025.765.031 1.531 0 2.3-.018.487.171.634.642.626 1.405-.025 2.814-.013 4.222-.013zm-.082 52.2c-1.317 0-2.635.029-3.951-.013-.611-.019-.905.111-.844.794a12.567 12.567 0 010 1.928c-.045.7.19.985.934.974 2.573-.036 5.147-.041 7.719 0 .793.013 1.03-.293.98-1.027a12.565 12.565 0 010-1.837c.05-.624-.136-.861-.8-.836-1.339.048-2.691.014-4.039.014zm.007-46.068c.767 0 1.534.023 2.3-.006.816-.031 1.889.357 2.379-.177s.079-1.583.16-2.4c.068-.7-.255-.793-.85-.784-2.054.031-4.109-.008-6.164.021-.845.012-1.955-.387-2.466.176-.5.548-.077 1.643-.157 2.491-.058.617.233.7.751.689 1.347-.034 2.697-.015 4.046-.015zm-.022 43.3v.005c1.41 0 2.821-.017 4.231.01.483.009.651-.146.627-.628-.034-.7-.034-1.411 0-2.115.024-.486-.151-.631-.63-.628q-4.185.027-8.37 0c-.473 0-.659.132-.634.623.036.7.038 1.411.006 2.115-.022.485.151.636.631.627 1.377-.032 2.753-.015 4.137-.015z"/><path data-name="Path 85" d="M58.516 44.553c0-1.411.02-2.824-.008-4.234a1.628 1.628 0 01.9-1.572q12.7-7.249 25.393-14.5a1.407 1.407 0 012.26 1.316c.024 2.792-.008 5.585.015 8.377a1.925 1.925 0 01-1.2 1.788q-8.87 5.049-17.725 10.124c-2.4 1.369-4.787 2.743-7.188 4.1-1.465.828-2.447.246-2.455-1.439.002-1.321.007-2.636.008-3.96zm2.765 2.007c.469-.253.766-.4 1.055-.569 6.7-3.833 13.382-7.717 20.136-11.462 1.42-.787 2.079-1.615 1.867-3.243a26.887 26.887 0 01-.028-3.435 1.454 1.454 0 00-.254.035Q72.874 34.258 61.69 40.629a.671.671 0 00-.414.642c.01 1.712.004 3.424.004 5.289z"/><path data-name="Path 86" d="M48.31 61.911v7.453a7.008 7.008 0 01-.028.826 1.355 1.355 0 01-2.706-.039c-.057-1.194-.038-2.391-.038-3.587q0-6.21.008-12.421c0-.215-.007-.431.014-.644a1.3691 1.3691 0 112.738.039c.022.244.013.49.013.736q-.001 3.818-.001 7.637z"/></svg>