<?xml version="1.0" encoding="utf-8"?>
<!-- Generator: Adobe Illustrator 22.0.1, SVG Export Plug-In . SVG Version: 6.00 Build 0)  -->
<svg version="1.1" id="Layer_1" xmlns="http://www.w3.org/2000/svg" xmlns:xlink="http://www.w3.org/1999/xlink" x="0px" y="0px"
	 viewBox="0 0 116.9 130.1" style="enable-background:new 0 0 116.9 130.1;" xml:space="preserve">
<style type="text/css">
	.st0{fill:#FD2E3D;}
</style>
<g transform="translate(-26)">
	<g transform="translate(26)">
		<path class="st0" d="M104.2,0H45.7c-1.4,0-2.5,1.2-2.5,2.6c0,1.4,1.1,2.5,2.5,2.5h58.4c4.2,0,7.6,3.4,7.6,7.6v91.5
			c0,4.2-3.4,7.6-7.6,7.6H73.8c-0.7,0-1.3,0.3-1.8,0.7l-11.7,11.7c-1.1,1.1-2.8,1.1-3.9,0l-11.7-11.7c-0.5-0.5-1.1-0.7-1.8-0.7H12.7
			c-4.2,0-7.6-3.4-7.6-7.6V12.7c0-4.2,3.4-7.6,7.6-7.6h10.2c1.4,0,2.5-1.2,2.5-2.6c0-1.4-1.1-2.5-2.5-2.5H12.7C5.7,0,0,5.7,0,12.7
			v91.5c0,7,5.7,12.7,12.7,12.7H42l10.9,10.9c3.1,3,8,3,11.1,0l10.9-10.9h29.3c7,0,12.7-5.7,12.7-12.7V12.7
			C116.9,5.7,111.2,0,104.2,0z"/>
		<path class="st0" d="M91.5,104.1c0,1.4,1.1,2.5,2.5,2.5l0,0h10.2c1.4,0,2.5-1.1,2.5-2.5l0,0l0-91.4c0-1.4-1.1-2.5-2.5-2.5H12.7
			c-1.4,0-2.5,1.1-2.5,2.5l0,91.4c0,1.4,1.1,2.5,2.5,2.5l0,0h58.4c1.4,0,2.5-1.2,2.5-2.6c0-1.4-1.1-2.5-2.5-2.5H15.2l0-86.4h86.3
			l0,86.4H94C92.6,101.6,91.5,102.7,91.5,104.1L91.5,104.1z"/>
		<path class="st0" d="M86.4,56.5V46.4c0-1.4-1.1-2.5-2.5-2.5l0,0H71.8c1.8-4.2-0.2-9-4.4-10.8c-3-1.3-6.5-0.6-8.9,1.7
			c-3.3-3.2-8.5-3.1-11.7,0.2c-2.3,2.4-2.9,5.9-1.7,8.9H33c-1.4,0-2.5,1.1-2.5,2.5l0,0v10.2c0,1.4,1.1,2.5,2.5,2.5l0,0v22.9
			c0,1.4,1.1,2.5,2.5,2.5l0,0h45.7c1.4,0,2.5-1.1,2.5-2.5l0,0V59.1C85.2,59.1,86.4,57.9,86.4,56.5z M81.3,54H61v-5.1h20.3V54z
			 M64.2,37.5c1.8,0,3.2,1.4,3.2,3.2c0,1.8-1.4,3.2-3.2,3.2H61v-3.2C61,38.9,62.4,37.5,64.2,37.5z M49.5,40.6c0-1.8,1.4-3.2,3.2-3.2
			c1.8,0,3.2,1.4,3.2,3.2l0,0v3.2h-3.2C51,43.8,49.5,42.4,49.5,40.6L49.5,40.6z M35.6,48.9h20.3V54H35.6L35.6,48.9z M38.1,59.1h17.8
			v20.3H38.1L38.1,59.1z M78.8,79.4H61V59.1h17.8L78.8,79.4z"/>
		<path class="st0" d="M34.3,5.1c1.4,0,2.5-1.2,2.5-2.6c0-1.4-1.1-2.5-2.5-2.5l0,0c-1.4,0-2.6,1.1-2.6,2.5c0,1.4,1.1,2.6,2.5,2.6
			C34.2,5.1,34.3,5.1,34.3,5.1z"/>
		<path class="st0" d="M82.6,101.6c-1.4,0-2.5,1.1-2.5,2.5s1.1,2.5,2.5,2.5c1.4,0,2.5-1.1,2.5-2.5C85.1,102.7,84,101.6,82.6,101.6
			C82.6,101.6,82.6,101.6,82.6,101.6z"/>
	</g>
</g>
</svg>
