<?xml version="1.0" encoding="utf-8"?>
<!-- Generator: Adobe Illustrator 22.0.1, SVG Export Plug-In . SVG Version: 6.00 Build 0)  -->
<svg version="1.1" id="Layer_1" xmlns="http://www.w3.org/2000/svg" xmlns:xlink="http://www.w3.org/1999/xlink" x="0px" y="0px"
	 viewBox="0 0 122.3 130.4" style="enable-background:new 0 0 122.3 130.4;" xml:space="preserve">
<style type="text/css">
	.st0{fill:#FD2E3D;}
</style>
<g transform="translate(-16)">
	<g transform="translate(16)">
		<path class="st0" d="M115.9,88.3c4.2-8.4,6.3-17.7,6.4-27.1C122.3,27.4,94.9,0,61.1,0C44.9,0,29.4,6.4,17.9,17.9
			C6.4,29.3,0,44.9,0,61.1c0,18.2,8.1,35.4,22.1,47c-2.2,1.9-3.6,4.5-4.1,7.3c-4,1.3-6.2,5.6-4.9,9.6c1,3.1,4,5.3,7.3,5.3h81.5
			c4.2,0,7.6-3.4,7.6-7.6c0-3.3-2.1-6.2-5.3-7.3c-0.5-2.8-1.9-5.4-4.1-7.3C106.7,102.7,112.1,95.9,115.9,88.3L115.9,88.3z M5.1,61.1
			c0-30.9,25-56.1,56-56.1s56.1,25,56.1,56c0,11.3-3.4,22.4-9.8,31.8c-2.9-3.7-7.7-5.5-12.4-4.5c-1.1-2.2-2.7-4.1-4.6-5.6
			c1.9-1.6,2.2-4.5,0.6-6.5c-0.3-0.4-0.8-0.8-1.2-1c-3.2-1.9-6.2-4.2-9-6.7c1-0.2,2.1-0.5,3.2-0.7c0.1,0,0.2,0,0.2-0.1
			c2.4-0.8,3.7-3.4,2.9-5.8c-0.4-1.1-1.1-2-2.1-2.5c-3.3-1.9-6.3-4.2-9-6.9c2.3-0.4,4.6-1.3,6.7-2.4c0.1,0,0.1-0.1,0.2-0.1
			c2.1-1.4,2.8-4.2,1.4-6.3c-0.5-0.8-1.2-1.4-2.1-1.8c-7.9-3.3-12-9.6-14.4-13.4c-1.6-2.5-3.3-4.7-6.6-4.7s-5,2.2-6.6,4.7
			c-2.4,3.7-6.4,10-14.3,13.3c-2.4,0.9-3.5,3.6-2.6,5.9c0.4,1,1.1,1.8,2,2.3c2.1,1.2,4.3,2,6.7,2.4c-2.6,2.6-5.6,4.9-8.8,6.7
			c-2.3,1.2-3.1,3.9-2,6.2c0.6,1.2,1.6,2,2.9,2.3c1.1,0.3,2.1,0.5,3.2,0.7c-2.7,2.5-5.7,4.7-8.9,6.6c-2.2,1.2-3.1,4-1.8,6.2
			c0.3,0.5,0.6,1,1.1,1.3c-1.9,1.5-3.5,3.4-4.6,5.6c-4.7-1-9.4,0.8-12.4,4.5C8.6,83.5,5.1,72.4,5.1,61.1L5.1,61.1z M58.6,104.9V87.1
			c0.8,0,1.7,0,2.5,0s1.7,0,2.5,0v17.8H58.6z M36.2,79c4.6-3,8.9-6.5,12.7-10.4c1-1,1-2.6,0-3.6c-0.4-0.4-1-0.7-1.6-0.8
			c-2.2-0.2-4.3-0.5-6.4-1c4.8-2.9,9.1-6.6,12.5-11.1c0.8-1.1,0.6-2.7-0.5-3.6C52.5,48.2,52,48,51.5,48c-2.9,0-5.8-0.7-8.4-1.8
			c8.7-4,13.3-11.1,15.7-14.9c1.6-2.4,2-2.4,2.3-2.4s0.8,0,2.3,2.4c2.5,3.8,7,10.9,15.7,14.9c-2.6,1.2-5.5,1.8-8.4,1.8
			c-1.4,0.1-2.5,1.3-2.4,2.7c0,0.5,0.2,1,0.5,1.4c3.4,4.5,7.7,8.2,12.5,11.1c-2.1,0.5-4.3,0.9-6.5,1c-1.4,0.1-2.4,1.3-2.3,2.7
			c0.1,0.6,0.3,1.2,0.8,1.6c3.8,4,8.1,7.5,12.7,10.4C69.7,83.1,52.6,83.1,36.2,79z M18.2,97.1c2.2-4.3,6.5-4.6,9.9-3.4
			c1.3,0.5,2.8-0.2,3.3-1.6c0.1-0.1,0.1-0.3,0.1-0.4c0.4-2.7,4.2-6.3,7.3-6.9c4.8,1,9.8,1.7,14.7,2.1v18.1H30.6
			c-1.2,0-2.5,0.2-3.7,0.5C23.7,103,20.8,100.2,18.2,97.1z M101.9,125.3H20.4c-1.4,0-2.5-1.1-2.5-2.5c0-1.4,1.1-2.5,2.5-2.5h29.3
			c1.4,0,2.5-1.1,2.5-2.5c0-1.4-1.1-2.5-2.5-2.5H23.4c1.1-3,4-5.1,7.2-5.1h61.1c3.2,0,6.1,2,7.2,5.1H72.6c-1.4,0-2.5,1.1-2.5,2.5
			c0,1.4,1.1,2.5,2.5,2.5l0,0h29.3c1.4,0,2.5,1.1,2.5,2.5C104.4,124.2,103.3,125.3,101.9,125.3L101.9,125.3z M95.4,105.5
			c-1.2-0.4-2.4-0.5-3.7-0.5H68.8V86.9c4.9-0.3,9.9-1,14.7-2.1c3.1,0.7,6.9,4.2,7.3,6.9c0.2,1.4,1.5,2.3,2.9,2.1
			c0.2,0,0.3-0.1,0.4-0.1c3.4-1.2,7.7-0.9,9.9,3.4C101.5,100.2,98.6,103,95.4,105.5L95.4,105.5z"/>
		<path class="st0" d="M33.8,32c1.4,0,2.5-1.1,2.5-2.5c0-1.4-1.1-2.5-2.5-2.5l0,0c-1.4,0-2.5,1.1-2.5,2.5C31.3,30.9,32.4,32,33.8,32
			z"/>
		<path class="st0" d="M20.1,62.1c1.4,0,2.5-1.1,2.5-2.6c0-1.4-1.1-2.5-2.5-2.5l0,0c-1.4,0-2.5,1.1-2.6,2.5
			C17.5,60.9,18.6,62.1,20.1,62.1C20.1,62.1,20.1,62.1,20.1,62.1z"/>
		<path class="st0" d="M102.1,71.3c1.4,0,2.5-1.1,2.5-2.6c0-1.4-1.1-2.5-2.5-2.5l0,0c-1.4,0-2.5,1.1-2.6,2.5
			C99.5,70.1,100.7,71.3,102.1,71.3C102.1,71.3,102.1,71.3,102.1,71.3z"/>
		<path class="st0" d="M91.9,34.6c1.4,0,2.5-1.1,2.5-2.5c0-1.4-1.1-2.5-2.5-2.5l0,0c-1.4,0-2.5,1.1-2.5,2.5
			C89.3,33.4,90.5,34.6,91.9,34.6z"/>
		<path class="st0" d="M67.9,16.7c1.4,0,2.5-1.1,2.5-2.5c0-1.4-1.1-2.5-2.5-2.5c0,0,0,0,0,0l0,0c-1.4,0-2.5,1.1-2.5,2.5
			S66.5,16.7,67.9,16.7z"/>
		<path class="st0" d="M61.1,115.1L61.1,115.1c-1.4,0-2.5,1.1-2.5,2.5c0,1.4,1.1,2.5,2.5,2.5c1.4,0,2.5-1.1,2.5-2.5
			C63.7,116.3,62.5,115.1,61.1,115.1C61.1,115.1,61.1,115.1,61.1,115.1L61.1,115.1z"/>
	</g>
</g>
</svg>
