<svg xmlns="http://www.w3.org/2000/svg" width="99.435" height="87.006" viewBox="0 0 99.435 87.006"><g transform="translate(0 -32)"><path d="M33.554,71.768h0A1.554,1.554,0,0,1,32,70.215V64h6.215a1.554,1.554,0,0,1,1.554,1.554h0a1.554,1.554,0,0,1-1.554,1.554H35.107v3.107A1.554,1.554,0,0,1,33.554,71.768Z" transform="translate(-25.785 -25.785)"/><path d="M91.04,403.107H87.932V400H91.04Zm-6.215,0H81.718V400h3.107Zm-6.215,0H75.5V400H78.61Zm-6.215,0H69.288V400H72.4Zm-6.215,0H63.073V400h3.107Zm-6.215,0H56.859V400h3.107Zm-6.215,0H50.644V400h3.107Zm-6.215,0H44.429V400h3.107Zm-6.215,0H38.215V400h3.107Zm-6.215,0H32V400h3.107Z" transform="translate(-25.785 -296.531)"/><path d="M91.04,435.107H87.932V432H91.04Zm-6.215,0H81.718V432h3.107Zm-6.215,0H75.5V432H78.61Zm-6.215,0H69.288V432H72.4Zm-6.215,0H63.073V432h3.107Zm-6.215,0H56.859V432h3.107Zm-6.215,0H50.644V432h3.107Zm-6.215,0H44.429V432h3.107Zm-6.215,0H38.215V432h3.107Zm-6.215,0H32V432h3.107Z" transform="translate(-25.785 -322.316)"/><path d="M417.467,64h9.408a1.554,1.554,0,0,1,1.554,1.554h0a1.554,1.554,0,0,1-1.554,1.554h-9.408A1.467,1.467,0,0,1,416,65.64v-.172A1.467,1.467,0,0,1,417.467,64Z" transform="translate(-335.209 -25.785)"/><path d="M417.467,96h9.408a1.554,1.554,0,0,1,1.554,1.554h0a1.554,1.554,0,0,1-1.554,1.554h-9.408A1.467,1.467,0,0,1,416,97.64v-.172A1.467,1.467,0,0,1,417.467,96Z" transform="translate(-335.209 -51.571)"/><path d="M417.467,128h9.408a1.554,1.554,0,0,1,1.554,1.554h0a1.554,1.554,0,0,1-1.554,1.554h-9.408A1.467,1.467,0,0,1,416,129.64v-.172A1.467,1.467,0,0,1,417.467,128Z" transform="translate(-335.209 -77.356)"/><path d="M303.768,143.768h-6.308a1.46,1.46,0,0,1-1.46-1.46v-.186a1.46,1.46,0,0,1,1.46-1.46h3.2v-3.2a1.46,1.46,0,0,1,1.46-1.46h.186a1.461,1.461,0,0,1,1.46,1.46Z" transform="translate(-238.514 -83.802)"/><path d="M404.2,32H388.661A4.661,4.661,0,0,0,384,36.661V91.04h24.859V36.661A4.661,4.661,0,0,0,404.2,32Zm1.554,55.932H387.107V36.661a1.554,1.554,0,0,1,1.554-1.554H404.2a1.554,1.554,0,0,1,1.554,1.554Z" transform="translate(-309.424)"/><path d="M66.808,368H4.661A4.661,4.661,0,0,0,0,372.661V385.09a4.661,4.661,0,0,0,4.661,4.661H66.808a4.661,4.661,0,0,0,4.661-4.661V372.661A4.661,4.661,0,0,0,66.808,368Zm1.554,17.09a1.554,1.554,0,0,1-1.554,1.554H4.661a1.554,1.554,0,0,1-1.554-1.554V372.661a1.554,1.554,0,0,1,1.554-1.554H66.808a1.554,1.554,0,0,1,1.554,1.554Z" transform="translate(0 -270.746)"/><path d="M407.768,368A7.777,7.777,0,0,0,400,375.768v6.215a7.768,7.768,0,1,0,15.537,0v-6.215A7.777,7.777,0,0,0,407.768,368Zm4.661,13.983a4.661,4.661,0,0,1-4.571,4.66,4.746,4.746,0,0,1-4.751-4.765v-6.11a4.661,4.661,0,0,1,3.107-4.375v5.286a.642.642,0,0,0,.642.642h1.822a.642.642,0,0,0,.642-.642v-5.286a4.661,4.661,0,0,1,3.107,4.375Z" transform="translate(-322.316 -270.746)"/><path d="M66.808,32H4.661A4.661,4.661,0,0,0,0,36.661V73.949A4.661,4.661,0,0,0,4.661,78.61H26.412v6.474a2.851,2.851,0,0,1-2.848,2.848H20.159a1.515,1.515,0,0,0-1.515,1.515v.078a1.515,1.515,0,0,0,1.515,1.515H48.2a1.515,1.515,0,0,0,1.515-1.515v-.078A1.515,1.515,0,0,0,48.2,87.932H44.8a2.851,2.851,0,0,1-2.848-2.848V78.61H66.808a4.661,4.661,0,0,0,4.661-4.661V36.661A4.661,4.661,0,0,0,66.808,32ZM28.793,87.932a5.912,5.912,0,0,0,.727-2.848V78.61h3.107V83.66a1.554,1.554,0,0,0,1.554,1.554h0a1.554,1.554,0,0,0,1.554-1.554V78.61h3.107v6.474a5.912,5.912,0,0,0,.727,2.848ZM68.362,73.949A1.554,1.554,0,0,1,66.808,75.5H4.661a1.554,1.554,0,0,1-1.554-1.554V66.181H68.362Zm0-10.876H3.107V36.661a1.554,1.554,0,0,1,1.554-1.554H66.808a1.554,1.554,0,0,1,1.554,1.554Z"/><path d="M423.765,227.328v-2.434a.894.894,0,0,0-.894-.894h-1.319a.894.894,0,0,0-.894.894v2.434a6.215,6.215,0,1,0,3.107,0Zm-1.554,9.1a3.1,3.1,0,0,1-1.554-5.783V232.7a.621.621,0,0,0,.621.621h1.865a.621.621,0,0,0,.621-.621v-2.054a3.1,3.1,0,0,1-1.554,5.783Z" transform="translate(-335.206 -154.712)"/><path d="M169.044,224h1.019a1.044,1.044,0,0,1,1.044,1.044v1.019a1.044,1.044,0,0,1-1.044,1.044h-1.019A1.044,1.044,0,0,1,168,226.063v-1.019A1.044,1.044,0,0,1,169.044,224Z" transform="translate(-135.373 -154.712)"/></g></svg>