<svg xmlns="http://www.w3.org/2000/svg" xmlns:xlink="http://www.w3.org/1999/xlink" width="817.018" height="800.976"><defs><linearGradient id="a" x1="-7.401" y1="-1.606" x2="-7.084" y2="-.472" gradientUnits="objectBoundingBox"><stop offset=".003" stop-color="#ffc25f"/><stop offset=".538" stop-color="#ffc05f"/><stop offset=".731" stop-color="#ffb95f"/><stop offset=".869" stop-color="#ffad5f"/><stop offset=".979" stop-color="#ff9c5f"/><stop offset=".999" stop-color="#ff995f"/></linearGradient><linearGradient id="e" x1=".39" y1="-.452" x2=".506" y2=".823" gradientUnits="objectBoundingBox"><stop offset=".003" stop-color="#ffd95f"/><stop offset=".225" stop-color="#ffd25f"/><stop offset=".523" stop-color="#ffc25f"/><stop offset=".863" stop-color="#ffa65f"/><stop offset=".999" stop-color="#ff995f"/></linearGradient><linearGradient id="b" x1="-8.047" y1="-1.444" x2="-7.019" y2="-1.444" gradientUnits="objectBoundingBox"><stop offset=".003" stop-color="#ffd95f"/><stop offset=".493" stop-color="#ffd75f"/><stop offset=".669" stop-color="#ffd05f"/><stop offset=".795" stop-color="#ffc45f"/><stop offset=".897" stop-color="#ffb35f"/><stop offset=".983" stop-color="#ff9d5f"/><stop offset=".999" stop-color="#ff995f"/></linearGradient><linearGradient id="f" x1=".9" y1="-.256" x2=".276" y2=".922" xlink:href="#a"/><linearGradient id="g" x1=".309" y1="-.326" x2=".509" y2=".9" xlink:href="#b"/><linearGradient id="h" x1=".454" y1=".131" x2=".505" y2=".926" xlink:href="#b"/><linearGradient id="c" x1="-12.981" y1=".325" x2="-12.639" y2="-.87" gradientUnits="objectBoundingBox"><stop offset=".003" stop-color="#f24c27"/><stop offset=".2" stop-color="#f3532c"/><stop offset=".496" stop-color="#f6673b"/><stop offset=".853" stop-color="#fc8953"/><stop offset=".999" stop-color="#ff995f"/></linearGradient><linearGradient id="i" x1="-1.884" y1="-3.6" x2="-1.561" y2="-4.754" xlink:href="#c"/><linearGradient id="j" x1=".591" y1=".129" x2=".506" y2=".733" xlink:href="#b"/><linearGradient id="d" x1="1.213" y1=".171" x2=".147" y2=".663" gradientUnits="objectBoundingBox"><stop offset=".003" stop-color="#cee8f2"/><stop offset=".357" stop-color="#dbeef5"/><stop offset=".999" stop-color="#fff"/></linearGradient><linearGradient id="k" x1=".25" y1=".024" x2=".832" y2="1.131" gradientUnits="objectBoundingBox"><stop offset=".289" stop-color="#ffc25f"/><stop offset=".999" stop-color="#ff995f"/></linearGradient><linearGradient id="l" x1=".633" y1="-.196" x2=".488" y2=".859" xlink:href="#b"/><linearGradient id="m" x1=".418" y1="-1.032" x2=".496" y2=".432" xlink:href="#d"/><linearGradient id="n" x1="-7.933" y1=".155" x2="-8.999" y2=".648" xlink:href="#d"/></defs><g data-name="Group 608"><path data-name="Path 412" d="M631.152 657.992c9.189 1.215 18.408 2.194 27.655 2.864 40.577 2.935 82.177-.252 120.141-14.871 13.34-5.137 30.412-11.317 35.276-25.746 5.245-15.558 2.844-33.323-5.016-47.579-9.2-16.681-23.242-28.064-41.213-34.286-13.27-4.593-27.4-7.747-38.808-15.932-16.252-11.658-19.843-33.582-11.186-51.067 9.277-18.742 18.139-37.977 20.587-58.983 1.99-17.053-.909-35.409-10.1-50.112-10.07-16.114-27.321-20.81-45.589-22.623-24.554-2.439-52.385-2.836-63.576-29.548-8.465-20.2-1.17-43.285 7.088-63.574 12.1-29.742 20.648-59.425 5.815-90.079-8.056-16.649-22.475-30.361-39.937-36.454-32.72-11.417-64.849 5.422-97.855-1.158-13.766-2.743-27.3-10-36.015-21.179-10.409-13.357-8.857-30.146-11.226-46.117-4.114-27.742-25.977-49.54-54.507-51.425-36.79-2.428-68.19 31.751-84.631 60.906-14.5 25.707-23.162 54.056-34.451 81.194-8.913 21.426-26.132 40.794-50.485 43.374-22.371 2.371-41.673-10.75-62.2-16.756-21.429-6.269-45.012-4.416-65.6 3.993-27.153 11.095-49.182 32.781-64.011 58.09C1.034 282.594-3.767 350.236 2.267 408.712c4.4 42.6 17.354 84.7 40.771 120.561s57.467 64.438 96.294 82.361c41.493 19.156 89.748 24.819 134.773 28.919a1328.647 1328.647 0 00169.409 4.565c28.581-1.054 56.936-3.785 85.435-5.909 11.2-.835 22.681 3.934 33.7 6.313 13.7 2.957 27.424 5.784 41.224 8.222 9.064 1.605 18.156 3.042 27.279 4.248z" fill="#fd2e3d"/><g data-name="Group 598"><path data-name="Rectangle 88" fill="#391075" opacity=".23" style="mix-blend-mode:multiply;isolation:isolate" d="M370.809 342.559l-209.6012-58.1985 37.1304-133.7248 209.6012 58.1985z"/><path data-name="Rectangle 89" transform="rotate(-166.535 203.0701 143.0799)" fill="url(#a)" d="M0 0h217.531v138.784H0z"/><path data-name="Path 413" d="M280.884 221.325l85.951 108.125-210.752-50.462z" fill="#ff995f" opacity=".44" style="mix-blend-mode:multiply;isolation:isolate"/><path data-name="Path 414" d="M620.186 1042.177l87.247 102.709-211.551-50.654z" transform="translate(-340.191 -815.374)" fill="url(#e)"/><path data-name="Path 415" d="M273.958 252.014l-85.95-108.125 210.752 50.462z" fill="#ff995f" opacity=".44" style="mix-blend-mode:multiply;isolation:isolate"/><path data-name="Path 416" d="M601.614 1097.461l-87.247-102.709 211.551 50.654z" transform="translate(-326.359 -850.863)" fill="url(#b)"/></g><path data-name="Path 417" d="M433.63 354.784l-123.094-75.728-109.443 94.389 11.906 148.358 232.537-18.661z" fill="#391075" opacity=".23" style="mix-blend-mode:multiply;isolation:isolate"/><g data-name="Group 599"><path data-name="Rectangle 90" transform="matrix(.991 -.136 .136 .991 192.101 376.358)" fill="url(#f)" d="M0 0h233.284v148.835H0z"/><path data-name="Path 418" d="M315.929 417.459L212.795 523.786l230.241-31.624z" fill="#ff995f" opacity=".3" style="mix-blend-mode:multiply;isolation:isolate"/><path data-name="Path 419" d="M632.237 1154.625l-103.946 100.41 231.115-31.744z" transform="translate(-315.938 -731.227)" fill="url(#g)"/><path data-name="Path 420" d="M620.653 1070.287L516.708 1170.7l.874-.12 116.5-2.536 113.742-29.088z" transform="translate(-324.607 -794.339)" fill="url(#h)"/></g><g data-name="Group 601"><path data-name="Path 421" d="M735.611 981.331a41.014 41.014 0 00-4.808-15.793 46.717 46.717 0 00-10.661-13.2 65.108 65.108 0 00-15.086-9.7 70.413 70.413 0 00-18.663-5.617 83.376 83.376 0 00-41.2 3.88 70.411 70.411 0 00-17.287 9 65.154 65.154 0 00-13.009 12.35 46.713 46.713 0 00-8.009 14.957 40.961 40.961 0 005.255 35.743 52.8 52.8 0 0015.427 14.943 69.393 69.393 0 0021.838 8.917 79.714 79.714 0 0025.758 1.657 80.961 80.961 0 0024.589-6.215l15.854 9.112q8.832 4.471 12.007 1.948t.343-12.558l-4.539-15.177a49.782 49.782 0 009.871-16.229 40.813 40.813 0 002.32-18.018z" transform="translate(-258.594 -894.841)" fill="url(#c)"/><g data-name="Group 600" fill="#fff"><path data-name="Path 422" d="M427.463 95.499a6.788 6.788 0 116.121 7.4 6.788 6.788 0 01-6.121-7.4z"/><path data-name="Path 423" d="M403.046 93.193a6.788 6.788 0 116.119 7.4 6.788 6.788 0 01-6.119-7.4z"/><path data-name="Path 424" d="M378.628 90.886a6.787 6.787 0 116.119 7.4 6.785 6.785 0 01-6.119-7.4z"/></g></g><g data-name="Group 603"><path data-name="Path 425" d="M802.594 1120a34.1 34.1 0 019.731-9.672 38.853 38.853 0 0113-5.47 54.05 54.05 0 0114.861-1.172 58.519 58.519 0 0115.874 3.226 69.3 69.3 0 0128.645 19.048 58.534 58.534 0 019.116 13.391 54.122 54.122 0 014.668 14.158 38.837 38.837 0 01-.019 14.1 34.033 34.033 0 01-17.9 24.1 43.865 43.865 0 01-17.172 4.875 57.671 57.671 0 01-19.5-2.061 66.274 66.274 0 01-19.511-8.917 67.331 67.331 0 01-15.558-14.221l-15.191.437q-8.226-.2-9.558-3.3t4.689-9.329l9.292-9.327a41.357 41.357 0 01-.844-15.764 33.9 33.9 0 015.377-14.102z" transform="translate(-124.711 -769.414)" fill="url(#i)"/><g data-name="Group 602" fill="#fff"><path data-name="Path 426" d="M710.622 376.67a5.642 5.642 0 10-7.39 3.007 5.642 5.642 0 007.39-3.007z"/><path data-name="Path 427" d="M729.405 384.585a5.641 5.641 0 10-7.388 3.007 5.641 5.641 0 007.388-3.007z"/><path data-name="Path 428" d="M748.191 392.499a5.641 5.641 0 10-7.39 3.007 5.641 5.641 0 007.39-3.007z"/></g></g><g data-name="Group 605"><path data-name="Path 429" d="M636.233 259.298l29.794-132.295-170.51-15.752L471.24 230.61l-31.515 16.822-37.012 143.075 230.273 49.114 29.969-140.51z" fill="#391075" opacity=".23" style="mix-blend-mode:multiply;isolation:isolate"/><g data-name="Group 604"><path data-name="Path 430" d="M786.005 1019.629L658.7 1076.7l.832.178 106.6 35.9 112.8 10.893z" transform="translate(-218.348 -832.247)" fill="url(#j)"/><path data-name="Rectangle 91" transform="rotate(12.04 -158.6135 2435.2037)" fill="url(#d)" d="M0 0h161.763v213.892H0z"/><path data-name="Path 431" d="M778.964 1088.354l-106.6-35.9-.833-.178-29.969 140.51 220.238 46.971 29.969-140.51z" transform="translate(-231.175 -807.819)" fill="url(#k)"/><path data-name="Path 432" d="M539.299 322.378l-128.5 62.711 219.4 46.8z" fill="#ff995f" opacity=".3" style="mix-blend-mode:multiply;isolation:isolate"/><path data-name="Path 433" d="M768.863 1100l-127.3 57.072 220.237 46.972z" transform="translate(-231.175 -772.106)" fill="url(#l)"/><path data-name="Rectangle 92" fill="#a7c6d9" d="M517.591 104.866l126.1466 26.9054-.9768 4.58-126.1466-26.9054z"/><path data-name="Rectangle 93" fill="#a7c6d9" d="M514.585 118.961l120.1104 25.618-.9768 4.5799-120.1104-25.618z"/><path data-name="Rectangle 94" fill="#a7c6d9" d="M511.578 133.057l126.1464 26.9577-.9788 4.58-126.1463-26.9577z"/><path data-name="Rectangle 95" fill="#a7c6d9" d="M508.572 147.152l120.1104 25.618-.9768 4.5799-120.1104-25.618z"/><path data-name="Rectangle 96" fill="#a7c6d9" d="M505.565 161.248l126.1473 26.9579-.9787 4.58-126.1473-26.958z"/><path data-name="Rectangle 97" fill="#a7c6d9" d="M502.559 175.344l95.3452 20.3754-.9787 4.58-95.3452-20.3754z"/><path data-name="Rectangle 98" fill="#a7c6d9" d="M499.553 189.439l126.1464 26.9577-.9788 4.58-126.1463-26.9577z"/><path data-name="Rectangle 99" fill="#a7c6d9" d="M496.546 203.534l117.6126 25.0852-.9769 4.58-117.6125-25.0852z"/><path data-name="Rectangle 100" fill="#a7c6d9" d="M493.54 217.63l126.1466 26.9054-.9768 4.58L492.5632 222.21z"/><path data-name="Rectangle 101" fill="#a7c6d9" d="M490.533 231.726l117.6123 25.134-.9785 4.579-117.6123-25.134z"/><path data-name="Rectangle 102" fill="#a7c6d9" d="M487.527 245.821l126.1466 26.9054-.9768 4.58-126.1466-26.9054z"/></g></g><path data-name="Path 434" d="M690.743 517.191a19.231 19.231 0 0014.91 14.91 19.231 19.231 0 00-14.91 14.91 19.228 19.228 0 00-14.908-14.91 19.229 19.229 0 0014.908-14.91z" fill="#fff"/><path data-name="Path 435" d="M669.564 422.716a21.8 21.8 0 0016.906 16.9 21.8 21.8 0 00-16.906 16.906 21.808 21.808 0 00-16.906-16.906 21.805 21.805 0 0016.906-16.9z" fill="#fff"/><path data-name="Path 436" d="M439.639 190.165a24.121 24.121 0 0018.7 18.7 24.122 24.122 0 00-18.7 18.7 24.123 24.123 0 00-18.7-18.7 24.122 24.122 0 0018.7-18.7z" fill="#fff"/><path data-name="Path 437" d="M417.553 167.265a9.841 9.841 0 007.631 7.63 9.845 9.845 0 00-7.631 7.632 9.841 9.841 0 00-7.63-7.632 9.837 9.837 0 007.63-7.63z" fill="#fff"/><path data-name="Path 438" d="M205.166 303.792a9.846 9.846 0 007.63 7.632 9.841 9.841 0 00-7.63 7.63 9.839 9.839 0 00-7.63-7.63 9.844 9.844 0 007.63-7.632z" fill="#fff"/><path data-name="Path 439" d="M148.061 201.237a9.841 9.841 0 007.63 7.63 9.839 9.839 0 00-7.63 7.63 9.844 9.844 0 00-7.631-7.63 9.846 9.846 0 007.631-7.63z" fill="#fff"/><path data-name="Path 440" d="M468.52 449.074a9.839 9.839 0 007.63 7.63 9.843 9.843 0 00-7.63 7.631 9.843 9.843 0 00-7.63-7.631 9.839 9.839 0 007.63-7.63z" fill="#fff"/><path data-name="Path 441" d="M434.202 523.496a11.4 11.4 0 008.833 8.834 11.39 11.39 0 00-8.833 8.832 11.392 11.392 0 00-8.834-8.832 11.4 11.4 0 008.834-8.834z" fill="#fff"/><path data-name="Path 442" d="M397.823 520.72a22.319 22.319 0 0017.3 17.3 22.318 22.318 0 00-17.3 17.3 22.316 22.316 0 00-17.3-17.3 22.316 22.316 0 0017.3-17.3z" fill="#fff"/><path data-name="Path 443" d="M154.935 496.539a9.846 9.846 0 007.631 7.63 9.843 9.843 0 00-7.631 7.63 9.839 9.839 0 00-7.63-7.63 9.842 9.842 0 007.63-7.63z" fill="#fff"/><path data-name="Path 444" d="M176.164 450.696a15.22 15.22 0 0011.8 11.8 15.222 15.222 0 00-11.8 11.8 15.225 15.225 0 00-11.8-11.8 15.222 15.222 0 0011.8-11.8z" fill="#fff"/><path data-name="Path 445" d="M321.764 88.474a8.764 8.764 0 006.789 6.789 8.759 8.759 0 00-6.789 6.787 8.755 8.755 0 00-6.787-6.787 8.76 8.76 0 006.787-6.789z" fill="#fff"/><path data-name="Path 446" d="M461.732 160.898a8.755 8.755 0 006.789 6.789 8.755 8.755 0 00-6.789 6.789 8.755 8.755 0 00-6.789-6.789 8.754 8.754 0 006.789-6.789z" fill="#fff"/><path data-name="Path 447" d="M482.939 420.527a8.754 8.754 0 006.789 6.789 8.755 8.755 0 00-6.789 6.789 8.755 8.755 0 00-6.789-6.789 8.754 8.754 0 006.789-6.789z" fill="#fff"/><path data-name="Path 448" d="M690.744 461.28a8.759 8.759 0 006.789 6.789 8.76 8.76 0 00-6.789 6.789 8.755 8.755 0 00-6.787-6.789 8.755 8.755 0 006.787-6.789z" fill="#fff"/><path data-name="Path 449" d="M748.636 552.095a8.755 8.755 0 006.789 6.787 8.759 8.759 0 00-6.789 6.789 8.76 8.76 0 00-6.789-6.789 8.755 8.755 0 006.789-6.787z" fill="#fff"/><path data-name="Path 450" d="M312.741 116.712a24.45 24.45 0 0018.957 18.957 24.453 24.453 0 00-18.957 18.959 24.453 24.453 0 00-18.957-18.959 24.449 24.449 0 0018.957-18.957z" fill="#fff"/><path data-name="Path 451" d="M172.668 313.245a26.846 26.846 0 0020.812 20.812 26.85 26.85 0 00-20.812 20.814 26.845 26.845 0 00-20.812-20.814 26.841 26.841 0 0020.812-20.812z" fill="#fff"/><g data-name="Group 606" transform="translate(392.642 424.88)"><path data-name="Path 452" d="M259.209 60.631L143.757 10.848a22.8 22.8 0 00-29.963 11.908L5.68 273.48a22.8 22.8 0 0011.908 29.963l115.45 49.783a22.8 22.8 0 0029.963-11.908L271.119 90.594a22.8 22.8 0 00-11.91-29.963z" fill="#391075" opacity=".23" style="mix-blend-mode:multiply;isolation:isolate"/><path data-name="Path 453" d="M250.595 48.886l-108.293-46.7a26.7 26.7 0 00-35.085 13.943L2.188 259.699a26.7 26.7 0 0013.945 35.085l108.292 46.7a26.7 26.7 0 0035.085-13.943L264.539 83.976a26.7 26.7 0 00-13.944-35.09z" fill="#d10019"/><rect data-name="Rectangle 103" width="294.473" height="146.45" rx="7.61" transform="rotate(-66.674 215.2532 133.0747)" fill="url(#m)"/><rect data-name="Rectangle 104" width="68.795" height="13.462" rx="3.112" transform="rotate(23.326 35.0212 401.9919)" fill="#570080"/><path data-name="Path 454" d="M237.281 67.848l3.159 1.369 1.6-3.684-3.157-1.371zm-3.686-1.6l3.159 1.371 1.6-3.686-3.157-1.371zm11.056 4.8a.583.583 0 01-.755.3l-10.528-4.569a.545.545 0 01-.3-.316.555.555 0 010-.439l1.6-3.684a.581.581 0 01.754-.3l10.53 4.568a.58.58 0 01.3.755zm2.423-2.7l-.37-.161-.156-.067.227-.526a1.165 1.165 0 00-.6-1.511l-10.528-4.568a1.1 1.1 0 00-.885-.013 1.119 1.119 0 00-.624.609l-1.6 3.685a1.118 1.118 0 00-.017.872 1.1 1.1 0 00.614.637l10.529 4.568a1.165 1.165 0 001.511-.6l.227-.526.157.068.369.161a.553.553 0 00.439 0 .546.546 0 00.317-.3l.685-1.579a.586.586 0 00-.3-.755z" fill="#ff6cd2"/><path data-name="Path 455" d="M138.094 20.712a.145.145 0 01-.072-.073 5.829 5.829 0 00-1.073-1.586 4.989 4.989 0 00-3.352-1.454 5.8 5.8 0 00-1.89.3.154.154 0 01-.1 0 1.269 1.269 0 01-.238-.458 1.167 1.167 0 01-.14-.5.135.135 0 01.079-.075 5.669 5.669 0 012.273-.377 6.142 6.142 0 014.2 1.823 5.641 5.641 0 011.276 1.918.131.131 0 010 .109c-.021.047-.175.128-.461.24a1.216 1.216 0 01-.502.133zm-1.549.612a.192.192 0 01-.079-.071 5.075 5.075 0 00-.738-1.053 2.921 2.921 0 00-.983-.661 2.978 2.978 0 00-.717-.208 3.6 3.6 0 00-.685-.045c-.2.009-.392.026-.561.051a4.051 4.051 0 00-.406.075 1.209 1.209 0 01-.163.033c-.045-.019-.124-.171-.236-.458a1.167 1.167 0 01-.138-.5.133.133 0 01.077-.07 3.968 3.968 0 011.631-.264 4.441 4.441 0 013.03 1.315 3.966 3.966 0 01.921 1.371.136.136 0 010 .1 1.22 1.22 0 01-.46.241 1.245 1.245 0 01-.493.145zm-1.56.612c-.005 0-.044-.059-.115-.169a2.522 2.522 0 00-.318-.374 1.487 1.487 0 00-.47-.322 1.468 1.468 0 00-.554-.122 2.285 2.285 0 00-.49.024 1.6 1.6 0 01-.2.03c-.049-.021-.129-.175-.243-.461a1.159 1.159 0 01-.14-.5.128.128 0 01.079-.073 2.362 2.362 0 01.991-.143 2.767 2.767 0 011.857.806 2.367 2.367 0 01.574.822.145.145 0 010 .108c-.021.047-.175.128-.462.24a1.189 1.189 0 01-.508.134zm-1.047.482a1.091 1.091 0 01-.5.131c-.052-.025-.135-.175-.243-.455a1.084 1.084 0 01-.13-.5c.037-.086.15-.123.343-.108a1.39 1.39 0 01.451.093 1.424 1.424 0 01.374.266c.14.131.192.238.156.323-.02.057-.172.139-.451.251z" fill="#ff6cd2"/><path data-name="Path 456" d="M231.236 59.605a.177.177 0 01.1.1.17.17 0 010 .14l-2.171 5a.174.174 0 01-.1.1.178.178 0 01-.14-.005l-.5-.217a.176.176 0 01-.095-.24l2.172-5a.172.172 0 01.1-.1.177.177 0 01.14.005zm-1.769.421a.175.175 0 01.094.24l-1.736 4a.181.181 0 01-.1.1.169.169 0 01-.14 0l-.5-.219a.172.172 0 01-.1-.1.178.178 0 01.005-.14l1.736-4a.172.172 0 01.1-.1.179.179 0 01.14.005zm-1.769.423a.172.172 0 01.1.1.169.169 0 01-.005.14l-1.3 3a.176.176 0 01-.1.1.171.171 0 01-.14-.005l-.5-.217a.189.189 0 01-.1-.1.182.182 0 01.005-.142l1.3-3a.185.185 0 01.1-.1.178.178 0 01.14.005zm-3.537.843a.174.174 0 01.1.1.177.177 0 01-.005.14l-.434 1a.175.175 0 01-.239.094l-.5-.217a.174.174 0 01-.1-.1.177.177 0 01.005-.14l.434-1a.174.174 0 01.1-.1.178.178 0 01.14.005zm1.769-.421a.177.177 0 01.1.1.182.182 0 01-.005.142l-.869 2a.178.178 0 01-.1.1.183.183 0 01-.142-.005l-.5-.217a.176.176 0 01-.1-.1.181.181 0 01.005-.141l.869-2a.175.175 0 01.1-.1.171.171 0 01.14.005z" fill="#ff6cd2"/><path data-name="Path 457" d="M148.425 26.944a1.385 1.385 0 111.047-.016 1.33 1.33 0 01-1.047.016zm-5.49-3.661a1.308 1.308 0 01.736-.743 1.351 1.351 0 011.789.713 1.362 1.362 0 11-2.525.03zm6.794.392a1.959 1.959 0 00-.831-.143 2.261 2.261 0 00-.813.178 2.3 2.3 0 00-.685.458 2.156 2.156 0 00-.463.713 1.957 1.957 0 00-.142.727 2.567 2.567 0 00.1.727l-1.67-.666a2.556 2.556 0 00.577-.455 1.991 1.991 0 00.4-.626 2.172 2.172 0 00.156-.837 2.274 2.274 0 00-.184-.8 2.206 2.206 0 00-.465-.689 1.975 1.975 0 00-.7-.468 2.049 2.049 0 00-.839-.147 2.258 2.258 0 00-.813.178 2.174 2.174 0 00-.677.461 2.022 2.022 0 00-.472.71 2.046 2.046 0 00-.147.839 2.131 2.131 0 00.175.8 2.246 2.246 0 00.465.689 2.039 2.039 0 00.71.47l4.717 1.883a2.046 2.046 0 00.839.149 2.259 2.259 0 00.813-.18 2.14 2.14 0 00.677-.46 2.082 2.082 0 00.619-1.551 2.123 2.123 0 00-.175-.8 2.206 2.206 0 00-.465-.689 2.02 2.02 0 00-.707-.472z" fill="#ff6cd2"/></g><g data-name="Group 607"><path data-name="Rectangle 105" fill="#391075" opacity=".23" style="mix-blend-mode:multiply;isolation:isolate" d="M143.737 536.606l123.7323-104.1997L405.248 596.0121 281.5156 700.2118z"/><path data-name="Rectangle 106" transform="rotate(-42.167 777.9978 83.8568)" fill="url(#n)" d="M0 0h161.763v213.892H0z"/><path data-name="Rectangle 107" fill="#a7c6d9" d="M167.499 543.985l95.6018-86.5862 3.1437 3.471-95.6018 86.5862z"/><path data-name="Rectangle 108" fill="#a7c6d9" d="M177.174 554.667l91.0272-82.443 3.1437 3.471-91.0272 82.443z"/><path data-name="Rectangle 109" fill="#a7c6d9" d="M186.849 565.35l95.5771-86.5483 3.1423 3.4701-95.5771 86.5483z"/><path data-name="Rectangle 110" fill="#a7c6d9" d="M196.524 576.032l91.0272-82.443 3.1437 3.471-91.0272 82.443z"/><path data-name="Rectangle 111" fill="#a7c6d9" d="M206.199 586.715l95.6026-86.5868 3.1436 3.471-95.6025 86.5868z"/><path data-name="Rectangle 112" fill="#a7c6d9" d="M215.874 597.397l72.2587-65.4444 3.1437 3.471-72.2587 65.4444z"/><path data-name="Rectangle 113" fill="#a7c6d9" d="M225.549 608.08l95.6018-86.5862 3.1437 3.471-95.6018 86.5862z"/><path data-name="Rectangle 114" fill="#a7c6d9" d="M235.224 618.762l89.1342-80.7285 3.1437 3.471-89.1342 80.7285z"/><path data-name="Rectangle 115" fill="#a7c6d9" d="M244.899 629.445l95.6018-86.5862 3.1437 3.471-95.6018 86.5862z"/><path data-name="Rectangle 116" fill="#a7c6d9" d="M254.574 640.127l89.1342-80.7285 3.1437 3.471-89.1342 80.7285z"/><path data-name="Rectangle 117" fill="#a7c6d9" d="M264.25 650.81l95.6018-86.5862 3.1437 3.471-95.6018 86.5862z"/></g></g></svg>