<?xml version="1.0" encoding="utf-8"?>
<!-- Generator: Adobe Illustrator 22.0.1, SVG Export Plug-In . SVG Version: 6.00 Build 0)  -->
<svg version="1.1" id="Layer_1" xmlns="http://www.w3.org/2000/svg" xmlns:xlink="http://www.w3.org/1999/xlink" x="0px" y="0px"
	 viewBox="0 0 129 129" style="enable-background:new 0 0 129 129;" xml:space="preserve">
<style type="text/css">
	.st0{fill:#FD2E3D;}
</style>
<g transform="translate(-1346 -185)">
	<g transform="translate(1346 185)">
		<path class="st0" d="M118.3,0H10.8C4.8,0,0,4.8,0,10.7v77.4c0,5.9,4.8,10.7,10.8,10.8h38.7v12.9h-4.3c-8.3,0-15,6.7-15.1,15v2.2
			h68.8v-2.2c0-8.3-6.7-15-15.1-15h-4.3V98.9h38.7c5.9,0,10.7-4.8,10.8-10.8V10.7C129,4.8,124.2,0,118.3,0z M83.8,116.1
			c5.1,0,9.5,3.6,10.5,8.6H34.6c1-5,5.4-8.6,10.5-8.6H83.8z M75.3,111.8H53.8V98.9h21.5V111.8z M124.7,88.1c0,3.6-2.9,6.4-6.4,6.4
			H10.8c-3.6,0-6.4-2.9-6.4-6.4V10.7c0-3.6,2.9-6.4,6.4-6.4l0,0h107.5c3.6,0,6.4,2.9,6.4,6.4V88.1z"/>
		<path class="st0" d="M120.4,8.6H8.6v73.1h111.8V8.6z M116.1,77.4H12.9V12.9h103.2V77.4z"/>
		<path class="st0" d="M70.9,88.2c0-3.6-2.9-6.4-6.5-6.4s-6.4,2.9-6.4,6.5c0,3.6,2.9,6.4,6.4,6.4C68.1,94.6,70.9,91.7,70.9,88.2
			L70.9,88.2z M64.5,90.3c-1.2,0-2.2-1-2.2-2.1s1-2.1,2.1-2.1c1.2,0,2.2,1,2.2,2.1l0,0C66.6,89.3,65.7,90.3,64.5,90.3z"/>
		<path class="st0" d="M17.4,43l12.1-1.1c0.1,0,0.1,0,0.2,0c1.2-0.2,2.3,0.5,2.5,1.7c0,0.1,0,0.3,0,0.4v23.5c0,1-0.6,1.8-1.5,2.1
			L17,71c-1.2,0.1-2,1.2-1.9,2.4c0.1,1.1,1,1.9,2.1,1.9c0.1,0,0.2,0,0.2,0l13.9-1.5c3-0.6,5.2-3.3,5.2-6.3v-2.5l29.2,5.5
			c0.6,0.1,1.3,0.2,1.9,0.2c1.5,0,3-0.3,4.4-1l28.5-12c2.8-0.8,4.6-3.3,4.6-6.2c0-0.6-0.1-1.1-0.2-1.7c-1-3.4-4.5-5.5-8-4.5
			c0,0-0.1,0-0.1,0l-18.2,6.3c-1.1,0.4-1.7,1.6-1.3,2.7s1.6,1.7,2.7,1.3l18-6.3c0.5-0.1,1.1-0.1,1.6,0.2c0.5,0.3,0.8,0.7,1,1.2
			c0.1,0.2,0.1,0.4,0.1,0.6c0,1-0.7,1.8-1.6,2.1c-0.1,0-0.2,0.1-0.3,0.1L70.4,65.7c-1.2,0.5-2.5,0.7-3.8,0.5l-30-5.7V48.7L47.2,44
			c1.5-0.5,3.1-0.5,4.5,0l18,6.7c1.2,0.3,1.9,1.4,1.6,2.6c-0.3,1.2-1.4,1.9-2.6,1.6l-14.1-4.8c-1.1-0.4-2.3,0.2-2.7,1.3
			c-0.4,1.1,0.2,2.3,1.3,2.7l0,0l14.2,4.8c3.5,0.9,7-1.2,7.8-4.7c0.8-3.3-1.1-6.7-4.3-7.7l-17.8-6.6C50.7,39,48,39.1,45.6,40l-9,4
			v-0.1c0-3.6-2.9-6.5-6.5-6.4c-0.4,0-0.8,0-1.1,0.1l-12,1.1c-1.2,0.1-2.1,1.2-2,2.4C15.2,42.2,16.2,43.1,17.4,43L17.4,43z"/>
		<path class="st0" d="M28,49.4c1.2,0,2.2-1,2.2-2.2c0-1.2-1-2.1-2.2-2.1h-2.2c-1.2,0-2.2,1-2.2,2.1c0,1.2,1,2.2,2.2,2.2H28z"/>
		<path class="st0" d="M90.9,15.9c-0.9-0.7-2.2-0.6-2.9,0.2c0,0,0,0,0,0L68.8,38.7c-0.7,0.9-0.6,2.2,0.2,2.9
			c0.9,0.7,2.2,0.6,2.9-0.2l0,0l19.3-22.5C91.9,18,91.8,16.7,90.9,15.9C90.9,15.9,90.9,15.9,90.9,15.9z"/>
		<path class="st0" d="M76.1,21.6c0-3.4-2.8-6.1-6.1-6.1c-3.4,0-6.1,2.8-6.1,6.1s2.8,6.1,6.1,6.1C73.3,27.7,76.1,25,76.1,21.6z
			 M67.9,21.6c0-1.1,0.9-2,2-2c1.1,0,2,0.9,2,2c0,1.1-0.9,2-2,2C68.8,23.6,67.9,22.7,67.9,21.6C67.9,21.6,67.9,21.6,67.9,21.6
			L67.9,21.6z"/>
		<path class="st0" d="M90.2,29.8c-3.4,0-6.1,2.8-6.1,6.1s2.8,6.1,6.1,6.1c3.4,0,6.1-2.8,6.1-6.1c0,0,0,0,0,0
			C96.4,32.5,93.6,29.8,90.2,29.8z M90.2,38c-1.1,0-2-0.9-2-2s0.9-2,2-2s2,0.9,2,2C92.3,37.1,91.4,38,90.2,38z"/>
	</g>
</g>
</svg>
