<svg xmlns="http://www.w3.org/2000/svg" width="93.764" height="83.997" viewBox="0 0 93.764 83.997"><g transform="translate(-949 -220.694)"><g transform="translate(949 220.694)"><path d="M1042.764,242.359v5.86a2.237,2.237,0,0,0-.141.428,7.624,7.624,0,0,1-5.8,6.859c-.615.185-.63.512-.629,1,.007,3.508,0,7.016,0,10.524q0,12.9-.016,25.807c0,.724.127,1.052.934.987a8.132,8.132,0,0,1,2.186.085,4.581,4.581,0,0,1,3.472,3.393v5.677a2.745,2.745,0,0,1-2.9,1.715c-11.565-.031-23.13-.015-34.694-.015q-26.639,0-53.278.015a2.747,2.747,0,0,1-2.9-1.715V297.3a4.674,4.674,0,0,1,3.38-3.384,8.01,8.01,0,0,1,2.278-.1c.688.037.938-.131.936-.891q-.039-18.216,0-36.431c0-.66-.225-.875-.826-1.034a7.6,7.6,0,0,1-4.238-3A9.791,9.791,0,0,1,949,248.219v-5.86c1.943-3.825,3.877-7.655,5.836-11.471a3.91,3.91,0,0,0,.448-1.922c-.03-1.708-.042-3.419,0-5.127a2.93,2.93,0,0,1,3.168-3.133c1.068-.019,2.136-.008,3.2,0,1.037,0,2.076-.013,3.111.033a1.325,1.325,0,0,1,.187,2.619,4.8,4.8,0,0,1-1,.091c-1.678.009-3.358.04-5.035-.012-.748-.023-.947.244-.916.948.05,1.127.013,2.258.013,3.387,0,1.166,0,1.167,1.2,1.167h67.933c1.953,0,3.906-.016,5.859.01.557.007.754-.174.737-.735-.036-1.159-.016-2.319-.017-3.479,0-1.28,0-1.281-1.289-1.281q-22.843,0-45.685.006-7.6,0-15.2-.009c-1.22,0-1.875-.512-1.862-1.407.012-.856.646-1.338,1.814-1.343,1.648-.008,3.3,0,4.944,0h56.214c2.84,0,3.822,1,3.819,3.871q0,2.381,0,4.761a1.9,1.9,0,0,0,.119.9Q1039.688,236.295,1042.764,242.359ZM1028.371,252.4c-.168.182-.253.267-.33.358a7.78,7.78,0,0,1-12.309.069c-.478-.562-.588-.153-.834.126a7.89,7.89,0,0,1-12.493-.523,8.028,8.028,0,0,1-13.014.049,1.04,1.04,0,0,0-.2.165,7.843,7.843,0,0,1-12.428.16c-.389-.506-.531-.187-.775.1a7.829,7.829,0,0,1-9.683,2.005,9,9,0,0,1-2.9-2.521,7.44,7.44,0,0,1-4.134,2.98c-.785.191-.965.557-.963,1.316q.035,17.9.016,35.8c0,1.311,0,1.242,1.3,1.333.947.066,1.146-.242,1.143-1.153-.037-9.552-.027-19.1-.027-28.657,0-2.4.918-3.318,3.323-3.318q7.187,0,14.374.005c2.435,0,3.325.883,3.326,3.3q0,14.374-.011,28.749c0,.8.161,1.072,1.033,1.071q24.9-.043,49.807,0c.691,0,.862-.179.86-.863-.025-6.775-.013-13.55-.012-20.326q0-8.1,0-16.205c0-.348.111-.747-.42-.868A7.856,7.856,0,0,1,1028.371,252.4Zm-32.583,49.52H1026q6.592,0,13.184-.017c.3,0,.815.227.821-.4.01-1.189.053-2.384-.039-3.567a1.462,1.462,0,0,0-1.469-1.375c-.333-.031-.671-.017-1.006-.017H975.508q-10.849,0-21.7,0c-1.5,0-2.049.554-2.062,2.034-.006.7-.01,1.4,0,2.106.021,1.386-.212,1.23,1.191,1.23Q974.364,301.929,995.787,301.925Zm-16.77-23.31h-.006c0-4.757-.017-9.514.018-14.27.005-.745-.23-.907-.929-.9q-6.815.04-13.63-.007c-.726-.005-1,.147-.993.943q.041,14.271,0,28.541c0,.76.26.894.943.891,4.574-.024,9.148-.029,13.722.011.76.007.894-.251.89-.935C979,288.129,979.017,283.372,979.017,278.615Zm16.848-37.346v0c1.4,0,2.8-.034,4.2.015.664.023.82-.2.77-.829q-.321-4.053-.562-8.112c-.032-.527-.238-.666-.728-.662-2.468.017-4.935.014-7.4.007-.391,0-.617.088-.646.544q-.268,4.194-.583,8.385c-.041.538.141.677.653.667C993,241.251,994.433,241.269,995.865,241.269Zm12.759,0c1.464,0,2.927-.009,4.391.005.443,0,.645-.03.516-.6q-.941-4.141-1.778-8.306c-.119-.585-.406-.694-.936-.689-2.317.021-4.636.038-6.952-.017-.772-.018-.905.257-.849.943q.327,4.01.569,8.027c.033.538.258.651.739.643C1005.756,241.254,1007.19,241.269,1008.623,241.269Zm-30.51,0c3.219,0,6.356,0,9.494.005.389,0,.535-.152.56-.531q.279-4.2.585-8.395c.032-.437-.038-.675-.563-.671-2.5.02-5,.014-7.5,0a.527.527,0,0,0-.614.494C979.436,235.179,978.781,238.179,978.113,241.268Zm43.253,0v.005c1.431,0,2.863-.012,4.293.007.507.007.721-.048.5-.651-1.031-2.794-2.02-5.6-3.016-8.411a.666.666,0,0,0-.715-.538q-3.7.026-7.4,0c-.512,0-.6.157-.494.645q.937,4.183,1.806,8.381c.1.475.31.572.733.567C1018.5,241.254,1019.934,241.264,1021.365,241.264Zm-51.018.005c1.434,0,2.868-.017,4.3.009.475.008.683-.119.786-.62.568-2.775,1.172-5.543,1.782-8.31.1-.442.083-.67-.474-.665q-3.707.028-7.414-.007a.666.666,0,0,0-.709.549c-1,2.812-2,5.625-3.022,8.428-.19.519-.06.631.447.624C967.479,241.255,968.913,241.269,970.347,241.269Zm-17.655,0c3.232,0,6.281-.007,9.33.008.393,0,.517-.2.628-.511,1-2.811,2-5.624,3.03-8.425.206-.559.055-.673-.485-.665a33.552,33.552,0,0,1-4.937-.028c-2.163-.29-3.267.529-4.06,2.512C955.24,236.549,953.93,238.8,952.693,241.268Zm86.386,0c-1.6-3.184-3.115-6.2-4.623-9.221a.636.636,0,0,0-.661-.366c-2.441.008-4.882.015-7.323,0-.475,0-.567.128-.4.584q1.548,4.249,3.049,8.515a.6.6,0,0,0,.642.49C1032.812,241.263,1035.86,241.269,1039.078,241.269Zm-30.286,2.754v-.006c-1.463,0-2.927.011-4.39-.007-.433-.005-.677.062-.661.586.037,1.219-.029,2.441.038,3.657a5.09,5.09,0,0,0,10.105.495,35.307,35.307,0,0,0,.109-4.2c.023-.491-.246-.533-.628-.531C1011.842,244.029,1010.317,244.023,1008.793,244.023Zm-51.805-.006c-1.493,0-2.987.014-4.479-.008-.477-.007-.74.083-.713.643.063,1.307-.068,2.618.1,3.925A5.078,5.078,0,0,0,962,248.25c.055-1.186.008-2.377.045-3.564.016-.511-.144-.691-.671-.679C959.913,244.038,958.45,244.017,956.988,244.017Zm77.855,0v.006c-1.493,0-2.986.015-4.478-.009-.469-.008-.651.132-.638.618.032,1.248-.027,2.5.041,3.746a5.081,5.081,0,0,0,10.1.263c.174-1.337.048-2.678.1-4.015.02-.49-.185-.622-.646-.616C1037.829,244.03,1036.336,244.017,1034.843,244.017Zm-38.965,0c-1.464,0-2.928.021-4.392-.011-.537-.012-.765.111-.739.7.047,1.065-.013,2.135.021,3.2A5.114,5.114,0,1,0,1001,247.9c.033-1.067-.028-2.136.021-3.2.028-.6-.22-.7-.747-.694C998.807,244.036,997.342,244.018,995.878,244.017Zm-25.889,0v.005q-2.24,0-4.479,0c-.374,0-.746-.048-.722.529.057,1.368-.1,2.74.1,4.107a5.085,5.085,0,0,0,10.11-.4c.058-1.186-.011-2.377.04-3.564.026-.6-.227-.7-.749-.691C972.854,244.036,971.421,244.017,969.989,244.017Zm12.958,0c-1.434,0-2.868.03-4.3-.014-.643-.019-.947.1-.894.835.069.971,0,1.951.027,2.927a5.119,5.119,0,1,0,10.231-.079c.01-1.006-.025-2.014.013-3.019.02-.536-.181-.669-.685-.659C985.876,244.035,984.411,244.017,982.947,244.017Zm38.9,0c-1.493,0-2.987.015-4.48-.009-.471-.008-.647.129-.634.617.032,1.188-.02,2.378.031,3.565a5.082,5.082,0,0,0,10.109.439c.181-1.306.043-2.618.113-3.925.032-.6-.227-.707-.751-.7C1024.774,244.035,1023.311,244.017,1021.848,244.017Z" transform="translate(-949 -220.694)"/><path d="M1165.974,466.267q-9.657,0-19.314,0c-2.267,0-3.171-.889-3.173-3.146q-.009-10.389,0-20.778c0-2.29.923-3.189,3.244-3.19q7.643,0,15.286,0c.183,0,.367-.008.549,0,1,.067,1.569.6,1.533,1.446-.035.8-.588,1.289-1.57,1.291-5.065.011-10.13.027-15.195-.014-.874-.007-1.126.218-1.121,1.107q.057,9.794,0,19.588c0,.771.221.956.974.954q18.765-.034,37.529.008c.935,0,1.154-.24,1.147-1.159q-.067-9.7-.007-19.4c.006-.909-.267-1.1-1.127-1.093-4.912.043-9.824.025-14.737.025a5.275,5.275,0,0,1-1-.045,1.239,1.239,0,0,1-1.086-1.179,1.215,1.215,0,0,1,.905-1.4,3.836,3.836,0,0,1,1.082-.121q7.781-.011,15.561,0c2.172,0,3.139.971,3.139,3.121q0,10.343,0,20.687c0,2.425-.877,3.3-3.305,3.3h-19.314Z" transform="translate(-1107.867 -399.142)"/><path d="M1087.665,523.035a11.712,11.712,0,0,1-.008,1.278,1.287,1.287,0,0,1-1.328,1.255,1.248,1.248,0,0,1-1.358-1.211,17.869,17.869,0,0,1,0-2.738,1.248,1.248,0,0,1,1.358-1.211,1.287,1.287,0,0,1,1.326,1.257A12.808,12.808,0,0,1,1087.665,523.035Z" transform="translate(-1060.028 -465.521)"/></g></g></svg>