<?xml version="1.0" encoding="utf-8"?>
<!-- Generator: Adobe Illustrator 22.0.1, SVG Export Plug-In . SVG Version: 6.00 Build 0)  -->
<svg version="1.1" id="Layer_1" xmlns="http://www.w3.org/2000/svg" xmlns:xlink="http://www.w3.org/1999/xlink" x="0px" y="0px"
	 viewBox="0 0 140.9 130.1" style="enable-background:new 0 0 140.9 130.1;" xml:space="preserve">
<style type="text/css">
	.st0{fill:#FD2E3D;}
</style>
<g transform="translate(0 -19.696)">
	<g transform="translate(0 19.696)">
		<g transform="translate(0)">
			<path class="st0" d="M123.5,26.2c-1.1-1-2.9-1-3.9,0.2c-1,1.1-1,2.9,0.2,3.9c9.3,8.6,14.4,24.4,15.5,39.4
				c-4.4-2.5-9.7-2.5-14.1,0c-4.1,2.4-9.4,1-11.8-3.2c0,0,0,0,0,0c-3.9-6.8-12.6-9.1-19.4-5.2c-4.1,2.4-9.4,1-11.8-3.2c0,0,0,0,0,0
				c-2.5-4.3-7.1-7-12.1-7.1C74.4,38.6,86.7,27.5,99,24.7c1.5-0.3,2.4-1.8,2.1-3.3c-0.3-1.5-1.8-2.4-3.3-2.1
				c-6.7,1.7-13,4.8-18.4,9.2C65.5,9.8,42.9-5,24.7,1.6c-11,4-19.1,15.5-22.8,32.2c-3.2,14.5-2.4,31.3,2.1,43.6
				c4,11.2,11.9,20.7,22.2,26.7c2.1,1.2,4.4,2.3,6.7,3.2h0c5.1,2,10.5,3,15.9,3c2.7,0,5.4-0.3,8-0.8c5.8,9.3,14.9,16.1,25.5,19
				c3.6,1,7.3,1.4,11,1.4c20.4,0,39.6-14.8,45.5-36.9C144.2,72.7,139.4,40.9,123.5,26.2L123.5,26.2z M75.1,32L17.4,89.7
				c-3.1-3.7-5.7-8-7.5-12.5l55.9-55.9C69.1,24.6,72.3,28.2,75.1,32z M5.5,53.8L49.6,9.7c4.3,2.2,8.3,4.9,12,8L7.9,71.4
				C6.4,65.6,5.6,59.7,5.5,53.8z M26.6,6.8c5.4-2,11.5-1.5,17.5,0.6L5.7,45.8C6,42.1,6.5,38.5,7.3,35C10.5,20.4,17.5,10.1,26.6,6.8
				L26.6,6.8z M21.2,93.7l33.4-33.4c-1.4,3-2.5,6.2-3.4,9.4c-1.4,5.1-2,10.4-1.7,15.7l-16.2,16.2C28.8,99.7,24.7,97,21.2,93.7
				L21.2,93.7z M39,103.6l11.2-11.2c0.8,4.2,2.1,8.2,3.9,12C49,105.2,43.9,104.9,39,103.6z M93.3,124.6c-3.2,0-6.4-0.4-9.5-1.3
				c-16.7-4.5-27.8-19.9-28.8-37.5c4-1.6,8.6,0,10.7,3.7c3.9,6.8,12.6,9.1,19.4,5.2c4.1-2.4,9.4-1,11.8,3.2
				c3.9,6.8,12.6,9.1,19.4,5.2c3.8-2.2,8.5-1.2,11.2,2.2C119.6,117.2,106.7,124.6,93.3,124.6L93.3,124.6z M130.2,100.3
				c-4.6-4.3-11.4-5.1-16.8-1.9c-4.1,2.4-9.4,1-11.8-3.2C97.7,88.4,89,86.1,82.2,90c-4.1,2.4-9.4,1-11.8-3.2
				c-3.1-5.4-9.4-8.1-15.4-6.7c0.2-3,0.7-6,1.5-8.9c1.3-4.8,3.3-9.4,5.7-13.7c4.1-1.9,8.9-0.4,11.2,3.5c3.9,6.8,12.6,9.1,19.4,5.2
				c0,0,0,0,0,0c4.1-2.4,9.4-1,11.8,3.2c3.9,6.8,12.6,9.1,19.4,5.2c3.9-2.3,9-1.1,11.5,2.7c-0.1,4.9-0.7,9.8-1.9,14.6
				C132.6,94.7,131.6,97.6,130.2,100.3L130.2,100.3z"/>
			<path class="st0" d="M95.9,75.1c-1.5,0-2.8,1.2-2.8,2.8s1.2,2.8,2.8,2.8c1.5,0,2.8-1.2,2.8-2.8c0-0.7-0.3-1.4-0.8-1.9
				C97.3,75.3,96.6,75.1,95.9,75.1z"/>
			<path class="st0" d="M125.3,82.9c-1.5,0-2.8,1.2-2.8,2.8s1.2,2.8,2.8,2.8s2.8-1.2,2.8-2.8c0-0.7-0.3-1.4-0.8-1.9
				C126.7,83.2,126,82.9,125.3,82.9z"/>
			<path class="st0" d="M66.6,67.2c-1.5,0-2.8,1.2-2.8,2.8s1.2,2.8,2.8,2.8c1.5,0,2.8-1.2,2.8-2.8c0-0.7-0.3-1.4-0.8-1.9
				C68,67.5,67.3,67.2,66.6,67.2z"/>
			<path class="st0" d="M110.8,24.9c1.5,0,2.8-1.2,2.8-2.8c0-1.5-1.2-2.8-2.8-2.8c-1.5,0-2.8,1.2-2.8,2.8c0,0.7,0.3,1.4,0.8,1.9
				C109.4,24.6,110.1,24.9,110.8,24.9z"/>
		</g>
	</g>
</g>
</svg>
