<svg xmlns="http://www.w3.org/2000/svg" width="94.437" height="94.556" viewBox="0 0 94.437 94.556"><g transform="translate(-1777 -273.353)"><g transform="translate(1777 273.353)"><path d="M1777,313.866c.226-1.638.357-3.3.693-4.91,3.415-16.416,12.96-27.71,28.787-33.194,12.652-4.384,24.885-2.676,36.366,4.233.941.566,1.192,1.327.738,2.063s-1.241.869-2.169.293a40.353,40.353,0,0,0-61.186,28.211,40.056,40.056,0,0,0,24.688,43.333,2.77,2.77,0,0,0,1.076.18q14.018,0,28.036.006a3.359,3.359,0,0,0,1.424-.289c14.021-6.314,22.481-17.033,24.5-32.27,1.865-14.106-3.028-25.96-13.565-35.49-.418-.378-.86-.731-.886-1.339a1.311,1.311,0,0,1,.736-1.283,1.351,1.351,0,0,1,1.618.236,41.5,41.5,0,0,1,4.907,4.863,42.987,42.987,0,0,1,3.036,52.041.928.928,0,0,0,.137,1.445c1.067,1.018,2.074,2.1,3.073,3.185.381.415.621.521,1.082.059,1.628-1.632,3.3-3.225,4.972-4.807.373-.351.41-.56.03-.935-.918-.908-1.8-1.855-2.675-2.8-.7-.754-.741-1.526-.142-2.114a1.374,1.374,0,0,1,2.107.184q2.212,2.286,4.385,4.61a11.42,11.42,0,0,1,2.672,5.661v2.582a24.9,24.9,0,0,1-.762,2.532c-1.624,3.9-3.246,7.812-4.958,11.678a9.972,9.972,0,0,1-6.443,5.636c-.55.171-1.113.3-1.67.444h-75.07a1.834,1.834,0,0,1-.933-1.57c.022-3.564,0-7.127.014-10.691,0-1.064.521-1.559,1.6-1.569q2.534-.022,5.069,0c1,.008,1.618.55,1.619,1.374s-.624,1.376-1.61,1.39c-1.075.015-2.152.035-3.225-.014-.592-.027-.714.189-.707.735.027,2.273.031,4.547,0,6.82-.009.6.154.782.764.772,2.242-.035,4.486-.049,6.728.006.739.018.843-.249.835-.894-.033-2.734-.015-5.469-.013-8.2,0-1.6.393-1.988,2.021-1.989q1.941,0,3.882,0a2.438,2.438,0,0,0-.762-.651,42.671,42.671,0,0,1-20.108-29.208c-.307-1.592-.476-3.211-.708-4.817Zm64.542,40.095c.255.191.5.105.733.106q9.263.011,18.525.007c.725,0,1.764.143,2.024-.418.239-.517-.621-1.16-1.1-1.663-2.5-2.624-5.032-5.22-7.515-7.861-.491-.523-.712-.493-1.153.047a39.793,39.793,0,0,1-7.863,7.328C1844,352.349,1842.774,353.134,1841.542,353.961Zm6.46,7.03h0c0-1.135-.02-2.271.009-3.405.013-.515-.066-.768-.685-.758-2.331.037-4.664.025-7,.006-.464,0-.644.111-.639.611q.036,3.543,0,7.087c0,.491.157.623.632.619,2.331-.022,4.664-.034,6.995,0,.615.009.7-.238.688-.756C1847.981,363.262,1848,362.126,1848,360.991Zm-11.062.095h0c0-1.166-.021-2.332.009-3.5.013-.518-.072-.767-.687-.758-2.331.035-4.662.023-6.993,0-.47,0-.639.12-.634.616q.037,3.542,0,7.085c0,.5.174.616.639.613q3.5-.027,6.993.006c.507.005.7-.123.685-.663C1836.914,363.356,1836.94,362.221,1836.94,361.086Zm-19.365-.186c0,1.2.026,2.395-.012,3.591-.017.539.176.667.684.662q3.5-.035,7,0c.465,0,.644-.113.639-.613q-.035-3.545,0-7.09c0-.5-.173-.617-.638-.614q-3.5.028-7,0c-.507-.005-.7.121-.685.661C1817.6,358.628,1817.575,359.764,1817.575,360.9Zm-6.914,4.242v0c1.166,0,2.332-.015,3.5.007.445.008.66-.079.655-.6q-.035-3.544,0-7.088c0-.481-.14-.632-.624-.627-2.363.021-4.726.016-7.088,0-.407,0-.609.077-.6.549.02,2.393.023,4.787,0,7.18-.006.532.235.59.665.583C1808.329,365.129,1809.5,365.142,1810.661,365.142Zm-11.047,0v0c1.166,0,2.332-.017,3.5.009.462.01.646-.108.641-.61q-.037-3.542-.005-7.086c0-.5-.169-.62-.636-.617q-3.543.026-7.086,0c-.424,0-.594.109-.59.564q.029,3.589,0,7.178c0,.449.158.576.587.569C1797.221,365.123,1798.418,365.138,1799.614,365.138Zm51.159-4.181c0,1.106.038,2.214-.014,3.319-.031.66.115.915.843.886,1.534-.062,3.073-.02,4.609-.02a9,9,0,0,0,2.271-.335.667.667,0,0,0,.6-.758q-.032-3.319,0-6.638c0-.446-.151-.577-.584-.574q-3.55.024-7.1,0c-.475,0-.646.126-.633.62C1850.8,358.62,1850.774,359.789,1850.773,360.957Zm16.558-18.886c-1.868,1.8-3.669,3.558-5.5,5.284-.374.352-.2.524.051.795a22.206,22.206,0,0,1,3.409,3.973c.29.507.519.241.772.008a7.826,7.826,0,0,0,2.575-5.245A7.2,7.2,0,0,0,1867.331,342.071Zm-2.079,13.944c-.836.237-1.443.435-2.063.579-1.346.312-1.348.3-1.348,1.72v4.167C1863.572,360.643,1864.087,358.286,1865.252,356.015Z" transform="translate(-1777 -273.353)"/><path d="M1938.811,303.966c4.384.111,8.639.762,12.383,3.259,2.241,1.495,3.892,3.4,3.758,6.338a6.743,6.743,0,0,1-.8,2.815,23.674,23.674,0,0,1-11.24,10.882,9.561,9.561,0,0,1-8.468-.088,23.535,23.535,0,0,1-10.958-10.678c-1.673-3.235-1.032-6.034,1.752-8.413a17.948,17.948,0,0,1,8.891-3.734A25.994,25.994,0,0,1,1938.811,303.966Zm.044,8.3a30.276,30.276,0,0,0-12.034,2.558c-.733.323-.9.569-.455,1.291a22.732,22.732,0,0,0,8.435,8.166,7.475,7.475,0,0,0,7.395.285,22.009,22.009,0,0,0,9.138-8.7c.3-.507.195-.686-.325-.923A29.978,29.978,0,0,0,1938.854,312.265Zm13.285.129a7.087,7.087,0,0,0-3.736-3.608,23.317,23.317,0,0,0-15.306-1.393,13.212,13.212,0,0,0-6.255,2.962,3.867,3.867,0,0,0-1.287,1.968A32.583,32.583,0,0,1,1952.14,312.394Z" transform="translate(-1895.719 -298.319)"/><path d="M2036.12,554.259a25.589,25.589,0,0,1,8.612,1.76,16.265,16.265,0,0,1,1.751.81c3.255,1.763,4.394,4.337,3.5,7.925a17.046,17.046,0,0,1-4.474,7.613,26.447,26.447,0,0,1-13.247,7.9,12.088,12.088,0,0,1-5.566.12,5.931,5.931,0,0,1-4.782-4.679,22.81,22.81,0,0,1,.44-11.109,22.044,22.044,0,0,1,1.585-4.211,10.506,10.506,0,0,1,9.057-6.021A15.292,15.292,0,0,1,2036.12,554.259Zm-11.951,17.279c.027.42.112,1.155.111,1.89,0,.8.307.977,1.072.8a29.378,29.378,0,0,0,19.444-14.14c.427-.716.259-.962-.425-1.248a23.262,23.262,0,0,0-10.885-1.74,8.065,8.065,0,0,0-7.388,5.179A24.762,24.762,0,0,0,2024.169,571.538Zm23.1-10.158A32.53,32.53,0,0,1,2025.734,577a7.235,7.235,0,0,0,5.367.676,22.792,22.792,0,0,0,11.2-6.009,16.921,16.921,0,0,0,4.739-6.7A5.206,5.206,0,0,0,2047.271,561.379Z" transform="translate(-1976.332 -502.409)"/><path d="M1857.65,554.15a27.462,27.462,0,0,1,4.169.374,9.871,9.871,0,0,1,7.248,5.147,23.458,23.458,0,0,1,2.567,15.239c-.641,3.942-3.621,5.986-7.843,5.675-5.28-.389-9.671-2.778-13.631-6.089a21.092,21.092,0,0,1-6.221-8.1,10.526,10.526,0,0,1-.782-3.018,6.033,6.033,0,0,1,2.927-6.114,20.975,20.975,0,0,1,8.036-2.755C1855.391,554.305,1856.684,554.244,1857.65,554.15Zm11.566,17.214a21.862,21.862,0,0,0-2.7-10.563,6.838,6.838,0,0,0-4.593-3.4,21.433,21.433,0,0,0-13.206,1.533c-.53.225-.472.493-.231.91a30.263,30.263,0,0,0,4.13,5.626,29.438,29.438,0,0,0,15.462,8.718c.743.163,1.009-.068,1.024-.788C1869.116,572.666,1869.182,571.932,1869.216,571.364Zm-23.092-9.955a3.191,3.191,0,0,0-.179,1.964,9.742,9.742,0,0,0,1.127,3.194,23.076,23.076,0,0,0,9.1,8.767,17.214,17.214,0,0,0,7.723,2.486,5.362,5.362,0,0,0,3.621-.856C1856.169,573.338,1853.217,571.189,1846.123,561.409Z" transform="translate(-1830.923 -502.358)"/><path d="M2101.469,396.148a16.089,16.089,0,0,1-.556,4.28c-1.262,4.658-4.188,6.566-8.877,5.59a24.716,24.716,0,0,1-11.658-5.973,10.639,10.639,0,0,1-3.358-11.1,24.354,24.354,0,0,1,6.275-11.692c2.8-2.86,5.775-3.116,9.12-.9a17.531,17.531,0,0,1,5.42,6.17A27.876,27.876,0,0,1,2101.469,396.148Zm-7.8,3.247a29.463,29.463,0,0,0-7.6-19.736c-.547-.617-.83-.549-1.319.021a22.014,22.014,0,0,0-5.217,10.9,6.888,6.888,0,0,0,1.2,5.692,20.65,20.65,0,0,0,12.059,7.074c.514.116.653-.091.683-.548A32.8,32.8,0,0,0,2093.672,399.394Zm-5.64-21.721a32.607,32.607,0,0,1,8.245,25.292,5.709,5.709,0,0,0,1.993-3.334,22.993,22.993,0,0,0-6.6-20.387A5.868,5.868,0,0,0,2088.032,377.673Z" transform="translate(-2021.37 -356.15)"/><path d="M1809.615,394.791a25.992,25.992,0,0,1,7.137-16.755,10.458,10.458,0,0,1,3.8-2.551,5.9,5.9,0,0,1,6.082.831,19.392,19.392,0,0,1,5.091,6.468,21.217,21.217,0,0,1,2.712,8.911,9.691,9.691,0,0,1-2.4,7.05,18.378,18.378,0,0,1-3.246,2.99,1.383,1.383,0,1,1-1.643-2.207,22.977,22.977,0,0,0,2.471-2.208,7.293,7.293,0,0,0,1.966-6.539,22.071,22.071,0,0,0-5.3-11.066c-.451-.518-.712-.546-1.192,0a29.175,29.175,0,0,0-7.464,23.129c.051.511.195.693.74.591a20.4,20.4,0,0,0,3.528-1.03,4.6,4.6,0,0,1,.959-.306,1.263,1.263,0,0,1,1.461.853,1.167,1.167,0,0,1-.521,1.6c-2.671,1.236-5.44,2.184-8.442,1.69a6,6,0,0,1-4.374-3.618C1809.911,400.512,1809.621,398.239,1809.615,394.791Zm13.466-17.025a5.269,5.269,0,0,0-2.453.736,10.607,10.607,0,0,0-2.843,2.457,23.862,23.862,0,0,0-5.143,11.837,15.82,15.82,0,0,0,.375,7.563,4.638,4.638,0,0,0,1.812,2.655A32.48,32.48,0,0,1,1823.081,377.765Z" transform="translate(-1803.599 -356.253)"/><path d="M1992.157,485.009a4.148,4.148,0,1,1-4.149,4.167A4.17,4.17,0,0,1,1992.157,485.009Zm1.374,4.133a1.377,1.377,0,1,0-1.409,1.392A1.4,1.4,0,0,0,1993.531,489.142Z" transform="translate(-1949.088 -445.97)"/></g></g></svg>