<?xml version="1.0" encoding="utf-8"?>
<!-- Generator: Adobe Illustrator 22.0.1, SVG Export Plug-In . SVG Version: 6.00 Build 0)  -->
<svg version="1.1" id="Layer_1" xmlns="http://www.w3.org/2000/svg" xmlns:xlink="http://www.w3.org/1999/xlink" x="0px" y="0px"
	 viewBox="0 0 119.4 130" style="enable-background:new 0 0 119.4 130;" xml:space="preserve">
<style type="text/css">
	.st0{fill:#FD2E3D;}
</style>
<g transform="translate(-918.12 -41)">
	<g transform="translate(918.12 41)">
		<path class="st0" d="M23.1,130c-1.1-0.4-2.2-0.8-3.3-1.3c-6.3-2.9-9.1-10.5-6.1-16.8c0.7-1.5,1.7-2.8,2.8-3.9
			c1.5-1.4,3.1-2.7,4.7-4.1c0.5-0.4,0.6-0.7,0.1-1.2c-2.3-2.3-4.1-5-5.3-8c-0.2-0.6-0.8-1-1.4-1.1c-7.9-2.6-12.8-8-14.3-16.2
			C-1.9,65,8.3,53.5,21.2,54c8.8,0.3,16.3,6.3,18.7,14.8c0.1,0.3,0.2,0.6,0.3,1c0.2,0.1,0.4,0,0.6-0.2c3.4-2.7,7.7-4,12.1-3.8
			c3.5,0.1,6.9,0,10.4,0c0.9,0,1.2-0.2,1.3-1.2c0.3-2.7-0.6-4-3-5.4C52.4,54,47.4,46.1,47.4,35.4c0-1,0.1-2-1-2.6
			c-0.7-0.4-0.7-1.4-0.7-2.2c0.2-14,9.7-26.1,23.3-29.6c1.6-0.4,3.3-0.7,4.9-1h5.6c1,0.2,2,0.4,3,0.5c12.8,2.2,23.6,13.5,25.1,26.4
			c0.2,0.8-0.1,1.6-0.8,2.2c-0.5,0.4-0.8,1.1-0.7,1.7c0.2,3.1,0,6.2-0.3,9.2c-1.3,8.3-6.5,15.5-14,19.3c-2.5,1.3-3.3,2.7-3,5.3
			c0.1,1,0.4,1.2,1.3,1.2c4.3,0,8.6,0,12.9,0c1.2,0,2.5,0.1,3.7,0.3c6.9,1.5,12.7,8.7,12.7,16c0.1,11.8,0,23.5,0,35.3
			c0,5.5-3.6,10.3-8.8,11.9c-0.8,0.2-1.5,0.4-2.3,0.6L23.1,130z M59,71c0.7,0.5,1.1,0.8,1.5,1c6.8,4.5,13.7,9.1,20.5,13.6
			c1.2,0.8,2.4,1.7,3.5,2.7c4.2,4,6.7,9.5,7.1,15.3c0.1,1.7,1.3,0.8,2.1,1c0.9,0.2,0.9-0.4,0.9-1.1c0-3.4,0-6.8,0-10.2
			c0-1.9,0.9-3,2.5-3s2.5,1.1,2.5,3c0,4.3,0,8.6,0,12.9c0,2.4-0.8,3.2-3.3,3.3c-4.5,0-9,0.1-13.5,0c-1,0-1.3,0.3-1.3,1.3
			c-0.1,4.3-0.2,8.6-0.3,12.9c0,0.9,0.2,1.1,1.1,1.1c6.1,0,12.2,0,18.3,0c7.4,0.2,13.5-5.7,13.7-13.1c0-0.2,0-0.5,0-0.7
			c0-9.2,0-18.4,0-27.6c0-1-0.1-2-0.3-3c-0.9-5-6.4-9.7-11.4-9.7c-3.9,0-7.8,0.1-11.7,0c-2.2-0.1-4.2,0.2-5.5,2.2
			c-0.2,0.3-0.5,0.5-0.7,0.7c-3,2.5-6.4,4-10.4,3c-3-0.9-5.6-2.6-7.7-5c-0.3-0.4-0.6-0.9-1.2-0.9C63.4,71,61.4,71,59,71L59,71z
			 M101.1,34.1c0-1.9-0.1-3.2,0-4.5c0.1-0.7-0.3-1.4-1-1.6c-4-1.6-7.5-4.1-10.5-7.2c-0.6-0.7-1-0.4-1.6-0.1c-4.1,2.4-8.4,4.4-12.8,6
			c-7.1,2.6-14.3,4.6-21.7,6c-0.6,0.1-1,0.2-1.1,0.9c-0.2,5.6,0.9,10.8,4.5,15.2c6.5,8,15.1,10.8,25,8.9c8.9-1.7,15.3-6.9,18.3-15.7
			C101,39.5,101.3,36.8,101.1,34.1L101.1,34.1z M35.7,74.4C35.7,66,28.9,59.1,20.4,59C12,59,5.1,65.8,5.1,74.2
			c0,8.4,6.7,15.3,15.1,15.4C28.6,89.7,35.6,82.9,35.7,74.4L35.7,74.4z M56.9,120.6c-0.1-0.5-0.1-0.6-0.2-0.8
			c-1.4-6.8,3-13.5,9.8-15c0.9-0.2,1.9-0.3,2.8-0.3c5.4,0,10.7,0,16.1,0c0.9,0,1.2-0.2,1.1-1.1c-0.7-5.6-3.1-10.1-7.8-13.3
			c-7.1-4.7-14.2-9.5-21.3-14.2c-1.8-1.1-3.4-2.5-4.7-4.2c-0.5-0.7-1.3-1-2.1-1c-4.5,0-9.4,3.9-10.5,8.3c-2,8.3-9.1,14.4-17.6,15.3
			c-1,0.1-1.1,0.3-0.6,1.1c0.8,1.3,1.8,2.5,2.8,3.6c0.7,0.9,1.3,0.8,2.1,0.1c6.9-5.9,13.8-11.9,20.8-17.7c5.3-4.3,13-3.7,17.5,1.5
			c4.5,5.2,4.1,13.1-1.1,17.7c-2.5,2.3-5.2,4.5-7.8,6.7c-2.8,2.4-5.5,4.7-8.4,7.2L56.9,120.6z M101.6,23.2c-0.3-0.7-0.4-1.2-0.6-1.7
			C96.2,9.4,83.2,2.7,70.6,5.7C60.4,8.2,52.4,16.9,51,26.8c-0.1,1.1,0.1,1.3,1.1,1.1c2.6-0.6,5.2-1.1,7.8-1.8
			c9.9-2.5,19.4-5.7,28.1-11.3c1.5-1,2.7-0.7,3.8,0.9C94.4,19,97.8,21.6,101.6,23.2z M24.8,125c2,0.1,4-0.6,5.5-1.9
			c6.8-5.8,13.6-11.6,20.4-17.4c0.6-0.5,0.6-0.8,0.1-1.4c-3-3.3-6-6.6-8.9-9.9c-0.7-0.8-1-0.6-1.7,0c-5,4.3-10,8.5-14.9,12.8
			c-1.8,1.5-3.7,3-5.4,4.7c-2.3,2.1-3,5.4-1.8,8.3C19.1,123,21.8,124.9,24.8,125z M55.6,83.8c-1.9,0-3.7,0.6-5.1,1.9
			c-1.6,1.4-3.2,2.8-4.8,4.1c-0.5,0.4-0.6,0.6-0.2,1.2c3.1,3.4,6.2,6.8,9.3,10.3c0.3,0.4,0.6,0.5,1,0.1c1.7-1.5,3.6-3,5.2-4.6
			c2.2-2.2,2.8-5.5,1.5-8.3C61.4,85.6,58.6,83.7,55.6,83.8L55.6,83.8z M76.1,118.1c0.3-3.1,0.3-5.4,0.3-7.6c0-0.5,0-0.9-0.7-0.9
			c-2.4,0-4.8-0.1-7.2,0.1c-4.1,0.3-7.2,3.8-7,7.9c0.2,4.1,3.5,7.3,7.6,7.4c2,0,4,0,6,0c0.9,0,1.2-0.3,1.1-1.2
			C76.1,121.6,76.1,119.4,76.1,118.1z M83.8,65.3v-1.1c0-1.7,0-1.6-1.6-1.4c-3.2,0.5-6.4,0.6-9.6,0.2c-1-0.1-2.3-0.9-2.8-0.3
			c-0.5,0.6-0.2,1.9-0.2,2.9c0,0.8-0.2,1.6,0.4,2.3c1,1.1,2.1,2.1,3.3,2.9c2.1,1.3,4.3,1.7,6.4,0.2S84.3,68.5,83.8,65.3L83.8,65.3z
			 M53.9,124.9l0.1-0.2l-9.6-6.3c-0.3-0.2-0.5-0.4-0.9-0.1c-2.5,2.1-5,4.3-7.7,6.6H53.9z"/>
		<path class="st0" d="M68.6,52.7c-1.4,0.1-2.6-0.9-2.6-2.3c-0.1-1.2,0.7-2.2,1.8-2.5c0.7-0.2,1.5-0.3,2.2-0.6
			c1.8-0.5,3.4-1.4,4.8-2.7c0.8-1.1,2.4-1.2,3.5-0.4c0.1,0.1,0.2,0.2,0.3,0.3c1.7,1.6,3.7,2.7,6,3.1c2.2,0.5,3.2,1.6,2.8,3.1
			c-0.4,1.6-1.7,2.2-4,1.7c-2.1-0.4-4.1-1.3-5.9-2.5c-0.4-0.4-1.1-0.4-1.6,0C73.7,51.4,71.2,52.3,68.6,52.7z"/>
		<path class="st0" d="M86.6,37.3c0-0.7,0-1.4,0-2c0-1.3,1.1-2.4,2.4-2.5c1.3-0.1,2.4,0.9,2.5,2.2c0.1,1.6,0.1,3.2,0,4.8
			C91.4,41,90.3,42,89,41.9c-1.3-0.1-2.4-1.1-2.4-2.5C86.5,38.7,86.6,38,86.6,37.3L86.6,37.3z"/>
		<path class="st0" d="M61.9,37.3c0-0.8-0.1-1.5,0-2.3c0.1-1.2,1.1-2.2,2.3-2.2c1.2-0.1,2.3,0.8,2.5,2c0.2,1.7,0.2,3.4,0,5.1
			c-0.2,1.2-1.3,2.1-2.5,2.1c-1.2,0-2.3-1-2.4-2.2C61.9,38.9,61.9,38.1,61.9,37.3L61.9,37.3z"/>
		<path class="st0" d="M18.2,67.1c-0.1-1.3,1-2.5,2.3-2.5c0.4,0,0.8,0.1,1.2,0.2c1.3,0.7,2.5,1.5,3.7,2.4c1,0.9,1.1,2.4,0.2,3.5
			c-0.7,0.8-1.8,1.1-2.8,0.6c-1.4-0.7-2.7-1.6-3.9-2.6C18.5,68.4,18.2,67.8,18.2,67.1z"/>
		<path class="st0" d="M19.4,79.5c0.1,1.3-1,2.4-2.3,2.5c-0.4,0-0.7,0-1-0.2c-1.5-0.7-2.8-1.6-4-2.6c-0.9-0.8-1-2.2-0.3-3.1
			c0.6-1,1.9-1.4,3-0.8c1.3,0.8,2.6,1.6,3.8,2.5C19.1,78.1,19.4,78.8,19.4,79.5z"/>
	</g>
</g>
</svg>
