<svg xmlns="http://www.w3.org/2000/svg" width="92.682" height="92.682" viewBox="0 0 92.682 92.682"><g transform="translate(-16 -16)"><path d="M108.234,35.062,89.667,16.448A1.559,1.559,0,0,0,88.586,16H42.26a4.648,4.648,0,0,0-4.634,4.634v1.622a20.05,20.05,0,0,0-9.114,37H20.634A1.545,1.545,0,0,0,19.089,60.8V68.52H17.545A1.545,1.545,0,0,0,16,70.065v9.268a1.545,1.545,0,0,0,1.545,1.545h1.545v6.179H17.545A1.545,1.545,0,0,0,16,88.6v9.268a1.545,1.545,0,0,0,1.545,1.545h1.545v7.724a1.545,1.545,0,0,0,1.545,1.545H57.707a1.545,1.545,0,0,0,1.545-1.545V102.5h44.8a4.648,4.648,0,0,0,4.634-4.634V36.158A1.53,1.53,0,0,0,108.234,35.062ZM90.146,21.3l13.192,13.238H91.691a1.545,1.545,0,0,1-1.545-1.545ZM22.179,42.26A16.992,16.992,0,1,1,39.171,59.252,16.992,16.992,0,0,1,22.179,42.26ZM53.073,71.609v6.179H46.894V71.609ZM49.984,68.52V62.341h6.179V68.52Zm6.179,12.358v6.179H49.984V80.878ZM46.894,68.52H40.715V62.341h6.179Zm-9.268,3.089H43.8v6.179H37.626ZM31.447,68.52V62.341h6.179V68.52Zm9.268,12.358h6.179v6.179H40.715Zm-6.179-9.268v6.179H28.358V71.609Zm3.089,9.268v6.179H31.447V80.878ZM22.179,62.341h6.179V68.52H22.179Zm-3.089,9.268h6.179v6.179H19.089Zm9.268,9.268v6.179H22.179V80.878ZM19.089,96.325V90.146h6.179v6.179Zm9.268,9.268H22.179V99.414h6.179Zm0-15.447h6.179v6.179H28.358Zm9.268,15.447H31.447V99.414h6.179Zm0-15.447H43.8v6.179H37.626Zm9.268,15.447H40.715V99.414h6.179Zm0-15.447h6.179v6.179H46.894Zm9.268,15.447H49.984V99.414h6.179Zm49.431-7.724a1.545,1.545,0,0,1-1.545,1.545h-44.8V97.869a1.545,1.545,0,0,0-1.545-1.545H56.162V90.146h1.545A1.545,1.545,0,0,0,59.252,88.6V79.333a1.545,1.545,0,0,0-1.545-1.545H56.162V71.609h1.545a1.545,1.545,0,0,0,1.545-1.545V60.8a1.545,1.545,0,0,0-1.545-1.545H49.829a20.018,20.018,0,0,0,3.8-30.894h5.623V25.268H53.073V27.8a20.009,20.009,0,0,0-12.358-5.545V20.634a1.545,1.545,0,0,1,1.545-1.545h44.8v13.9a4.648,4.648,0,0,0,4.634,4.634h13.9Z"/><path d="M256,64h21.626v3.089H256Z" transform="translate(-193.659 -38.732)"/><path d="M256,96h21.626v3.089H256Z" transform="translate(-193.659 -64.553)"/><path d="M304,144h6.179v3.089H304Z" transform="translate(-232.391 -103.285)"/><path d="M352,144h21.626v3.089H352Z" transform="translate(-271.122 -103.285)"/><path d="M304,176h6.179v3.089H304Z" transform="translate(-232.391 -129.106)"/><path d="M352,176h21.626v3.089H352Z" transform="translate(-271.122 -129.106)"/><path d="M110.179,86.179a3.089,3.089,0,0,1,3.089,3.089h3.089a6.179,6.179,0,0,0-4.634-5.959V80h-3.089v3.309a6.166,6.166,0,0,0,1.545,12.138,3.089,3.089,0,1,1-3.089,3.089H104a6.179,6.179,0,0,0,4.634,5.959V107.8h3.089V104.5a6.166,6.166,0,0,0-1.545-12.138,3.089,3.089,0,1,1,0-6.179Z" transform="translate(-71.008 -51.642)"/><path d="M341.9,281.456l-2.184,2.184,4.37,4.37a1.545,1.545,0,0,0,2.184,0L355,279.272l-2.184-2.184-7.646,7.646Z" transform="translate(-261.207 -210.675)"/><path d="M317.982,230.318l-13.9-6.179a1.512,1.512,0,0,0-1.267,0l-13.9,6.179a1.525,1.525,0,0,0-.911,1.406v9.268a11.74,11.74,0,0,0,3.615,8.511l10.72,11.091a1.531,1.531,0,0,0,2.164.06q.031-.029.06-.06l10.72-11.091a11.714,11.714,0,0,0,3.615-8.511v-9.268a1.525,1.525,0,0,0-.911-1.406ZM315.8,240.992a8.735,8.735,0,0,1-2.734,6.349l-9.624,9.963-9.623-9.963-.015-.015a8.72,8.72,0,0,1-2.719-6.333v-8.264l12.358-5.5,12.358,5.5Z" transform="translate(-219.48 -167.838)"/></g></svg>