<svg xmlns="http://www.w3.org/2000/svg" width="97.797" height="97.749" viewBox="0 0 97.797 97.749"><g transform="translate(-688 -75.251)"><g transform="translate(688 75.251)"><path d="M736.707,173h-.764a1.923,1.923,0,0,1-.89-1.851c.02-2.955.009-5.909,0-8.864a1.622,1.622,0,0,0-.112-.966c-.275.025-.286.194-.314.346a30.932,30.932,0,0,1-4.029,10.113A3.144,3.144,0,0,1,729.449,173h-.573c-1.059-.784-1.159-1.17-.477-2.309a30.757,30.757,0,0,0,3.6-8.478c.1-.393.43-.864-.032-1.22a1.369,1.369,0,0,0-1.569-.15c-2.214,1.039-4.471,1.987-6.707,2.981a1.8,1.8,0,0,1-2.05-.243,2,2,0,0,1-.7-2.056,5.9,5.9,0,0,1,.214-.83,13.761,13.761,0,0,0-.164-10.715.777.777,0,0,1-.031-.09c-.631-2.192-.634-2.153-2.944-2.295a24.066,24.066,0,0,0-14.062,3.737,41.055,41.055,0,0,0-10.28,8.885c-.456.539-.963.985-1.72.6a1.23,1.23,0,0,1-.6-1.62,30.409,30.409,0,0,1,10.917-16.691c.155-.118.433-.18.294-.594l-1.425.358a7,7,0,0,1-7.678-2.707,7.5,7.5,0,0,1-.849-6.5c.1-.39.36-.75-.218-1.032a8.126,8.126,0,0,1-4.4-5.454v-2.1a7.945,7.945,0,0,1,3.81-5.125c.76-.419,1-.728.713-1.649a7.123,7.123,0,0,1,2.314-7.818,7.456,7.456,0,0,1,6.814-1.021c.549.154.847.148,1.115-.428a6.636,6.636,0,0,1,1.8-2.319.753.753,0,0,0,.242-1.117c-.81-1.515-1.64-3.015-2.586-4.45A76.474,76.474,0,0,0,688.94,85.5c-.524-.465-.983-.962-.686-1.722.3-.776.99-.795,1.685-.752a34.548,34.548,0,0,1,11.76,3,43.065,43.065,0,0,1,12.083,8.061c.446.414.7.482,1.084-.08a7.048,7.048,0,0,1,2.89-2.428c.712-.327.753-.68.556-1.379-.778-2.765-.682-5.452,1.289-7.741,2.321-2.7,5.322-2.993,8.539-2.11.709.195.979.05,1.291-.564a8.146,8.146,0,0,1,3.852-3.829c3.727-1.736,7.836-.169,9.933,3.819.328.624.611.755,1.293.535a7.859,7.859,0,0,1,7.6,1.1,7.677,7.677,0,0,1,2.348,8.553c-.255.828-.069,1.174.664,1.517a7.789,7.789,0,0,1,2.592,2.069c.843.99.839,1,1.823.1a41.122,41.122,0,0,1,18.644-10.12,27.026,27.026,0,0,1,5.279-.749A1.241,1.241,0,0,1,784.426,85c-.141.128-.279.26-.422.387a81.888,81.888,0,0,0-8.95,9.254,57.535,57.535,0,0,0-6.736,10.044c-.241.47-.183.7.236.993a6.463,6.463,0,0,1,2.176,2.49c.361.763.75.842,1.535.61a7.021,7.021,0,0,1,8.46,3.209,7.822,7.822,0,0,1,.427,5.938c-.1.368-.307.715.207.96a8.227,8.227,0,0,1,4.439,5.409v2.292a8.038,8.038,0,0,1-3.818,5c-.791.418-.962.77-.711,1.664,1.047,3.728-.413,7.106-3.638,8.576a7.9,7.9,0,0,1-5.689.184c-.223-.066-.5-.276-.646.091-.112.276.14.4.305.527a29.352,29.352,0,0,1,8.9,12.523,32.9,32.9,0,0,1,1.266,3.893,1.2,1.2,0,0,1-.529,1.5,1.241,1.241,0,0,1-1.623-.355c-.151-.163-.284-.343-.43-.511a39.352,39.352,0,0,0-12.381-9.858,22.033,22.033,0,0,0-13.7-2.215,1.115,1.115,0,0,0-1.09,1.042,34.675,34.675,0,0,1-.838,4.107,8.966,8.966,0,0,0,.1,5.318c.332,1.092.533,2.224.809,3.334a2.059,2.059,0,0,1-.693,2.232,1.877,1.877,0,0,1-2.224.109c-2.189-1.092-4.424-2.1-6.583-3.244-1-.535-1.391.471-2.108.629-.521.115-.148.728-.064,1.076a30.864,30.864,0,0,0,3.6,8.475c.678,1.14.587,1.529-.441,2.327h-.573a2.711,2.711,0,0,1-1.018-.962,31.972,31.972,0,0,1-3.617-8.063q-.346-1.295-.688-2.59l-.185.028v.911c0,2.928-.022,5.856.014,8.784A2.073,2.073,0,0,1,736.707,173Zm43.246-87.245a2.682,2.682,0,0,0-.406-.02,40.185,40.185,0,0,0-19.79,11.046.961.961,0,0,0-.3.843c.264,3.506-1.484,5.879-4.381,7.508-.729.41-.7.736-.6,1.459a2.279,2.279,0,0,0,2.347,2.287c.719.074,1.01.029,1.385-.616,1.554-2.672,3.789-4.258,7.027-3.956.646.06.73-.371.921-.748a60.339,60.339,0,0,1,8.266-11.981C776.134,89.58,777.982,87.706,779.953,85.755Zm-86.723.174a1.03,1.03,0,0,0,.1.239c.217.233.436.463.662.686a66.652,66.652,0,0,1,13.014,17.084.725.725,0,0,0,.981.445,5.037,5.037,0,0,1,2.364-.027,7.58,7.58,0,0,1,5.193,4c.141.248.157.636.607.63a1.93,1.93,0,0,0,2.018-1.709,2.257,2.257,0,0,1,.155-.548c.354-.709.144-1.047-.572-1.45-2.968-1.669-4.74-4.094-4.385-7.683a1.087,1.087,0,0,0-.467-.963A42.152,42.152,0,0,0,702.4,89.1,35.623,35.623,0,0,0,693.23,85.929Zm44.629,62.483c.484-1.554.872-3.12,1.407-4.644a35.486,35.486,0,0,1,6.883-11.781c.374-.425.4-.623-.077-1.023-4.078-3.449-3.523-9,1.167-11.666.64-.363.867-.614.659-1.433-.219-.863-.6-1.142-1.394-1.144a5.228,5.228,0,0,1-1.951-.394c-.533-.215-.823-.085-1.1.46a8.048,8.048,0,0,1-4.837,4.328.9.9,0,0,0-.77,1.05c.032,2.927.01,5.855.01,8.783Q737.859,139.678,737.86,148.411Zm-2.462-.066q0-3.529,0-7.058,0-9.5,0-19c0-.473.085-.911-.614-1.062a7.5,7.5,0,0,1-4.4-2.992c-.476-.624-.75-1.664-1.339-1.869-.658-.228-1.562.355-2.374.444-.967.106-.692.914-.931,1.423-.265.564.286.609.58.773,5.11,2.856,5.57,8.646.942,12.175-.452.345-.452.538-.1.938a34.406,34.406,0,0,1,4,5.569A39.856,39.856,0,0,1,735.4,148.345Zm11.338-34c3.426.058,5.311-1.554,5.708-4.391.4-2.891-1.8-6.666-4.633-8.02a24.919,24.919,0,0,0-5.69-1.837c-.4-.083-.723-.145-.923.355-.172.43-.347.758.1,1.164.779.7,1.49,1.475,2.231,2.218a1.247,1.247,0,0,1,.207,1.856c-.5.6-1.213.55-1.919-.121-.784-.744-1.56-1.5-2.292-2.292-.335-.362-.609-.3-.992-.137-.454.187-.382.486-.312.848a21.351,21.351,0,0,0,1.837,5.688A8.368,8.368,0,0,0,746.736,114.349ZM720.317,87.887a8.44,8.44,0,0,0,4.874,6.98,21.385,21.385,0,0,0,5.337,1.7c.4.079.83.311,1.094-.34A.913.913,0,0,0,731.4,95c-.753-.682-1.447-1.43-2.161-2.156a1.23,1.23,0,1,1,1.708-1.734q1.139,1.086,2.229,2.222a.792.792,0,0,0,1.069.244c.5-.242.408-.594.317-.955-.311-1.23-.581-2.476-.984-3.677-1.365-4.064-4.406-6.487-8.184-6.592C722.489,82.276,720.289,84.439,720.317,87.887Zm5.852,26.523a8.32,8.32,0,0,0,6.721-4.828,21.362,21.362,0,0,0,1.761-5.513c.077-.4.184-.719-.329-.911-.422-.158-.755-.38-1.169.087-.673.76-1.418,1.457-2.147,2.167s-1.47.779-2,.227c-.511-.531-.432-1.22.247-1.919.731-.752,1.464-1.5,2.227-2.222.352-.331.3-.611.133-1.007-.19-.459-.455-.386-.833-.32a25.54,25.54,0,0,0-3.859,1.034,8.967,8.967,0,0,0-6.384,6.814C719.745,111.592,721.968,114.463,726.169,114.41Zm26.217-26.281c.059-3.793-2.057-5.985-5.116-5.832a8.234,8.234,0,0,0-7.3,4.725,19.62,19.62,0,0,0-1.788,5.5c-.072.394-.3.757.275,1.029a.958.958,0,0,0,1.323-.216c.681-.754,1.412-1.464,2.153-2.16.667-.627,1.341-.657,1.846-.108a1.207,1.207,0,0,1-.142,1.85c-.755.773-1.511,1.546-2.3,2.285a.745.745,0,0,0-.17,1c.216.5.549.421.935.339a22.418,22.418,0,0,0,5.5-1.789A8.34,8.34,0,0,0,752.386,88.129Zm-57.7,27.973a7.424,7.424,0,0,0,3.95,5.877,17.366,17.366,0,0,0,5.312,1.766c.371.07.653.133.844-.312a.682.682,0,0,0-.155-.913c-.585-.537-1.128-1.12-1.687-1.685-.913-.922-1.049-1.61-.437-2.2.578-.552,1.276-.407,2.136.444.565.559,1.141,1.108,1.688,1.685.271.286.521.429.906.213s.269-.547.194-.838c-.293-1.137-.565-2.283-.931-3.4a8.16,8.16,0,0,0-5.106-5.414C697.8,110.008,694.642,111.984,694.683,116.1Zm24,23.875c3.079,0,4.7-1.39,5.085-3.811a7.663,7.663,0,0,0-3.909-7.212,20.724,20.724,0,0,0-5.319-1.771c-.351-.073-.663-.123-.857.331a.7.7,0,0,0,.17.92c.671.633,1.309,1.3,1.961,1.954a1.251,1.251,0,0,1,.2,1.86c-.493.594-1.209.539-1.92-.134-.693-.656-1.364-1.336-2.027-2.024a.62.62,0,0,0-.84-.134c-.366.183-.276.43-.216.718a19.158,19.158,0,0,0,1.686,5.146A7.485,7.485,0,0,0,718.687,139.977Zm55.291-29.08a7.427,7.427,0,0,0-5.884,3.883,17.305,17.305,0,0,0-1.839,5.484c-.07.375-.044.585.321.751a.671.671,0,0,0,.916-.124c.647-.7,1.329-1.368,2.02-2.026a1.236,1.236,0,0,1,1.851-.152,1.266,1.266,0,0,1-.127,1.863c-.655.693-1.337,1.36-2.021,2.025-.25.243-.385.458-.206.823.2.4.5.345.806.264,1.165-.308,2.345-.578,3.484-.966a8.013,8.013,0,0,0,5.717-6.412C779.581,113.31,777.56,110.867,773.978,110.9Zm-18.905,29.139a7.427,7.427,0,0,0,5.947-3.892,17.937,17.937,0,0,0,1.828-5.4c.061-.3.148-.6-.27-.8a.727.727,0,0,0-1,.144c-.582.631-1.2,1.228-1.816,1.83-.735.721-1.467.832-2,.317-.59-.566-.493-1.258.3-2.068.58-.59,1.161-1.18,1.759-1.752.3-.286.5-.533.243-.979-.242-.417-.527-.21-.823-.163a21.2,21.2,0,0,0-3.221.859,8.127,8.127,0,0,0-5.87,6.187C749.442,137.5,751.444,140.086,755.073,140.036Zm24.059-4.551A7.766,7.766,0,0,0,775.249,129a19.658,19.658,0,0,0-5.4-1.812c-.368-.073-.657-.077-.856.35a.679.679,0,0,0,.19.906c.69.658,1.362,1.336,2.022,2.025a1.194,1.194,0,0,1,.121,1.784c-.5.567-1.182.543-1.845-.079s-1.312-1.3-1.965-1.947c-.248-.248-.458-.508-.894-.3-.46.221-.34.571-.258.891.291,1.137.559,2.284.933,3.4a8.143,8.143,0,0,0,5.121,5.393C776,140.9,779.178,138.961,779.132,135.486Zm-79.427,4.578a7.574,7.574,0,0,0,6.1-4.109,17.271,17.271,0,0,0,1.7-5.13c.06-.326.254-.638-.231-.875a.787.787,0,0,0-1.075.215c-.607.65-1.248,1.268-1.882,1.893a1.25,1.25,0,0,1-1.86.176c-.557-.472-.488-1.252.156-1.923.66-.688,1.334-1.364,2.026-2.019a.618.618,0,0,0,.113-.843c-.177-.354-.44-.278-.727-.2-1.132.306-2.285.551-3.4.919a8.272,8.272,0,0,0-5.546,5.216C693.818,136.922,695.831,140.158,699.705,140.064Zm57.755-20.54a1.14,1.14,0,0,1,.648-1.083,1.172,1.172,0,0,1,1.41.219c.736.7,1.461,1.417,2.163,2.153a.667.667,0,0,0,.92.153c.362-.194.224-.457.171-.735a18.5,18.5,0,0,0-1.689-5.138,7.642,7.642,0,0,0-5.759-4.082c-.391-.07-.568.012-.677.417a6.638,6.638,0,0,1-4.149,4.758c-.376.146-.448.356-.347.735a7.632,7.632,0,0,0,3.757,5.045,17.763,17.763,0,0,0,5.308,1.774c.333.059.648.228.868-.258a.747.747,0,0,0-.18-1c-.649-.609-1.267-1.251-1.9-1.881A1.53,1.53,0,0,1,757.461,119.524Zm-42.218-1.158a1.174,1.174,0,0,1,1.049.7,1.1,1.1,0,0,1-.219,1.321c-.7.741-1.418,1.46-2.143,2.174-.276.271-.427.508-.2.908s.547.274.828.2c1.167-.3,2.346-.579,3.485-.968a7.956,7.956,0,0,0,5.367-5.257c.164-.511.166-.784-.441-.966a6.732,6.732,0,0,1-4.71-4.824c-.163-.548-.384-.638-.873-.475a7.691,7.691,0,0,0-4.609,3.612,19.428,19.428,0,0,0-1.829,5.394c-.077.374-.062.655.359.85a.673.673,0,0,0,.9-.192c.633-.671,1.3-1.313,1.952-1.961A1.422,1.422,0,0,1,715.243,118.366Zm32.4,15.893a.839.839,0,0,0-.6.451,31.82,31.82,0,0,0-6.537,14c-.056.3-.408.715.125.887.483.156.864.737,1.534.214a23.071,23.071,0,0,1,3.9-2.37,1.008,1.008,0,0,0,.612-.554,23.029,23.029,0,0,1,2.964-5.622c.153-.222.253-.393-.009-.647A7.3,7.3,0,0,1,747.646,134.26Zm-21.29.869a7.259,7.259,0,0,1-2.75,5.946c-.364.282-.1.485.042.715a12.579,12.579,0,0,1,1.414,2.367,8.457,8.457,0,0,0,4.649,5.131c.972.47,1.7.875,2.732.3.354-.2.47-.306.372-.682-.255-.984-.442-1.987-.733-2.959A30.416,30.416,0,0,0,726.355,135.129Zm9.989-45.836a2.533,2.533,0,0,0,.178-.322c.9-2.762,2.127-5.3,4.619-7.015a.431.431,0,0,0,.151-.64,6.078,6.078,0,0,0-3.633-3.422c-2.357-.734-4.816.555-6.154,3.13-.268.516-.247.807.26,1.152a9.76,9.76,0,0,1,2.94,3.318A35.583,35.583,0,0,1,736.344,89.293Zm-8.96,9.125a6.415,6.415,0,0,0-.6-.271c-2.68-.865-5.118-2.1-6.763-4.507-.305-.447-.6-.215-.893-.058-1.931,1.037-3.368,2.5-3.389,4.808s1.412,3.775,3.315,4.861a.737.737,0,0,0,1.166-.268,9.766,9.766,0,0,1,3.327-2.938A27.187,27.187,0,0,1,727.385,98.418Zm9.07,8.88c-.107.281-.157.4-.2.516-.885,2.734-2.123,5.237-4.583,6.923-.381.261-.254.513-.1.8,1.067,1.982,2.516,3.484,4.939,3.46,2.369-.023,3.8-1.488,4.848-3.449a.6.6,0,0,0-.236-.932,9.507,9.507,0,0,1-1.887-1.731A16.857,16.857,0,0,1,736.455,107.3Zm8.941-9.012c.306.14.407.2.515.234,2.7.886,5.18,2.107,6.862,4.53.286.412.578.252.9.08,1.973-1.052,3.414-2.544,3.388-4.9s-1.52-3.8-3.478-4.853c-.434-.234-.662-.131-.921.251A9.3,9.3,0,0,1,751,95.46,16.335,16.335,0,0,1,745.4,98.287Zm-9.05,60.478c1.016,0,2.031,0,3.047,0a.81.81,0,0,0,.923-.933c-.007-1.682,0-3.364,0-5.047a.777.777,0,0,0-.869-.885q-3.047,0-6.094,0c-.58,0-.863.261-.856.874.019,1.682.022,3.364,0,5.046-.01.717.348.954,1,.948C734.44,158.76,735.393,158.766,736.345,158.765Zm-12.8,2.443c2.143-.943,4.11-1.821,6.09-2.667.384-.164.407-.423.406-.754,0-1.589-.02-3.178.009-4.767a.857.857,0,0,0-.605-.927c-1.221-.533-2.419-1.118-3.628-1.68-.779-.362-1.56-.72-2.485-1.148.5,1.79.937,3.378,1.4,4.955a3.635,3.635,0,0,1,.035,1.969C724.367,157.786,723.984,159.387,723.541,161.207Zm25.968-.042c-.306-1.339-.491-2.5-.846-3.613a7.825,7.825,0,0,1-.048-4.484c.294-1.133.476-2.3.737-3.589-2.146.984-4.1,1.889-6.069,2.774a.756.756,0,0,0-.519.793c.017,1.43.008,2.86,0,4.29a.715.715,0,0,0,.426.759C745.244,159.082,747.294,160.087,749.509,161.165ZM773.1,125.416c.4.16.571.232.742.292a11,11,0,0,1,5.648,3.843c.312.442.612.317.968.111a4.911,4.911,0,0,0,2.858-4c.125-2.006-.986-3.325-2.567-4.356-.6-.389-1.055-.571-1.519.24a6.132,6.132,0,0,1-1.3,1.373A13.948,13.948,0,0,1,773.1,125.416Zm-72.482.134a2.826,2.826,0,0,0-.367-.215,11.27,11.27,0,0,1-5.99-4.017c-.257-.369-.515-.258-.813-.09-1.7.956-2.976,2.237-2.963,4.327s1.3,3.354,3,4.309a.551.551,0,0,0,.864-.2,8.354,8.354,0,0,1,2.074-2.09A16.068,16.068,0,0,1,700.613,125.551Zm8.59-8.6a18.921,18.921,0,0,1,1.645-3.712,9.451,9.451,0,0,1,2.572-2.783c.379-.272.192-.549.036-.827-.958-1.707-2.261-2.953-4.352-2.916s-3.341,1.339-4.28,3.046a.5.5,0,0,0,.178.784,8.576,8.576,0,0,1,1.626,1.464A14.972,14.972,0,0,1,709.2,116.95Zm.076,17.024c-.89,2.685-2.011,4.972-4.224,6.524-.4.283-.172.559-.027.818.935,1.669,2.22,2.913,4.249,2.918,2.068,0,3.36-1.268,4.331-2.956.234-.407.208-.665-.2-.939a7.96,7.96,0,0,1-1.608-1.474A14.866,14.866,0,0,1,709.279,133.974ZM756.1,125.5c-2.74-.857-5-2.016-6.565-4.223-.235-.333-.463-.192-.737-.068a4.988,4.988,0,0,0-3.017,4.394c.1,2.067,1.339,3.344,3.061,4.272a.514.514,0,0,0,.791-.183,9.044,9.044,0,0,1,1.464-1.621A14.716,14.716,0,0,1,756.1,125.5Zm8.571,8.738c-.109.065-.187.084-.2.127-.1.234-.173.475-.262.712a10.6,10.6,0,0,1-3.552,5.177c-.557.4-.541.725-.226,1.238.986,1.6,2.269,2.781,4.261,2.745s3.238-1.248,4.194-2.864c.276-.466.266-.742-.217-1.077a9.508,9.508,0,0,1-3.222-4.156C765.167,135.516,764.927,134.878,764.669,134.238Zm-.2-17.42c.077-.086.134-.122.151-.173.846-2.43,1.942-4.693,4.148-6.213.35-.241.169-.492.034-.739-.937-1.706-2.211-2.981-4.3-2.98s-3.343,1.289-4.318,2.966c-.249.427-.155.669.235.931a8.339,8.339,0,0,1,1.841,1.778A14.885,14.885,0,0,1,764.464,116.818Zm-46.6,8.567a4.852,4.852,0,0,0,.477.253,11.283,11.283,0,0,1,5.893,4c.221.316.446.265.731.121,3.551-1.791,4.132-5.647,1.077-8.019-1.3-1.009-1.351-1.012-2.424.228A12.664,12.664,0,0,1,717.864,125.385Zm-9.931,21.271a7.939,7.939,0,0,1-3.288-1.888c-.475-.5-.787-.384-1.255-.018a26.431,26.431,0,0,0-6.26,7.1,10.586,10.586,0,0,0-1.169,2.374A42.276,42.276,0,0,1,707.933,146.656Zm57.939.022a44.168,44.168,0,0,1,11.407,7.415,16.183,16.183,0,0,0-1.688-3.31,23.8,23.8,0,0,0-5.307-6.056c-.281-.222-.5-.463-.869-.081A8.054,8.054,0,0,1,765.872,146.678ZM739.233,98.365a2.848,2.848,0,0,0-2.825-2.872,2.9,2.9,0,0,0-2.859,2.859,2.85,2.85,0,0,0,2.847,2.846A2.8,2.8,0,0,0,739.233,98.365Zm10.5,47.612a23.983,23.983,0,0,1,10.632-.819,8.214,8.214,0,0,1-2.155-2.689c-.253-.556-.559-.539-1.042-.38a7.793,7.793,0,0,1-4.492.172.737.737,0,0,0-.959.312A29.478,29.478,0,0,0,749.729,145.978Zm-26.391.191a24.191,24.191,0,0,0-2.088-3.539.543.543,0,0,0-.619-.3,7.948,7.948,0,0,1-4.128-.34c-.227-.074-.445-.152-.572.117a10.6,10.6,0,0,1-2.588,3.283A22.889,22.889,0,0,1,723.339,146.169Zm43.722-20.594a2.607,2.607,0,0,0-2.4-2.608,2.538,2.538,0,0,0-2.586,2.394,2.494,2.494,0,0,0,2.374,2.589A2.553,2.553,0,0,0,767.061,125.575Zm-55.34-.083a2.541,2.541,0,0,0-2.458-2.527,2.605,2.605,0,0,0-2.53,2.479,2.549,2.549,0,0,0,2.479,2.508A2.5,2.5,0,0,0,711.721,125.492Z" transform="translate(-688 -75.251)"/></g></g></svg>