<svg xmlns="http://www.w3.org/2000/svg" width="89.886" height="89.892" viewBox="0 0 89.886 89.892"><g transform="translate(-0.017 -0.001)"><g transform="translate(0.017 56.935)"><g transform="translate(0)"><path d="M88.405,324.28H1.515a1.5,1.5,0,0,0-1.5,1.5,31.5,31.5,0,0,0,31.46,31.46H58.443a31.5,31.5,0,0,0,31.46-31.46A1.5,1.5,0,0,0,88.405,324.28ZM58.443,354.242H31.477A28.5,28.5,0,0,1,3.052,327.276H86.868A28.5,28.5,0,0,1,58.443,354.242Z" transform="translate(-0.017 -324.28)"/></g></g><g transform="translate(31.477 0.001)"><g transform="translate(0 0)"><path d="M224.152,20.99c0-.109,0-.219-.012-.385a6.221,6.221,0,0,0-4.193-5.29l1.7-1.7A8.023,8.023,0,0,0,222.3,2.876,7.875,7.875,0,0,0,211.232,1.8c-.19.157-.375.324-.559.508l-1.843,1.87A6.252,6.252,0,0,0,203.493.01a5.988,5.988,0,0,0-6.305,5.664c-.006.109-.008.219-.008.327V8.3a5.956,5.956,0,0,0-2.99-.806c-.108,0-.219,0-.385.012a6.209,6.209,0,0,0-5.613,6.241v2.037a5.972,5.972,0,0,0-2.99-.8c-.108,0-.217,0-.383.012a6.209,6.209,0,0,0-5.615,6.241V43.452a1.5,1.5,0,0,0,1.5,1.5h25.468a5.988,5.988,0,0,0,5.186-8.986h2.024a6.2,6.2,0,0,0,6.271-5.673,5.955,5.955,0,0,0-.819-3.353,5.992,5.992,0,0,0,5.321-5.949ZM220.276,23.1a2.981,2.981,0,0,1-2.118.873h-4.5a1.5,1.5,0,1,0,0,3l.165,0a2.99,2.99,0,0,1,2.837,3.094,3.193,3.193,0,0,1-3.257,2.894h-7.236a1.5,1.5,0,0,0,0,3,3,3,0,0,1,0,5.993H182.2V21.21a3.2,3.2,0,0,1,2.837-3.227l.163,0a3,3,0,0,1,2.992,2.992v.011a1.5,1.5,0,0,0,1.5,1.5h0a1.5,1.5,0,0,0,1.5-1.5h0V13.719a3.2,3.2,0,0,1,2.837-3.227l.162,0a3,3,0,0,1,2.993,2.995v.009a1.5,1.5,0,0,0,1.5,1.5h0a1.5,1.5,0,0,0,1.5-1.5V6l0-.166A2.97,2.97,0,0,1,203.273,3a3.208,3.208,0,0,1,2.894,3.26V7.5a1.5,1.5,0,0,0,2.565,1.05L212.8,4.426c.111-.109.225-.213.343-.31a4.871,4.871,0,0,1,6.836.641,5.031,5.031,0,0,1-.439,6.731l-3.94,3.94a1.5,1.5,0,0,0,1.059,2.557h1.323a3.193,3.193,0,0,1,3.173,2.837l0,.165A2.978,2.978,0,0,1,220.276,23.1Z" transform="translate(-179.202 -0.001)"/></g></g><g transform="translate(22.93 9.431)"><g transform="translate(0)"><rect width="59.321" height="2.996" transform="translate(0 41.946) rotate(-45)"/></g></g><g transform="translate(55.444 12.001)"><rect width="2.996" height="7.491"/></g><g transform="translate(46.455 19.491)"><rect width="2.996" height="8.989"/></g><g transform="translate(37.467 26.967)"><rect width="2.996" height="10.487"/></g><g transform="translate(56.942 17.993)"><rect width="7.491" height="2.996"/></g><g transform="translate(47.953 26.967)"><rect width="8.989" height="2.996"/></g><g transform="translate(38.965 35.956)"><rect width="10.487" height="2.996"/></g><g transform="translate(5.442 3.414)"><path d="M53.453,22.958l-.006-.009a6.912,6.912,0,0,0-9.574-1.912c-.1.064-.2.133-.307.216l-.539.41-.518-.373A6.891,6.891,0,1,0,34.3,32.26l1.261.986v.767a7.49,7.49,0,1,0,14.98,0v-.767l1.326-1.035A6.9,6.9,0,0,0,53.453,22.958Zm-3.417,6.878-1.918,1.5a1.5,1.5,0,0,0-.575,1.181v1.5a4.494,4.494,0,1,1-8.989,0v-1.5a1.494,1.494,0,0,0-.575-1.181l-1.918-1.5a1.474,1.474,0,0,0-.181-.121,3.895,3.895,0,1,1,4.632-6.187,1.58,1.58,0,0,0,.163.136l1.5,1.079a1.5,1.5,0,0,0,1.781-.022l1.579-1.188a3.874,3.874,0,0,1,4.5,6.3Z" transform="translate(-30.916 -19.441)"/></g><g transform="translate(32.972 1.499)"><rect width="2.996" height="2.996"/></g><g transform="translate(41.961 49.438)"><rect width="2.996" height="2.996"/></g><g transform="translate(80.915 8.997)"><path d="M460.787,51.24v3a3,3,0,1,1,0,5.992v3a5.992,5.992,0,0,0,0-11.985Z" transform="translate(-460.787 -51.24)"/></g><g transform="translate(3.01 22.488)"><rect width="2.996" height="2.996"/></g><g transform="translate(0.017 16.495)"><g transform="translate(0)"><rect width="2.996" height="2.996"/></g></g><g transform="translate(52.451 47.946)"><path d="M304.656,273.083a6,6,0,0,0-5.992,5.992h3a3,3,0,1,1,5.992,0h3A6,6,0,0,0,304.656,273.083Z" transform="translate(-298.664 -273.083)"/></g><g transform="translate(0.017 29.969)"><g transform="translate(0)"><path d="M18,175.184h-.189a5.994,5.994,0,0,0-11.607,0H6.01a5.992,5.992,0,0,0,0,11.985H18a5.992,5.992,0,1,0,0-11.985Zm0,8.99H6.01a3,3,0,1,1,0-5.992h1.5a1.5,1.5,0,0,0,1.5-1.5,3,3,0,0,1,5.993,0,1.5,1.5,0,0,0,1.5,1.5H18a3,3,0,1,1,0,5.992Z" transform="translate(-0.018 -170.69)"/></g></g><g transform="translate(7.508 43.452)"><path d="M50.172,247.485H44.179a1.5,1.5,0,0,0-1.5,1.5v5.992a1.5,1.5,0,0,0,1.5,1.5h5.992a1.5,1.5,0,0,0,1.5-1.5v-5.992A1.5,1.5,0,0,0,50.172,247.485Zm-1.5,5.992h-3v-3h3v3Z" transform="translate(-42.681 -247.485)"/></g><g transform="translate(74.922 38.958)"><path d="M431.15,221.887a4.494,4.494,0,1,0,4.494,4.494A4.5,4.5,0,0,0,431.15,221.887Zm0,5.994a1.5,1.5,0,1,1,1.5-1.5A1.5,1.5,0,0,1,431.15,227.881Z" transform="translate(-426.656 -221.887)"/></g><g transform="translate(68.93 32.965)"><path d="M403.012,187.756A10.487,10.487,0,1,0,413.5,198.243,10.5,10.5,0,0,0,403.012,187.756Zm0,17.979a7.491,7.491,0,1,1,7.491-7.491A7.5,7.5,0,0,1,403.012,205.735Z" transform="translate(-392.525 -187.756)"/></g></g></svg>