<svg xmlns="http://www.w3.org/2000/svg" width="103.001" height="88.469" viewBox="0 0 103.001 88.469"><g transform="translate(-0.001 -36.928)"><path d="M212.939,117.4c-4.894,0-9.076,2.106-10.911,5.495a1.508,1.508,0,0,0,2.652,1.437c1.289-2.378,4.53-3.915,8.259-3.915s6.971,1.537,8.26,3.915a1.508,1.508,0,1,0,2.652-1.437C222.015,119.5,217.834,117.4,212.939,117.4Z" transform="translate(-161.159 -64.251)"/><path d="M200.076,85.393a1.508,1.508,0,0,0,2.652-1.437c-3.007-5.55-9.922-9-18.046-9s-15.038,3.447-18.045,9a1.508,1.508,0,0,0,2.652,1.437c2.479-4.575,8.378-7.418,15.393-7.418S197.6,80.817,200.076,85.393Z" transform="translate(-132.902 -30.365)"/><path d="M129.732,51.677a1.508,1.508,0,0,0,2.046-.607c3.722-6.863,12.518-11.126,22.955-11.126s19.233,4.263,22.955,11.126a1.508,1.508,0,1,0,2.651-1.438c-4.25-7.836-14.062-12.7-25.607-12.7s-21.357,4.868-25.607,12.7A1.509,1.509,0,0,0,129.732,51.677Z" transform="translate(-102.951)"/><path d="M385.048,234.089a3.926,3.926,0,1,0-3.926-3.926A3.928,3.928,0,0,0,385.048,234.089Zm0-4.835a.907.907,0,0,1,.9.909.907.907,0,1,1-.9-.909Z" transform="translate(-304.299 -151.15)"/><path d="M385.048,287.8a3.926,3.926,0,1,0,3.921,3.927A3.931,3.931,0,0,0,385.048,287.8Zm0,4.836a.91.91,0,1,1,.9-.909A.91.91,0,0,1,385.048,292.632Z" transform="translate(-304.299 -200.301)"/><path d="M358.167,260.943a3.926,3.926,0,1,0-3.926,3.927A3.931,3.931,0,0,0,358.167,260.943Zm-3.926.91a.91.91,0,1,1,.91-.91A.91.91,0,0,1,354.241,261.853Z" transform="translate(-279.702 -175.726)"/><path d="M415.828,257.017a3.926,3.926,0,1,0,3.926,3.926A3.931,3.931,0,0,0,415.828,257.017Zm0,4.836a.91.91,0,1,1,.909-.91A.911.911,0,0,1,415.828,261.853Z" transform="translate(-328.874 -175.726)"/><path d="M157.393,305.141a7.148,7.148,0,1,0,7.148,7.148A7.156,7.156,0,0,0,157.393,305.141Zm0,11.28a4.132,4.132,0,1,1,4.132-4.132A4.136,4.136,0,0,1,157.393,316.421Z" transform="translate(-119.96 -214.15)"/><path d="M102.311,204.151l-7.265-29.991a16.189,16.189,0,0,0-6.169-9.773,14.083,14.083,0,0,0-1.995-1.184v-.618a5.7,5.7,0,0,0-5.688-5.693H77.813a5.7,5.7,0,0,0-5.694,5.693v.871a7.5,7.5,0,0,0-2.755,2.365H54.815a1.508,1.508,0,1,0,0,3.017h14v3.082a3.089,3.089,0,0,1-3.082,3.088H37.274a3.092,3.092,0,0,1-3.088-3.088V168.84h13.66a1.508,1.508,0,0,0,0-3.017H33.634a7.49,7.49,0,0,0-2.75-2.363v-.874a5.7,5.7,0,0,0-5.694-5.694H21.815a5.7,5.7,0,0,0-5.694,5.694v.617a14.218,14.218,0,0,0-1.99,1.182,16.186,16.186,0,0,0-6.173,9.776L.692,204.151c-1.07,4.412-.9,8.145.511,11.1a10.086,10.086,0,0,0,6.318,5.382c6.159,1.894,13.369-1.267,15.431-6.764l3.49-9.3c.449-1.2.8-1.348.809-1.349.041-.009.314.026.833.4,4.887,4.438,12.891,4.246,18.161-.353H56.756a14.568,14.568,0,0,0,8.792,3.565,12.769,12.769,0,0,0,9.369-3.212c.585-.427.829-.407.831-.4s.358.152.81,1.348l3.484,9.3c1.656,4.41,6.625,7.316,11.705,7.316a12.684,12.684,0,0,0,3.735-.552,10.084,10.084,0,0,0,6.316-5.384C103.208,212.294,103.38,208.562,102.311,204.151Zm-24.5-44.243h3.382a2.676,2.676,0,0,1,2.627,2.2,16.866,16.866,0,0,0-3.925-.469h-.062a17.857,17.857,0,0,0-4.676.621A2.681,2.681,0,0,1,77.812,159.909Zm-56,0H25.19a2.68,2.68,0,0,1,2.655,2.351,17.854,17.854,0,0,0-4.677-.622h-.052a16.861,16.861,0,0,0-3.935.469A2.68,2.68,0,0,1,21.815,159.909ZM94.6,217.744c-4.177,1.286-10.081-.554-11.728-4.94l-3.486-9.3c-.677-1.793-1.591-2.834-2.794-3.183a3.974,3.974,0,0,0-3.539.931c-.039.03-.078.062-.114.1-3.881,3.569-10.412,3.265-14.556-.678a1.508,1.508,0,0,0-1.04-.416H45.662a1.507,1.507,0,0,0-1.04.416c-4.148,3.946-10.677,4.251-14.555.679a1.457,1.457,0,0,0-.115-.1,3.977,3.977,0,0,0-3.544-.93c-1.2.351-2.116,1.393-2.789,3.185l-3.49,9.3c-1.645,4.386-7.545,6.225-11.721,4.941-4.676-1.439-6.42-6.134-4.784-12.884l7.265-29.99c1.312-5.415,4.226-8.02,7.127-9.232a1.478,1.478,0,0,0,.346-.139,13.6,13.6,0,0,1,4.765-.846,14.172,14.172,0,0,1,5.613,1.1c.024.011.049.023.075.033a4.721,4.721,0,0,1,2.355,1.781v4.353a6.112,6.112,0,0,0,6.1,6.1H65.728a6.109,6.109,0,0,0,6.1-6.1V167.57a4.668,4.668,0,0,1,2.306-1.762,1.538,1.538,0,0,0,.213-.094,14.136,14.136,0,0,1,5.484-1.059h.054a13.6,13.6,0,0,1,4.759.847,1.5,1.5,0,0,0,.341.137c2.9,1.211,5.817,3.816,7.129,9.232l7.265,29.991C101.015,211.61,99.272,216.305,94.6,217.744Z" transform="translate(0 -95.783)"/><path d="M302.835,305.141a7.148,7.148,0,1,0,7.148,7.148A7.156,7.156,0,0,0,302.835,305.141Zm0,11.28a4.132,4.132,0,1,1,4.131-4.132A4.136,4.136,0,0,1,302.835,316.421Z" transform="translate(-236.085 -214.15)"/><path d="M75.366,236.84h-.459v-.459a4.628,4.628,0,1,0-9.256,0v.459h-.459a4.628,4.628,0,0,0,0,9.256h.459v.459a4.628,4.628,0,1,0,9.256,0V246.1h.459a4.628,4.628,0,0,0,0-9.256Zm0,6.239H73.4a1.509,1.509,0,0,0-1.509,1.508v1.968a1.611,1.611,0,1,1-3.221,0v-1.968a1.509,1.509,0,0,0-1.509-1.508H65.193a1.611,1.611,0,1,1,0-3.222H67.16a1.509,1.509,0,0,0,1.509-1.509v-1.967a1.611,1.611,0,1,1,3.221,0v1.967a1.509,1.509,0,0,0,1.509,1.509h1.967a1.611,1.611,0,1,1,0,3.222Z" transform="translate(-48.356 -155.554)"/><path d="M221.218,284.685h-2.19a1.508,1.508,0,0,0,0,3.017h2.19a1.508,1.508,0,0,0,0-3.017Z" transform="translate(-173.674 -197.817)"/><path d="M271.325,284.685h-2.2a1.508,1.508,0,1,0,0,3.017h2.2a1.508,1.508,0,0,0,0-3.017Z" transform="translate(-213.676 -197.817)"/><path d="M249.167,323.9h-2.189a1.508,1.508,0,1,0,0,3.017h2.189a1.508,1.508,0,1,0,0-3.017Z" transform="translate(-195.99 -229.125)"/></g></svg>