<?xml version="1.0" encoding="utf-8"?>
<!-- Generator: Adobe Illustrator 22.0.1, SVG Export Plug-In . SVG Version: 6.00 Build 0)  -->
<svg version="1.1" id="Layer_1" xmlns="http://www.w3.org/2000/svg" xmlns:xlink="http://www.w3.org/1999/xlink" x="0px" y="0px"
	 viewBox="0 0 129.3 129.3" style="enable-background:new 0 0 129.3 129.3;" xml:space="preserve">
<style type="text/css">
	.st0{fill:#FD2E3D;}
</style>
<g transform="translate(-16.018 -16)">
	<path class="st0" d="M23.6,145.3c-1,0-1.8-0.6-2.1-1.5c-6.8-23.2-7.4-47.7-1.7-71.2c0.3-1.2,1.5-1.9,2.6-1.6
		c1.2,0.3,1.9,1.5,1.6,2.6l0,0c-5.5,22.7-5,46.5,1.6,68.9c0.3,1.1-0.3,2.3-1.5,2.7C24.1,145.3,23.9,145.3,23.6,145.3z"/>
	<path class="st0" d="M145.3,102.2c0-1.2-1-2.1-2.2-2.1c0,0,0,0,0,0h-0.1c-1.2,0-2.1,1-2.1,2.2l0,0c0.3,13.6-1.5,27.2-5.3,40.3
		c-0.3,1.1,0.3,2.3,1.5,2.7c1.1,0.3,2.3-0.3,2.7-1.5l0,0C143.8,130.3,145.6,116.2,145.3,102.2z"/>
	<path class="st0" d="M36.6,109c0.2,1,1.1,1.8,2.1,1.8c0.1,0,0.2,0,0.4,0c1.2-0.2,2-1.3,1.8-2.5c-1-6.3-0.1-12.8,2.7-18.6
		c1.9,1,4,1.8,6,2.5c-1.1,3.5-1.1,7.2,0,10.7c0.4,1.1,1.6,1.7,2.7,1.4c1.1-0.4,1.7-1.6,1.4-2.7l0,0c-1-3.1-0.8-6.4,0.5-9.3
		c0.3-0.3,0.4-0.7,0.5-1.1c0.2-1.1-0.6-2.2-1.7-2.5c-8.5-2.1-16-7.3-20.9-14.6c-0.7-1-2-1.2-3-0.6c-0.4,0.3-0.8,0.8-0.9,1.3
		c-2.3,10.4-3.5,21-3.6,31.7c0,1.2,0.9,2.2,2.1,2.2h0c1.2,0,2.1-0.9,2.2-2.1c0.1-8.8,0.9-17.6,2.5-26.2c2.4,2.8,5.2,5.2,8.3,7.2
		C36.5,94.2,35.4,101.7,36.6,109z"/>
	<path class="st0" d="M29.1,115.1c0-1.2-1-2.1-2.2-2.1c-1.2,0-2.1,1-2.1,2.2c0,0,0,0,0,0l0,0c0.2,9.6,1.3,19.1,3.4,28.5
		c0.2,1,1.1,1.7,2.1,1.7c0.2,0,0.3,0,0.5-0.1c1.2-0.3,1.9-1.4,1.6-2.6C30.3,133.6,29.2,124.4,29.1,115.1z"/>
	<path class="st0" d="M133.1,74.9c-0.3-1.2-1.4-1.9-2.6-1.6c-0.5,0.1-1,0.4-1.3,0.9c-5,7.3-12.5,12.5-21,14.6l-0.1,0
		c-1.1,0.3-1.8,1.5-1.5,2.7c0.1,0.4,0.3,0.7,0.6,1c1.3,2.9,1.4,6.2,0.4,9.2c-0.4,1.1,0.2,2.4,1.4,2.7c1.1,0.4,2.4-0.2,2.7-1.4
		c1.1-3.5,1.1-7.2,0-10.7c2.1-0.7,4.1-1.5,6.1-2.5c2.8,5.8,3.7,12.3,2.7,18.6c-0.2,1.2,0.6,2.3,1.8,2.5c0.1,0,0.2,0,0.4,0
		c1.1,0,1.9-0.8,2.1-1.8c1.2-7.3,0.1-14.8-3.2-21.5c3.1-2,5.9-4.5,8.3-7.2c3.6,18.8,3.3,44.7-0.9,62.3c-0.3,1.2,0.4,2.3,1.6,2.6
		c0,0,0,0,0,0l0,0c0.2,0,0.3,0.1,0.5,0.1c1,0,1.9-0.7,2.1-1.7C138,121,138,97.5,133.1,74.9z"/>
	<path class="st0" d="M106.6,106.5h-6.5c-1.4,0-2.7-0.4-3.8-1.3c-1-0.7-2.3-0.5-3,0.4c-0.7,1-0.5,2.3,0.4,3c0,0,0,0,0,0
		c1.8,1.4,4.1,2.1,6.4,2.1h6.5c8.3,0,15.1,6.8,15.1,15.1v17.2c0,1.2,1,2.1,2.2,2.1c1.2,0,2.1-1,2.1-2.1v-17.2
		C125.9,115.2,117.3,106.6,106.6,106.5z"/>
	<path class="st0" d="M105.6,84.9c9.7-1.9,18-8.2,22.4-17.1h7.7l0.7,2.5c2.1,7.7,3.5,15.6,4.2,23.6c0.1,1.1,1,2,2.2,2h0.2
		c1.2-0.1,2.1-1.1,2-2.3l0,0c-0.7-8.2-2.1-16.4-4.3-24.4l-0.8-2.9c2.7-2.3,3.1-6.3,0.8-9c-0.7-0.8-1.6-1.5-2.6-1.9
		c0.5-7.9-4.1-15.3-11.4-18.4l-3-1.3c-1.1-0.5-2.4,0-2.8,1.1c-0.3,0.6-0.2,1.4,0.1,2l2.9,4.8c2,3.3,2.6,7.3,1.6,11l-0.1,0.5
		c-3.4,0.9-5.4,4.5-4.5,7.9c0.4,1.6,1.5,2.9,2.9,3.8c-3.6,6.7-9.8,11.6-17.1,13.5c0.1-0.6,0.1-1.3,0.1-2c5-1,8.6-5.4,8.7-10.6v-8.6
		c0-1.2-1-2.2-2.2-2.2c-2.6,0-5.2,1-7.1,2.8c-0.6-2.5-1.5-4.9-2.8-7.1l1.3-2.9c0.8-1.9,2.8-3,4.9-2.7c4.8,0.8,9.4-2.5,10.2-7.3
		c0.1-0.5,0.1-1,0.1-1.4v-4c0-5.4,2.6-10.5,6.9-13.7l0.9-0.7c1-0.7,1.1-2.1,0.4-3c-0.4-0.5-1-0.9-1.7-0.9c-8.1,0-15.5,4.5-19.2,11.8
		c-0.5,1.1-0.1,2.4,1,2.9c1,0.5,2.3,0.1,2.9-0.9l0,0c1.8-3.6,4.9-6.5,8.7-8.1c-2.7,3.7-4.1,8.1-4.1,12.7v4c0,2.5-2,4.5-4.5,4.5
		c-0.2,0-0.5,0-0.7-0.1c-4-0.7-8,1.5-9.6,5.2l-2.2,5c-0.8,1.9-3,2.7-4.9,1.9c-1.8-0.8-2.7-2.9-2-4.8l2.4-5.9c2-5,7.2-7.8,12.4-6.7
		c1.2,0.3,2.3-0.4,2.6-1.6c0.3-1.2-0.4-2.3-1.6-2.6c0,0-0.1,0-0.1,0c-6.9-1.4-13.8,2.1-16.8,8.4c-2.4-0.6-5,0-7,1.5
		c-1.5,1.1-3.5,1.1-4.9,0c-2-1.6-4.6-2.1-7-1.5c-2.7-5.6-8.5-9-14.7-8.6l-0.2-0.7C53.9,22.7,45.3,16,35.4,16c-1.2,0-2.2,1-2.2,2.2
		c0,0.7,0.3,1.3,0.9,1.7l0.9,0.7c4.3,3.3,6.9,8.3,6.9,13.7v4c0,4.9,4,8.8,8.9,8.8c0.5,0,1,0,1.4-0.1c2.1-0.3,4.1,0.8,4.9,2.7
		l1.3,2.9c-1.3,2.2-2.2,4.6-2.8,7.1C53.5,58,51,57,48.3,57c-1.2,0-2.2,1-2.2,2.2v8.6c0,5.1,3.6,9.5,8.6,10.6v0.2
		c0,0.6,0,1.2,0.1,1.7c-7.3-1.9-13.5-6.8-17.1-13.5c3-1.8,4-5.8,2.2-8.8c-0.9-1.4-2.2-2.4-3.8-2.9L36,54.5c-0.9-3.7-0.4-7.7,1.6-11
		l2.9-4.8c0.6-1,0.3-2.3-0.7-3c-0.6-0.4-1.3-0.4-2-0.1l-3,1.3C27.6,40,23,47.3,23.5,55.2c-3.3,1.3-5,5.1-3.7,8.4
		c1,2.5,3.3,4.1,6,4.1h7.6c4.3,8.9,12.5,15.2,22.2,17.1c1.1,4.6,3.5,8.8,6.9,12.1c1.5,1.5,3.3,2.8,5.1,3.9c-0.4,3.2-3.1,5.7-6.4,5.7
		h-6.5c-10.7,0-19.4,8.7-19.4,19.4v17.2c0,1.2,1,2.1,2.2,2.1c1.2,0,2.1-1,2.1-2.1v-17.2c0-8.3,6.8-15.1,15.1-15.1h6.5
		c4.9,0,9.2-3.3,10.4-8.1c2.9,1.1,5.9,1.6,9,1.6h0.5C92.7,104,102.6,96.1,105.6,84.9z M133.6,54.8h-3.9c0.8-4,0.3-8.2-1.4-11.9
		C131.8,45.8,133.8,50.2,133.6,54.8z M126.9,59.1h8.6c1.2,0,2.1,1,2.1,2.2c0,1.2-1,2.1-2.1,2.1h-8.6c-1.2,0-2.2-0.9-2.2-2.1
		C124.7,60.1,125.7,59.1,126.9,59.1C126.9,59.1,126.9,59.1,126.9,59.1z M33.1,42.9c-1.8,3.7-2.3,7.9-1.4,11.9h-3.9
		C27.5,50.2,29.5,45.8,33.1,42.9z M23.6,61.3c0-1.2,1-2.2,2.2-2.2h8.6c1.2,0,2.1,1,2.1,2.2c0,1.2-1,2.1-2.1,2.1h-8.6
		C24.6,63.4,23.6,62.5,23.6,61.3z M110.9,61.6v6.1c0,2.7-1.7,5.2-4.3,6.1v-6.1C106.6,65,108.3,62.6,110.9,61.6L110.9,61.6z
		 M52.9,42.6c-0.5,0-1,0-1.5,0.1c-2.5,0.4-4.8-1.2-5.2-3.7c0-0.2-0.1-0.5-0.1-0.7v-4c0-4.5-1.5-9-4.1-12.6c5,2.1,8.7,6.4,10,11.7
		l0.6,2.6c0.3,1.1,1.4,1.8,2.5,1.6c5.2-1,10.5,1.8,12.4,6.7l2.4,5.9c0.8,1.9-0.2,4.1-2.1,4.8c-1.9,0.7-4-0.1-4.8-2L61,48
		C59.6,44.7,56.4,42.6,52.9,42.6L52.9,42.6z M50.5,67.7v-6.1c2.6,0.9,4.3,3.4,4.3,6.1v6.1C52.2,72.9,50.5,70.5,50.5,67.7L50.5,67.7z
		 M81.1,100.1c-11.9,0.2-21.7-9.2-21.9-21.1c0,0,0,0,0,0c0-0.1,0-0.3,0-0.4V65.6c0-2.9,0.6-5.8,1.7-8.4c1.5,1.5,3.5,2.4,5.7,2.4
		c4.5,0,8.1-3.6,8.1-8.1c0-1-0.2-2-0.6-3l0,0l-1.1-2.8c0.9-0.1,1.9,0.2,2.6,0.8c3,2.4,7.3,2.4,10.3,0c0.7-0.6,1.7-0.9,2.6-0.8
		l-1.1,2.8c-1.6,4.1,0.4,8.8,4.5,10.5c0.9,0.4,2,0.6,3,0.6c2.1,0,4.2-0.9,5.7-2.4c1.1,2.7,1.7,5.5,1.7,8.4v12.2
		C102.4,89.7,93,99.6,81.1,100.1L81.1,100.1z"/>
	<path class="st0" d="M95.4,65.6c-2.4,0.4-8.3,1.7-10.3,3.6c-2.5,2.5-2.5,6.6,0,9.1c0,0,0,0,0,0l0,0c0.4,0.4,1,0.6,1.5,0.6
		c5.2,0,9.6-3.5,10.8-8.6c0.3-1.4,0.5-2.3,0.5-2.3c0.2-1.2-0.6-2.3-1.7-2.5C95.9,65.6,95.7,65.6,95.4,65.6L95.4,65.6z M87.7,74.6
		c-0.3-0.8-0.1-1.7,0.5-2.3c1.5-0.8,3.1-1.4,4.7-1.7C92,72.7,90,74.3,87.7,74.6L87.7,74.6z"/>
	<path class="st0" d="M76.3,78.4c2.5-2.5,2.5-6.6,0-9.1c0,0,0,0,0,0l0,0c-1.9-1.9-7.8-3.2-10.3-3.6c-1.2-0.2-2.3,0.6-2.5,1.7
		c0,0.3,0,0.5,0,0.8c0,0,0.2,1,0.5,2.3c1.1,5,5.6,8.6,10.8,8.6C75.3,79,75.9,78.8,76.3,78.4z M73.7,74.6c-2.3-0.4-4.3-1.9-5.2-4.1
		c1.6,0.3,3.2,0.9,4.7,1.7C73.8,72.9,74,73.8,73.7,74.6L73.7,74.6z"/>
	<path class="st0" d="M92.5,83.1c-0.7-0.4-1.5-0.4-2.2,0c-5.9,3.6-13.4,3.6-19.3,0c-1-0.6-2.3-0.3-3,0.7c-0.2,0.3-0.3,0.7-0.3,1.1
		v4.3c0,1.2,1,2.1,2.2,2.1c1.2,0,2.1-1,2.1-2.1v-0.8c5.5,2.2,11.7,2.2,17.2,0v0.8c0,1.2,1,2.1,2.2,2.1c1.2,0,2.1-1,2.1-2.1V85
		C93.6,84.2,93.2,83.5,92.5,83.1z"/>
	<path class="st0" d="M80.7,64.3c1.4,0,2.7-0.5,3.7-1.5c0.8-0.8,0.8-2.2,0-3.1c-0.8-0.8-2.2-0.8-3.1,0c-0.3,0.3-0.9,0.4-1.3,0
		c0,0,0,0,0,0l0,0c-0.8-0.8-2.2-0.8-3.1,0c-0.8,0.8-0.8,2.2,0,3.1C78,63.8,79.3,64.3,80.7,64.3z"/>
	<circle class="st0" cx="80.7" cy="54.8" r="2.2"/>
	<path class="st0" d="M76.3,108c-0.4-1.1-1.6-1.7-2.7-1.4c-1.1,0.4-1.7,1.6-1.4,2.7l2.2,6.5c0.4,1.1,1.6,1.7,2.7,1.4
		c1.1-0.4,1.7-1.6,1.4-2.7l0,0L76.3,108z"/>
	<path class="st0" d="M87.8,106.7c-1.1-0.4-2.3,0.2-2.7,1.4l-2.2,6.5c-0.4,1.1,0.2,2.4,1.4,2.7c1.1,0.4,2.4-0.2,2.7-1.4l0,0l2.2-6.5
		C89.6,108.2,89,107,87.8,106.7C87.8,106.7,87.8,106.7,87.8,106.7L87.8,106.7z"/>
	<path class="st0" d="M110.2,115.8c-0.9-0.8-2.2-0.8-3.1,0c-2.3,2.3-5.5,3.6-8.7,3.6h-5.6c-4.6,0-8.9,1.9-12.1,5.2
		c-3.1-3.3-7.5-5.2-12.1-5.2H63c-3.3,0-6.4-1.3-8.7-3.6c-0.8-0.9-2.2-0.9-3.1,0c-0.8,0.8-0.9,2.1-0.1,3c0,0,0,0,0,0l0,0l0.1,0.1
		c3.1,3.1,7.4,4.9,11.8,4.9h5.6c4.1,0,8,2.1,10.3,5.5c0.7,1,2,1.3,3,0.6c0.2-0.2,0.4-0.4,0.6-0.6c2.3-3.4,6.2-5.5,10.3-5.5h5.6
		c4.4,0,8.7-1.8,11.8-4.9l0.1-0.1C111,118,111,116.7,110.2,115.8C110.2,115.8,110.2,115.8,110.2,115.8L110.2,115.8z"/>
	<path class="st0" d="M106.6,145.3c-1.2,0-2.2-1-2.2-2.2l0,0v-10.8c0-1.2,1-2.1,2.2-2.1c1.2,0,2.1,1,2.1,2.1v10.8
		C108.7,144.4,107.7,145.3,106.6,145.3z"/>
	<path class="st0" d="M52.7,145.3c-1.2,0-2.2-1-2.2-2.2l0,0v-10.8c0-1.2,1-2.1,2.2-2.1c1.2,0,2.1,1,2.1,2.1v10.8
		C54.8,144.4,53.9,145.3,52.7,145.3z"/>
</g>
</svg>
