<svg xmlns="http://www.w3.org/2000/svg" width="90.066" height="90.078" viewBox="0 0 90.066 90.078"><g transform="translate(-778.067 -173.012)"><g transform="translate(778.067 173.012)"><path d="M825.987,250.22c4.187,0,8.375-.016,12.562.014.8.006.626-.5.627-.929q.007-7.037,0-14.074,0-10.656,0-21.312c0-1.84.45-2.331,2.319-2.283.8.021.928-.26.914-.97-.043-2.211-.02-4.423-.014-6.635,0-1.517.548-2.129,2.049-2.044.992.056,1.195-.253,1.19-1.208-.041-8.511-.021-17.022-.029-25.534,0-.837.044-1.619.913-2.058s1.53.028,2.19.524c3.962,2.979,7.921,5.964,11.9,8.916a2.481,2.481,0,0,1,1.1,2.206c-.031,5.361,0,10.723-.034,16.084-.006.806.149,1.1,1.022,1.066,1.715-.066,2.211.48,2.214,2.187,0,2.178.027,4.357-.009,6.534-.011.662.11.933.859.922,1.942-.029,2.367.432,2.367,2.34q0,23.423,0,46.845c0,1.8-.471,2.274-2.246,2.274q-38.25,0-76.5,0a10.887,10.887,0,0,1-11.236-9.531,6.87,6.87,0,0,1-.078-.8c-.075-1.778.64-2.534,2.421-2.534q19.1,0,38.2,0h1.585a31.869,31.869,0,0,1-14.884-5.355c-10.768-7.541-15.861-17.974-14.1-31,1.818-13.472,9.692-22.508,22.688-26.592,9.677-3.042,18.861-1.354,27.311,4.262a2.213,2.213,0,0,1,1.007,1.08,1.51,1.51,0,0,1-.393,1.66,1.476,1.476,0,0,1-1.757.313,6.72,6.72,0,0,1-.937-.58,28.946,28.946,0,1,0-19.9,52.743A28.519,28.519,0,0,0,833.9,244.9c.279-.112.556-.235.842-.324a1.584,1.584,0,0,1,2.07.893,1.544,1.544,0,0,1-.883,2.072,29.975,29.975,0,0,1-6.591,2.071c-1.114.216-2.243.352-3.366.525Zm16.409-8.069c0,5.594.013,11.189-.016,16.783,0,.725.144.962.924.958q10.351-.05,20.7,0c.774,0,.929-.223.927-.954q-.035-16.732,0-33.465c0-.757-.153-1.014-.974-1.009q-10.3.054-20.6,0c-.814,0-.982.241-.978,1.005C842.41,231.03,842.4,236.591,842.4,242.151Zm-32.177,11.287H782.486c-1.2,0-1.2,0-.817,1.158a7.675,7.675,0,0,0,7.22,5.266c4.12.031,8.24.005,12.359.006q18.489,0,36.977.025c.828,0,1-.26.969-1.013-.055-1.472-.071-2.95,0-4.42.043-.848-.214-1.044-1.046-1.041C828.841,253.449,819.53,253.438,810.219,253.438Zm38.753-75.5c-.085.152-.113.179-.113.206q-.016,11.6-.039,23.2c0,.59.272.63.732.628,2.745-.014,5.491-.027,8.236,0,.614.006.7-.245.7-.769q-.02-7.734,0-15.469a1.016,1.016,0,0,0-.388-.954C855.065,182.525,852.05,180.25,848.972,177.937Zm4.645,43.33c3.482,0,6.963-.012,10.445.011.607,0,.895-.091.871-.8-.055-1.639-.04-3.281-.005-4.921.012-.571-.162-.732-.734-.73q-10.546.028-21.091,0c-.6,0-.722.209-.712.753.029,1.606.044,3.215-.011,4.82-.025.714.195.892.893.885C846.72,221.247,850.169,221.267,853.617,221.267Zm.04-9.656v.005c2.41,0,4.821-.013,7.231.01.556.005.848-.062.827-.743-.051-1.672-.034-3.347-.007-5.021.008-.514-.132-.694-.672-.691q-7.381.028-14.763,0c-.541,0-.679.18-.671.692.027,1.64.038,3.281,0,4.92-.017.644.154.855.827.844C848.836,211.585,851.247,211.61,853.657,211.61Z" transform="translate(-778.067 -173.012)"/><path d="M835.941,188.994a41.235,41.235,0,0,1,17.766,4.022c1.25.593,1.691,1.389,1.278,2.319-.443,1-1.355,1.2-2.65.6a38.323,38.323,0,0,0-44.814,8.712,38.551,38.551,0,0,0,.2,52.592c.159.172.33.335.473.52a1.6,1.6,0,0,1-2.382,2.145,38.34,38.34,0,0,1-3.939-4.688,41.149,41.149,0,0,1-7.821-26.444,41.921,41.921,0,0,1,33.307-38.918A41.188,41.188,0,0,1,835.941,188.994Z" transform="translate(-790.8 -185.78)"/><path d="M899.5,325.018a1.869,1.869,0,0,1,1.4.629q8.566,8.566,17.129,17.134a1.622,1.622,0,1,1-2.254,2.29q-8.612-8.59-17.2-17.2a1.584,1.584,0,0,1-.424-1.916A1.542,1.542,0,0,1,899.5,325.018Z" transform="translate(-873.873 -294.454)"/><path d="M953.906,331.316a1.6,1.6,0,0,1-2.471,1.317,3.65,3.65,0,0,1-.6-.527q-6-6-11.994-12a4.658,4.658,0,0,1-.412-.439,1.6,1.6,0,0,1,2.283-2.221,6.17,6.17,0,0,1,.508.485q5.931,5.926,11.862,11.85A2.072,2.072,0,0,1,953.906,331.316Z" transform="translate(-905.871 -288.071)"/><path d="M905.828,379.194a1.606,1.606,0,0,1-2.257,1.479,2.9,2.9,0,0,1-.859-.68q-5.927-5.931-11.854-11.863a5.207,5.207,0,0,1-.547-.586,1.592,1.592,0,0,1,2.2-2.266,5.115,5.115,0,0,1,.663.611q5.9,5.889,11.794,11.781A2.2,2.2,0,0,1,905.828,379.194Z" transform="translate(-867.442 -326.34)"/></g></g></svg>