<svg xmlns="http://www.w3.org/2000/svg" width="93.087" height="93.349" viewBox="0 0 93.087 93.349"><g transform="translate(-15.011 -12.668)"><path d="M100.183,49.76l2.032,1.38a1.544,1.544,0,0,0,2.146-.411l3.47-5.116a1.544,1.544,0,0,0-.411-2.146l-45-30.533a1.545,1.545,0,0,0-1.735,0l-45,30.534a1.545,1.545,0,0,0-.411,2.146l3.47,5.116a1.544,1.544,0,0,0,2.146.411l2.033-1.381V65.219a3.841,3.841,0,0,0-2.033,2.087C18.3,73.728,15.2,82.167,15.2,85.931c0,5.547,3.229,9.855,7.725,10.666v6.33H15.2v3.09h92.706v-3.09h-7.725ZM20.439,47.716,18.7,45.156,61.555,16.079l42.852,29.077-1.735,2.559L62.424,20.4a1.544,1.544,0,0,0-1.737,0ZM18.293,85.931c0-2.511,1.992-8.877,5.465-17.466a.771.771,0,0,1,1.431,0c3.473,8.589,5.465,14.955,5.465,17.466,0,4.476-2.6,7.725-6.18,7.725S18.293,90.407,18.293,85.931ZM26.018,96.6c4.5-.811,7.725-5.119,7.725-10.666,0-3.764-3.095-12.2-5.692-18.625a3.841,3.841,0,0,0-2.033-2.087V47.664L61.555,23.549,97.093,47.664V77.739l-.26-.389a1.6,1.6,0,0,0-2.571,0l-3.09,4.635a1.545,1.545,0,0,0-.26.856v3.09h-3.09v-3.09a1.554,1.554,0,0,0-.26-.858l-3.09-4.635a1.6,1.6,0,0,0-2.571,0l-3.09,4.635a1.554,1.554,0,0,0-.26.858v3.09h-3.09v-3.09a1.554,1.554,0,0,0-.26-.858l-3.09-4.635a1.6,1.6,0,0,0-2.571,0l-3.09,4.635a1.554,1.554,0,0,0-.26.858v20.086H56.92V73.57a1.544,1.544,0,0,0-1.545-1.545h-17a1.544,1.544,0,0,0-1.545,1.545v29.357H26.018Zm46.353,6.33h-3.09V83.309l1.545-2.318,1.545,2.318Zm3.09-13.906h3.09v3.09h-3.09Zm0,6.18h3.09v7.725h-3.09Zm9.271,7.725h-3.09V83.309l1.545-2.318,1.545,2.318Zm3.09-13.906h3.09v3.09h-3.09Zm0,6.18h3.09v7.725h-3.09ZM53.83,102.927H39.924V75.115H53.83Zm40.173,0V83.309l1.545-2.318,1.545,2.318v19.618Z" transform="translate(0 0)"/><path d="M206.18,173.631h9.271a6.187,6.187,0,0,0,6.18-6.18V158.18a6.187,6.187,0,0,0-6.18-6.18H206.18a6.187,6.187,0,0,0-6.18,6.18v9.271A6.187,6.187,0,0,0,206.18,173.631Zm-3.09-6.18v-3.09h6.18v6.18h-3.09A3.093,3.093,0,0,1,203.09,167.451Zm12.361,3.09h-3.09v-6.18h6.18v3.09A3.093,3.093,0,0,1,215.451,170.541Zm3.09-12.361v3.09h-6.18v-6.18h3.09A3.093,3.093,0,0,1,218.541,158.18Zm-12.361-3.09h3.09v6.18h-6.18v-3.09A3.093,3.093,0,0,1,206.18,155.09Z" transform="translate(-149.26 -112.422)"/><path d="M184,400h3.09v3.09H184Z" transform="translate(-136.351 -312.524)"/></g></svg>