<svg xmlns="http://www.w3.org/2000/svg" width="101.27" height="101.301" viewBox="0 0 101.27 101.301"><g transform="translate(-16 -15.906)"><path d="M16,83.439a8.434,8.434,0,0,0,13.09,7.037l13.629,13.629a8.438,8.438,0,1,0,15.308,6.339H75.245a8.439,8.439,0,1,0,15.307-6.338l7.342-7.342-2.387-2.387-7.342,7.342a8.433,8.433,0,0,0-12.921,5.35H58.027a8.461,8.461,0,0,0-3.633-5.359l.981-2.454L52.241,98l-.98,2.451a8.4,8.4,0,0,0-6.154,1.266L31.478,88.09a8.4,8.4,0,0,0,1.266-6.154l12.578-5.031-1.254-3.134L31.486,78.8a8.46,8.46,0,0,0-5.359-3.633V57.953a8.46,8.46,0,0,0,5.359-3.633l12.581,5.032,1.254-3.134L32.742,51.186a8.4,8.4,0,0,0-1.266-6.154L41.982,34.525,39.6,32.138,29.09,42.645a8.438,8.438,0,1,0-6.338,15.308V75.171A8.453,8.453,0,0,0,16,83.439Zm67.513,20.254a5.063,5.063,0,1,1-5.064,5.064A5.063,5.063,0,0,1,83.513,103.693Zm-33.757,0a5.063,5.063,0,1,1-5.063,5.064A5.063,5.063,0,0,1,49.757,103.693ZM19.376,49.682a5.063,5.063,0,1,1,5.063,5.064A5.063,5.063,0,0,1,19.376,49.682Zm5.063,28.693a5.063,5.063,0,1,1-5.063,5.064A5.063,5.063,0,0,1,24.439,78.375ZM117.27,49.682a8.434,8.434,0,0,0-13.09-7.037L90.551,29.016a8.438,8.438,0,1,0-15.307-6.339H58.027a8.448,8.448,0,1,0-6.766,9.99l.98,2.451,3.134-1.254-.983-2.453a8.46,8.46,0,0,0,3.634-5.359H75.245a8.461,8.461,0,0,0,3.633,5.359l-1.657,4.142,3.134,1.254,1.656-4.139A8.4,8.4,0,0,0,88.165,31.4l13.629,13.629a8.4,8.4,0,0,0-1.266,6.154L87.95,56.216,89.2,59.35l12.581-5.032a8.461,8.461,0,0,0,5.359,3.635V75.171a8.46,8.46,0,0,0-5.359,3.633L96.8,76.809l-1.254,3.134,4.983,1.993a8.4,8.4,0,0,0,1.266,6.154l-3.333,3.333,2.387,2.387,3.333-3.333a8.438,8.438,0,1,0,6.338-15.308V57.953A8.454,8.454,0,0,0,117.27,49.682ZM49.757,29.428a5.063,5.063,0,1,1,5.063-5.063A5.063,5.063,0,0,1,49.757,29.428Zm33.757,0a5.063,5.063,0,1,1,5.063-5.063A5.063,5.063,0,0,1,83.513,29.428Zm30.381,54.011a5.063,5.063,0,1,1-5.063-5.064A5.063,5.063,0,0,1,113.894,83.439Zm-5.063-28.693a5.063,5.063,0,1,1,5.063-5.064A5.063,5.063,0,0,1,108.831,54.746ZM51.444,51.37V90.19a3.38,3.38,0,0,0,3.376,3.376H73.386v3.376H54.82a6.759,6.759,0,0,1-6.751-6.751V51.37Zm38.82,40.508V73.432a6.707,6.707,0,0,0-1.977-4.774L85.2,65.572v12.1l2.881,2.881L85.7,82.945,82.32,79.569l-5.7-5.7a1.893,1.893,0,1,0-2.676,2.677l5.7,5.7a1.688,1.688,0,0,1,.211,2.13,8.819,8.819,0,0,0-.549,8.816L79.96,94.5a1.686,1.686,0,0,1,.178.755v1.688H76.762V95.652l-.476-.952a12.205,12.205,0,0,1,.05-10.988L71.554,78.93A5.268,5.268,0,0,1,79,71.479L81.825,74.3V44.619a3.38,3.38,0,0,0-3.376-3.376h-4.02l-1.221,2.443a1.688,1.688,0,0,1-1.51.933H61.571a1.688,1.688,0,0,1-1.51-.933l-1.221-2.443H54.82a3.38,3.38,0,0,0-3.376,3.376v3.376H48.069V44.619a6.759,6.759,0,0,1,6.751-6.751H78.45A6.759,6.759,0,0,1,85.2,44.619V60.8l5.473,5.473a10.061,10.061,0,0,1,2.966,7.161V91.878ZM63.259,86.815h6.751V90.19H63.259ZM70.5,66.066a5.479,5.479,0,0,0-7.74,0l-2.387-2.387a8.859,8.859,0,0,1,12.514,0Zm5.064-4.244a12.634,12.634,0,0,0-17.867,0h0l-2.387-2.387a16.028,16.028,0,0,1,22.641,0Zm-7.246,9.8V75H64.947V71.624Zm-10.127,0h3.376V75H58.2Z" transform="translate(0 0)"/></g></svg>