<svg xmlns="http://www.w3.org/2000/svg" width="108.989" height="79.913" viewBox="0 0 108.989 79.913"><g transform="translate(0 -68.296)"><g transform="translate(0 68.296)"><path d="M54.494,68.3C24.446,68.3,0,83.385,0,101.933c0,13.818,13.208,25.943,33.723,31.087a21.8,21.8,0,0,0,41.543,0c20.515-5.144,33.723-17.269,33.723-31.087C108.989,83.385,84.542,68.3,54.494,68.3ZM37.132,121.075l6.463,2.158v6.379l-6.463,2.158A18.136,18.136,0,0,1,37.132,121.075Zm17.362-32.8c17.589,0,32.911,5.571,37.056,13.34-2.579,5.023-9.656,9.415-19.527,11.9a21.721,21.721,0,0,0-35.058,0c-9.871-2.485-16.948-6.877-19.527-11.9C21.583,93.848,36.905,88.277,54.494,88.277ZM16.41,96.84c.665-9.62,17.805-17.645,38.084-17.645S91.914,87.22,92.579,96.84c-6.556-7.342-21.191-12.2-38.084-12.2S22.966,89.5,16.41,96.84Zm30.82,33.253V122.77a1.642,1.642,0,0,0,.107-.2v-.034l3.27-3.27h.034a1.685,1.685,0,0,0,.182-.107h7.346a1.692,1.692,0,0,0,.182.107h.034l3.27,3.27v.034a1.7,1.7,0,0,0,.107.2v7.324a1.692,1.692,0,0,0-.107.182v.034l-3.27,3.268h-.033a1.687,1.687,0,0,0-.182.107H50.821a1.692,1.692,0,0,0-.182-.107h-.033l-3.27-3.27v-.034A1.583,1.583,0,0,0,47.23,130.093Zm-1.442-19.605,2.116,6.34-3.01,3.01-6.341-2.118A18.3,18.3,0,0,1,45.788,110.487Zm3.356-1.422a18.144,18.144,0,0,1,10.7,0l-2.158,6.46H51.3Zm11.933,7.762,2.116-6.341a18.3,18.3,0,0,1,7.239,7.233h0l-6.341,2.118ZM45.792,142.361a18.3,18.3,0,0,1-7.235-7.233L44.9,133.01l3.01,3.01Zm3.353,1.42,2.158-6.46h6.383l2.158,6.46A18.144,18.144,0,0,1,49.145,143.782Zm14.052-1.42-2.116-6.341,3.01-3.01,6.341,2.118A18.305,18.305,0,0,1,63.2,142.361Zm8.656-10.59-6.459-2.158v-6.379l6.459-2.158A18.135,18.135,0,0,1,71.853,131.771Zm4.267-2.732A21.189,21.189,0,0,0,74,116.76c13.8-3.727,22.27-11.022,22.27-19.356,0-12.247-18.347-21.841-41.779-21.841S12.715,85.156,12.715,97.4c0,8.334,8.472,15.622,22.27,19.356a21.19,21.19,0,0,0-2.107,12.279c-17.605-4.906-29.245-15.574-29.245-27.105,0-16.545,22.817-30,50.861-30s50.861,13.46,50.861,30C105.356,113.465,93.716,124.133,76.119,129.039Z" transform="translate(0 -68.296)"/></g></g></svg>