<?xml version="1.0" encoding="utf-8"?>
<!-- Generator: Adobe Illustrator 22.0.1, SVG Export Plug-In . SVG Version: 6.00 Build 0)  -->
<svg version="1.1" id="Layer_1" xmlns="http://www.w3.org/2000/svg" xmlns:xlink="http://www.w3.org/1999/xlink" x="0px" y="0px"
	 viewBox="0 0 130 130" style="enable-background:new 0 0 130 130;" xml:space="preserve">
<style type="text/css">
	.st0{fill:#FD2E3D;}
</style>
<path class="st0" d="M117.3,11.2h-12.1V7.6c0-4.2-3.4-7.6-7.6-7.6C93.4,0,90,3.4,90,7.6v3.6H47.3V7.6c0-4.2-3.4-7.6-7.6-7.6
	s-7.6,3.4-7.6,7.6v3.6c-0.2-0.1-0.4-0.1-0.7-0.1H21.3c-7,0-12.7,5.7-12.7,12.7v43.2c0,1.4,1.1,2.5,2.5,2.5s2.5-1.1,2.5-2.5
	c0,0,0,0,0,0V37.3h91.5c1.4,0,2.5-1.1,2.5-2.5c0-1.4-1.1-2.5-2.5-2.5H13.7v-8.4c0-4.2,3.4-7.6,7.6-7.6h10.1c0.2,0,0.5,0,0.7-0.1v3.3
	c0,4.2,3.4,7.6,7.6,7.6s7.6-3.4,7.6-7.6v-3.2H90v3.2c0,4.2,3.4,7.6,7.6,7.6c4.2,0,7.6-3.4,7.6-7.6v-3.2h12.1c4.2,0,7.6,3.4,7.6,7.6
	v96.5c0,2.5-2,4.6-4.6,4.6c-2.5,0-4.6-2-4.6-4.6c0,0,0,0,0,0v-6.6c0-1.4-1.1-2.5-2.5-2.5l0,0H83.7c-1.4,0-2.5,1.1-2.5,2.5
	s1.1,2.5,2.5,2.5h27v4c0,1.6,0.4,3.2,1.2,4.6H9.6c-2.5,0-4.6-2-4.6-4.6v-4h56.8c1.4,0,2.5-1.1,2.5-2.5s-1.1-2.5-2.5-2.5H36.5
	c8.7-7.5,9.7-20.6,2.2-29.4s-20.6-9.7-29.4-2.2s-9.7,20.6-2.2,29.4c0.7,0.8,1.4,1.5,2.2,2.2H2.5c-1.4,0-2.5,1.1-2.5,2.5c0,0,0,0,0,0
	v6.6c0,5.3,4.3,9.6,9.6,9.6h110.7c5.3,0,9.6-4.3,9.7-9.7V23.9C130,16.9,124.3,11.2,117.3,11.2z M42.2,19.4c0,1.4-1.1,2.5-2.5,2.5
	c-1.4,0-2.5-1.1-2.5-2.5V7.6c0-1.4,1.1-2.5,2.5-2.5c1.4,0,2.5,1.1,2.5,2.5V19.4z M100.1,19.4c0,1.4-1.1,2.5-2.5,2.5S95,20.8,95,19.4
	V7.6c0-1.4,1.1-2.5,2.5-2.5s2.5,1.1,2.5,2.5V19.4z M7.2,95.5c0-8.7,7-15.7,15.7-15.7s15.7,7,15.7,15.7c0,8.7-7,15.7-15.7,15.7h0
	C14.3,111.2,7.2,104.2,7.2,95.5z"/>
<g transform="translate(114.573 32.246)">
	<path class="st0" d="M4.3,0.7c-1-1-2.6-1-3.6,0c-1,1-1,2.6,0,3.6c1,1,2.6,1,3.6,0c0.5-0.5,0.7-1.1,0.7-1.8C5.1,1.9,4.8,1.2,4.3,0.7
		z"/>
</g>
<g transform="translate(71.495 111.244)">
	<path class="st0" d="M4.3,0.7c-1-1-2.6-1-3.6,0c-1,1-1,2.6,0,3.6c1,1,2.6,1,3.6,0c0.5-0.5,0.7-1.1,0.7-1.8C5.1,1.9,4.8,1.2,4.3,0.7
		z"/>
</g>
<g transform="translate(47.797 77.188)">
	<path class="st0" d="M9.6,0C4.3,0,0,4.3,0,9.6c0,5.3,4.3,9.6,9.6,9.6c5.3,0,9.6-4.3,9.6-9.6C19.3,4.3,15,0,9.6,0z M9.6,14.2
		c-2.5,0-4.6-2-4.6-4.6s2-4.6,4.6-4.6c2.5,0,4.6,2,4.6,4.6C14.2,12.2,12.2,14.2,9.6,14.2z"/>
</g>
<g transform="translate(71.494 77.188)">
	<path class="st0" d="M9.6,0C4.3,0,0,4.3,0,9.6c0,5.3,4.3,9.6,9.6,9.6c5.3,0,9.6-4.3,9.6-9.6C19.3,4.3,15,0,9.6,0z M9.6,14.2
		c-2.5,0-4.6-2-4.6-4.6c0-2.5,2-4.6,4.6-4.6c2.5,0,4.6,2,4.6,4.6C14.2,12.2,12.2,14.2,9.6,14.2z"/>
</g>
<g transform="translate(95.192 77.188)">
	<path class="st0" d="M9.6,0C4.3,0,0,4.3,0,9.6c0,5.3,4.3,9.6,9.6,9.6c5.3,0,9.6-4.3,9.6-9.6C19.3,4.3,15,0,9.6,0z M9.6,14.2
		c-2.5,0-4.6-2-4.6-4.6c0-2.5,2-4.6,4.6-4.6c2.5,0,4.6,2,4.6,4.6C14.2,12.2,12.2,14.2,9.6,14.2z"/>
</g>
<g transform="translate(24.099 50.781)">
	<path class="st0" d="M9.6,0C4.3,0,0,4.3,0,9.6c0,5.3,4.3,9.6,9.6,9.6c5.3,0,9.6-4.3,9.6-9.6l0,0C19.3,4.3,15,0,9.6,0z M9.6,14.2
		c-2.5,0-4.6-2-4.6-4.6c0-2.5,2-4.6,4.6-4.6s4.6,2,4.6,4.6C14.2,12.2,12.2,14.2,9.6,14.2z"/>
</g>
<g transform="translate(71.494 50.781)">
	<path class="st0" d="M9.6,0C4.3,0,0,4.3,0,9.6c0,5.3,4.3,9.6,9.6,9.6c5.3,0,9.6-4.3,9.6-9.6C19.3,4.3,15,0,9.6,0z M9.6,14.2
		c-2.5,0-4.6-2-4.6-4.6c0-2.5,2-4.6,4.6-4.6c2.5,0,4.6,2,4.6,4.6C14.2,12.2,12.2,14.2,9.6,14.2z"/>
</g>
<g transform="translate(95.192 50.781)">
	<path class="st0" d="M9.6,0C4.3,0,0,4.3,0,9.6c0,5.3,4.3,9.6,9.6,9.6c5.3,0,9.6-4.3,9.6-9.6C19.3,4.3,15,0,9.6,0z M9.6,14.2
		c-2.5,0-4.6-2-4.6-4.6c0-2.5,2-4.6,4.6-4.6c2.5,0,4.6,2,4.6,4.6C14.2,12.2,12.2,14.2,9.6,14.2z"/>
</g>
<g transform="translate(47.797 50.781)">
	<path class="st0" d="M9.6,0C4.3,0,0,4.3,0,9.6c0,5.3,4.3,9.6,9.6,9.6c5.3,0,9.6-4.3,9.6-9.6c0,0,0,0,0,0C19.3,4.3,15,0,9.6,0z
		 M9.6,14.2c-2.5,0-4.6-2-4.6-4.6s2-4.6,4.6-4.6s4.6,2,4.6,4.6C14.2,12.2,12.2,14.2,9.6,14.2z"/>
</g>
<g transform="translate(12.999 88.537)">
	<path class="st0" d="M19,0.7c-1-1-2.6-1-3.6,0c0,0,0,0,0,0L7.2,9L4.3,6.2c-1-1-2.6-1-3.6,0c-1,1-1,2.6,0,3.6l0,0l4.6,4.6
		c1,1,2.6,1,3.6,0c0,0,0,0,0,0L19,4.3C20,3.3,20,1.7,19,0.7C19,0.7,19,0.7,19,0.7z"/>
</g>
</svg>
