<?xml version="1.0" encoding="utf-8"?>
<!-- Generator: Adobe Illustrator 22.0.1, SVG Export Plug-In . SVG Version: 6.00 Build 0)  -->
<svg version="1.1" id="Layer_1" xmlns="http://www.w3.org/2000/svg" xmlns:xlink="http://www.w3.org/1999/xlink" x="0px" y="0px"
	 viewBox="0 0 104.8 130.6" style="enable-background:new 0 0 104.8 130.6;" xml:space="preserve">
<style type="text/css">
	.st0{fill:#FD2E3D;}
</style>
<g transform="translate(-50.443 0)">
	<g transform="translate(50.443 0)">
		<path class="st0" d="M50.1,42.5c-1.4,0-2.6,1.1-2.6,2.6l0,0c0,0.3-0.2,0.5-0.5,0.5c-1.4,0-2.6,1.1-2.6,2.6s1.1,2.6,2.6,2.6
			c3.1,0,5.6-2.5,5.6-5.6C52.7,43.7,51.5,42.5,50.1,42.5L50.1,42.5L50.1,42.5z"/>
		<g transform="translate(0 0)">
			<path class="st0" d="M101,99.9c-1.3-0.5-2.8,0.1-3.3,1.4c0,0,0,0,0,0c-6,14.5-23.6,24.2-43.8,24.2c-1.2,0-2.5,0-3.7-0.1l1.8-11.6
				c0.6,0,1.2,0,1.9,0c7.9,0.1,15.6-2.3,22.1-6.8c6.2-4.6,9.5-10.7,9.5-17.3c0-1.4-1.1-2.6-2.6-2.6s-2.6,1.1-2.6,2.6
				c0,6.8-5,12.7-12.5,16.1C67,97.5,60.6,91,52.4,90c-0.8-0.1-1.5-0.4-2-1c-1.3-1.3-1.3-3.5,0-4.8c0.3-0.3,0.7-0.6,1.2-0.8l4.7-1.8
				c6.2-2.4,11.4-7,14.4-13c1.4-2.7,2.3-5.6,2.6-8.7c11.5,4,20.5,11.7,24.4,20.8c0.5,1.3,2,1.9,3.3,1.4c1.3-0.5,1.9-2,1.4-3.3
				c-2.6-6-6.7-11.2-11.9-15.2c-2.9-2.3-6-4.2-9.3-5.8c3.8-6.4,5.2-13.8,4.1-21.1c-1.4-9.1-5.7-17.5-12.3-24C66,5.6,57,1.2,47.2,0.1
				C37.6-0.7,29,2.2,22.8,8.4C14.2,17,12,30.4,17,43.2C6.4,44.4-1.1,54,0.1,64.6c0.7,5.9,4.1,11.2,9.2,14.2C9,83.9,9.4,89,10.7,93.9
				c-5.2,3.1-6.8,9.8-3.7,15c3.1,5.1,9.7,6.8,14.8,3.8c3,2.7,6.4,4.9,10.1,6.6c0.1,1.2,0.4,2.5,0.9,3.6c1.4,3.2,4.3,5.6,7.8,6.3
				c4.4,0.9,8.8,1.4,13.3,1.3c10.5,0.1,20.9-2.5,30.1-7.6c8.7-4.9,15.1-11.8,18.4-19.7C102.9,102,102.3,100.5,101,99.9
				C101,99.9,101,99.9,101,99.9z M26.4,12c5.1-5.1,12.3-7.5,20.3-6.8c8.6,0.9,16.6,4.8,22.6,11c11.7,11.7,14.5,28.3,7.1,39.4
				c-1.1-0.4-2.2-0.8-3.4-1.2c-1-3-3.6-5.2-6.7-5.7c2.6-6.9,0.9-14.7-4.4-20l-0.7-0.7c-4.3-4.3-10.9-5.2-16.2-2.3
				c-1.3,0.7-2.7,1.1-4.1,1.1h-6.1c-1.4,0-2.5,1.1-2.6,2.5c0,0.2,0,0.4,0.1,0.7c1.3,5-0.1,10.3-3.8,13.9c0,0-0.9,0.9-0.9,1
				c-1.6-0.8-3.4-1.4-5.2-1.7C17.3,31.8,18.8,19.6,26.4,12z M38,58c5.5,3.6,12.4,4.1,18.3,1.4c-1.4,4.8-7,9.1-14.5,10.8
				c-1.8,0.4-3.7,0.9-5.7,1.5C38.4,67.6,39.1,62.7,38,58L38,58z M38.7,52l-5.4-5.4c3.5-4,5.1-9.3,4.7-14.6h3c2.3,0,4.6-0.6,6.6-1.7
				c3.3-1.8,7.4-1.2,10.1,1.4l0.7,0.7c5.4,5.4,5.4,14.2,0,19.6S44.1,57.4,38.7,52L38.7,52L38.7,52z M5.1,62.3
				c0-7.8,6.3-14.2,14.1-14.2c7.7,0,14.1,6.2,14.2,13.9c-0.3,0.6-1,0.9-1.7,0.7c-1.4-0.4-2.8,0.4-3.2,1.7c-0.4,1.4,0.4,2.8,1.7,3.2
				c0.6,0.2,1.2,0.3,1.8,0.3c0,0,0.1,0,0.1,0c-3.1,7.2-11.4,10.5-18.6,7.4C8.5,73.1,5.1,68,5.1,62.3z M16.3,109.1
				c-3.2,0-5.8-2.6-5.8-5.8s2.6-5.8,5.8-5.8c3.2,0,5.8,2.6,5.8,5.8C22.1,106.5,19.5,109.1,16.3,109.1L16.3,109.1z M33.3,112.9
				c-0.2,0.4-0.4,0.8-0.6,1.2c-2.6-1.3-5.1-2.9-7.2-4.9c3.3-5.1,1.8-11.8-3.3-15.1c-1.8-1.1-3.8-1.7-5.9-1.7c-0.3,0-0.5,0-0.8,0
				c-0.9-3.7-1.3-7.6-1.2-11.5c3.9,1,8.1,0.8,11.9-0.7c5.4-2,11-3.7,16.7-5c4.9-1,9.5-3.3,13.2-6.6c3.7-3.4,5.6-7.4,5.6-11.6
				c0-1.8,1.5-3.3,3.3-3.3c0,0,0,0,0,0c1.8,0.1,3.2,1.6,3.2,3.4c0,3.2-0.8,6.3-2.2,9.2c-2.5,4.8-6.7,8.6-11.7,10.5l-4.7,1.8
				c-4.4,1.7-6.5,6.6-4.8,11c0.4,1.1,1.1,2.1,1.9,2.9c1.3,1.3,3.1,2.2,5,2.4c6.3,0.8,11.1,6.1,11.2,12.5c-5.7,1.5-11.7,1.5-17.5,0.2
				C40.7,106.5,35.8,108.7,33.3,112.9L33.3,112.9z M45.1,124.8c-1.2-0.2-2.3-0.4-3.5-0.6c-3.2-0.7-5.3-3.8-4.6-7
				c0.1-0.6,0.4-1.2,0.7-1.8c1.3-2.3,4-3.4,6.5-2.8c0.9,0.2,1.8,0.4,2.7,0.5L45.1,124.8z"/>
			<path class="st0" d="M26.3,80.2"/>
		</g>
		<path class="st0" d="M102.3,88.6c-1.4,0-2.5,1.1-2.5,2.5c0,1.4,1.1,2.6,2.5,2.6h0c1.4,0,2.5-1.1,2.5-2.6S103.7,88.6,102.3,88.6
			L102.3,88.6z"/>
	</g>
</g>
</svg>
