<svg xmlns="http://www.w3.org/2000/svg" viewBox="0 0 1118.673 194.084"  xmlns:v="https://vecta.io/nano"><g fill="#fff"><path d="M352.062 15.035l-.424 13.886-11.872-7.42z"/><path d="M7,3.725,3.643,9h6.713L7,3.725M7,0l7,11H0Z" transform="matrix(.848 .53 -.53 .848 28.801 166.174)"/><path d="M7,3.725,3.643,9h6.713L7,3.725M7,0l7,11H0Z" transform="matrix(.848 .53 -.53 .848 1106.801 11.174)"/></g><path d="M1 1h10v10H1z" transform="matrix(.848 -.53 .53 .848 1006.563 176.788)" fill="none" stroke="#fff" stroke-width="2"/><g fill="#fff"><path d="M0 33.788l10.176-6.36 6.36 10.176-10.176 6.36z"/><path d="M2.176,17a11.231,11.231,0,0,0,18.992,5.94A11.148,11.148,0,0,0,24.281,17H2.176M0,15H26.457A13.229,13.229,0,1,1,0,15Z" transform="matrix(.875 -.485 .485 .875 470.291 169.394)"/><path d="M750.569 8.893a12.8 12.8 0 0 1 21.596 5.964 12.8 12.8 0 0 1-3.811 12.435z"/></g></svg>