<svg xmlns="http://www.w3.org/2000/svg" width="229.252" height="221.925" viewBox="0 0 229.252 221.925"><g transform="translate(-47.994 -58.5)"><g transform="translate(82.666 58.5)"><g transform="translate(0)"><g transform="translate(0 0.125)"><g transform="translate(0 1.601)"><path d="M164.456,65.45l-54.021,70.172L255.713,99.508,174.8,62.848A8.565,8.565,0,0,0,164.456,65.45Z" transform="translate(-109.674 -61.776)" fill="#ebebeb"/><path d="M109.094,135.885l54.545-70.853a8.825,8.825,0,0,1,10.7-2.692l81.7,37.015Zm61.57-73.744a8.228,8.228,0,0,0-6.55,3.256h0l-53.5,69.492,143.608-35.7-80.131-36.3A8.3,8.3,0,0,0,170.664,62.141Z" transform="translate(-109.094 -61.542)" fill="#e0e0e0"/></g><g transform="translate(0.761 39.207)"><path d="M0,0H150.219a0,0,0,0,1,0,0V76.785A10.705,10.705,0,0,1,139.513,87.49H10.705A10.705,10.705,0,0,1,0,76.785V0A0,0,0,0,1,0,0Z" transform="translate(0 36.239) rotate(-13.96)" fill="#f0f0f0"/></g><g transform="translate(1.76)"><path d="M248,102.254l-50.5,51.6-76.357-17.182-8.734-40.49a8.168,8.168,0,0,1,5.987-9.769l110.43-27.451a8.168,8.168,0,0,1,9.9,5.957Z" transform="translate(-112.195 -58.72)" fill="#fff"/></g><g transform="translate(20.157 88.907)"><path d="M204.587,217.562l-59.972,62.676h0a6.684,6.684,0,0,0,8.1,4.873l132.96-33.069a6.683,6.683,0,0,0,4.872-8.1l-.124-.5L212,215.793A7.026,7.026,0,0,0,204.587,217.562Z" transform="translate(-144.615 -215.393)" fill="#e0e0e0"/></g><g transform="translate(17.765 33.681)"><rect width="44.521" height="4.548" transform="translate(0 10.745) rotate(-13.967)" fill="#e0e0e0"/></g><g transform="translate(20.545 31.764)"><rect width="98.776" height="5.134" transform="translate(0 23.841) rotate(-13.967)" fill="#e0e0e0"/></g><g transform="translate(23.574 43.943)"><rect width="98.776" height="5.134" transform="matrix(0.97, -0.241, 0.241, 0.97, 0, 23.84)" fill="#e0e0e0"/></g><g transform="translate(27.068 56.742)"><path d="M251.176,162.035l-3,3-80.468,21.038-10.515-2.461-.4-1.14,95.545-23.763.411,1.652Z" transform="translate(-156.794 -158.712)" fill="#e0e0e0"/></g><g transform="translate(53.533 74.039)"><path d="M250.764,196.186,214.512,205.2l-11.082-2.534,54.178-13.475Z" transform="translate(-203.43 -189.193)" fill="#e0e0e0"/></g><g transform="translate(19.44 93.362)"><path d="M201.852,223.244a1.1,1.1,0,0,1-.138.168l-.428.47-1.671,1.789-6.183,6.541c-5.231,5.513-12.462,13.124-20.509,21.474s-15.411,15.84-20.792,21.209c-2.689,2.685-4.875,4.847-6.4,6.33l-1.756,1.7-.462.438a1.076,1.076,0,0,1-.165.141,1.179,1.179,0,0,1,.142-.164l.44-.459,1.715-1.746,6.327-6.4c5.339-5.407,12.676-12.917,20.723-21.27l20.574-21.409,6.255-6.472,1.713-1.748.451-.449A1.179,1.179,0,0,1,201.852,223.244Z" transform="translate(-143.351 -223.244)" fill="#fafafa"/></g><g transform="translate(91.367 90.736)"><g transform="translate(0 0)"><path d="M344.7,244.839c-.028.081-16.752-5.723-37.348-12.963S270.074,218.7,270.1,218.617s16.749,5.722,37.352,12.964S344.728,244.758,344.7,244.839Z" transform="translate(-270.102 -218.617)" fill="#fafafa"/></g></g><g transform="translate(91.963 41.05)"><path d="M319.161,131.059a.81.81,0,0,1-.11.141l-.344.394-1.347,1.493-5.008,5.441c-4.248,4.577-10.163,10.857-16.79,17.7s-12.715,12.963-17.156,17.354l-5.282,5.175-1.451,1.392-.383.356a.74.74,0,0,1-.138.113.753.753,0,0,1,.116-.136l.361-.378,1.41-1.433,5.212-5.245c4.4-4.43,10.46-10.568,17.087-17.414s12.564-13.1,16.853-17.637L317.272,133l1.389-1.454.367-.372A.742.742,0,0,1,319.161,131.059Z" transform="translate(-271.153 -131.059)" fill="#fafafa"/></g><g transform="translate(0.761 75.445)"><path d="M187.615,209.588a.945.945,0,0,1-.2-.036l-.586-.135-2.242-.549c-1.945-.488-4.764-1.17-8.253-1.991-6.975-1.652-16.648-3.778-27.338-6.094S128.63,196.3,121.665,194.6c-3.483-.848-6.3-1.563-8.231-2.087l-2.228-.606-.577-.165a1.044,1.044,0,0,1-.194-.066.988.988,0,0,1,.2.036l.585.135,2.242.549c1.944.488,4.764,1.17,8.253,1.991,6.975,1.652,16.648,3.779,27.343,6.1s20.359,4.477,27.324,6.185c3.483.848,6.3,1.563,8.232,2.087l2.228.606.578.165A1.063,1.063,0,0,1,187.615,209.588Z" transform="translate(-110.435 -191.671)" fill="#fafafa"/></g></g><g transform="translate(1.635)"><path d="M247.908,102.159s-.057-.184-.152-.545l-.416-1.608c-.36-1.423-.889-3.508-1.569-6.191l-5.714-22.783q-.451-1.8-.923-3.693-.237-.944-.477-1.908c-.079-.322-.158-.647-.26-.959a6.5,6.5,0,0,0-.344-.932A8.058,8.058,0,0,0,229.5,58.85c-.714.124-1.441.323-2.171.5l-4.453,1.111-9.3,2.318-41.4,10.3-41.41,10.281-9.3,2.305-2.245.556a12.486,12.486,0,0,0-2.154.654A7.516,7.516,0,0,0,115.2,88.02a7.708,7.708,0,0,0-1.479,1.576,8.191,8.191,0,0,0-1,1.879,8.378,8.378,0,0,0-.459,2.039,12.579,12.579,0,0,0,.489,4.052l1.631,7.611c2.07,9.694,3.745,17.539,4.9,22.971.571,2.708,1.015,4.812,1.318,6.248l.335,1.626c.074.367.1.557.1.557s-.051-.185-.135-.55l-.365-1.62-1.375-6.236c-1.183-5.426-2.891-13.264-5-22.948l-1.651-7.606a12.821,12.821,0,0,1-.5-4.127,8.614,8.614,0,0,1,.47-2.1,8.423,8.423,0,0,1,1.025-1.94,7.98,7.98,0,0,1,1.524-1.631,7.771,7.771,0,0,1,1.938-1.18,12.757,12.757,0,0,1,2.195-.672l2.244-.56,9.3-2.318,41.4-10.305,41.4-10.279,9.3-2.305,4.455-1.1c.733-.178,1.448-.375,2.2-.5a8.277,8.277,0,0,1,8.807,4.851,6.754,6.754,0,0,1,.352.961c.1.326.183.649.261.97l.472,1.91q.467,1.89.914,3.7l5.618,22.807c.655,2.689,1.164,4.779,1.512,6.205l.385,1.616C247.872,101.97,247.908,102.159,247.908,102.159Z" transform="translate(-111.976 -58.5)" fill="#e0e0e0"/></g></g></g><g transform="translate(47.994 279.945)"><g transform="translate(0 0.156)"><line x2="229.252" fill="#263238"/></g><path d="M277.246,448.889c0,.086-51.324.156-114.62.156-63.319,0-114.632-.07-114.632-.156s51.313-.156,114.632-.156C225.922,448.733,277.246,448.8,277.246,448.889Z" transform="translate(-47.994 -448.733)" fill="#263238"/></g><g transform="translate(76.28 69.681)"><g transform="translate(56.412 0)"><path d="M221.342,80.731,215.733,85l.273,8.16-5.138-4.08-2.836,2.429L197.249,78.2Z" transform="translate(-197.249 -78.203)" fill="#e8505b"/></g><g transform="translate(70.031 8.539)"><path d="M224,93.25c.009.25,2.382,6.423,2.382,6.423l-5.138-4.08Z" transform="translate(-221.248 -93.25)" fill="#e8505b"/><g opacity="0.3"><path d="M224,93.25c.009.25,2.382,6.423,2.382,6.423l-5.138-4.08Z" transform="translate(-221.248 -93.25)"/></g></g><g transform="translate(56.412 0)"><path d="M197.249,78.2l16.375,8.539,2.382,6.423L215.733,85Z" transform="translate(-197.249 -78.203)" fill="#e8505b"/><path d="M197.249,78.2l16.375,8.539,2.382,6.423L215.733,85Z" transform="translate(-197.249 -78.203)" opacity="0.1"/></g><g transform="translate(59.998 13.174)"><g transform="translate(38.902 96.183)"><path d="M275.03,271.656a7.254,7.254,0,0,1-2.908-.711,7.273,7.273,0,0,1,2.908.711Z" transform="translate(-272.121 -270.915)" fill="#263238"/><g transform="translate(5.817 1.404)"><path d="M284.107,273.862c-.02.083-.426.057-.9-.061s-.851-.28-.83-.363.425-.057.9.06S284.128,273.778,284.107,273.862Z" transform="translate(-282.372 -273.389)" fill="#263238"/></g></g><g transform="translate(24.383)"><path d="M249.452,102.138a10.115,10.115,0,0,1-2.915-.676,5.687,5.687,0,0,1,2.915.676Z" transform="translate(-246.537 -101.419)" fill="#263238"/></g><g transform="translate(30.113 1.717)"><path d="M259.31,105.8a10.117,10.117,0,0,1-2.676-1.341,3.289,3.289,0,0,1,1.428.491C258.807,105.326,259.353,105.73,259.31,105.8Z" transform="translate(-256.633 -104.445)" fill="#263238"/></g><g transform="translate(35.28 4.72)"><path d="M268.01,111.7c-.062.061-.581-.361-1.2-.9s-1.116-.99-1.064-1.06a3.26,3.26,0,0,1,1.268.823C267.642,111.114,268.07,111.643,268.01,111.7Z" transform="translate(-265.738 -109.737)" fill="#263238"/></g><g transform="translate(39.527 8.922)"><path d="M274.877,119.643c-.077.042-.456-.51-.908-1.193a4.494,4.494,0,0,1-.739-1.3c.066-.053.54.436,1,1.133A3.189,3.189,0,0,1,274.877,119.643Z" transform="translate(-273.222 -117.141)" fill="#263238"/></g><g transform="translate(42.408 14.142)"><path d="M279.135,129.221a11.283,11.283,0,0,1-.815-2.879,5.378,5.378,0,0,1,.815,2.879Z" transform="translate(-278.299 -126.341)" fill="#263238"/></g><g transform="translate(43.474 19.99)"><path d="M280.253,139.637a11.349,11.349,0,0,1,.072-2.991,5.357,5.357,0,0,1-.072,2.991Z" transform="translate(-280.179 -136.646)" fill="#263238"/></g><g transform="translate(41.981 25.924)"><path d="M277.563,149.917a4.7,4.7,0,0,1,.422-1.437,4.63,4.63,0,0,1,.594-1.376,5.182,5.182,0,0,1-1.015,2.814Z" transform="translate(-277.547 -147.103)" fill="#263238"/></g><g transform="translate(38.529 31.324)"><path d="M271.469,158.876c-.06-.065.384-.564.921-1.18s.972-1.123,1.045-1.073a3.036,3.036,0,0,1-.81,1.278C272.074,158.532,271.525,158.938,271.469,158.876Z" transform="translate(-271.464 -156.619)" fill="#263238"/></g><g transform="translate(33.525 35.41)"><path d="M262.647,165.218a12.6,12.6,0,0,1,2.65-1.387c.047.07-.48.5-1.222.89A3.105,3.105,0,0,1,262.647,165.218Z" transform="translate(-262.646 -163.82)" fill="#263238"/></g><g transform="translate(27.702 37.667)"><path d="M252.385,168.189a13.177,13.177,0,0,1,2.97-.356,5.042,5.042,0,0,1-2.97.356Z" transform="translate(-252.385 -167.797)" fill="#263238"/></g><g transform="translate(21.859 36.938)"><path d="M242.09,166.529a5.115,5.115,0,0,1,1.451.365,5.03,5.03,0,0,1,1.41.5,2.981,2.981,0,0,1-1.5-.2A2.95,2.95,0,0,1,242.09,166.529Z" transform="translate(-242.088 -166.512)" fill="#263238"/></g><g transform="translate(17.695 32.845)"><path d="M234.773,159.3a11.173,11.173,0,0,1,.813,1.238c.46.663.912,1.154.85,1.221s-.619-.343-1.106-1.043A2.289,2.289,0,0,1,234.773,159.3Z" transform="translate(-234.751 -159.3)" fill="#263238"/></g><g transform="translate(17.885 28.172)"><path d="M237.435,151.091c.024.091-.617.287-1.261.751s-.993,1.029-1.075.987c-.078-.023.171-.729.892-1.24A2.055,2.055,0,0,1,237.435,151.091Z" transform="translate(-235.086 -151.064)" fill="#263238"/></g><g transform="translate(23.175 28.351)"><path d="M246.6,153.357c-.079.044-.442-.515-1.031-1.058s-1.193-.815-1.159-.9a2.03,2.03,0,0,1,1.372.672A2.207,2.207,0,0,1,246.6,153.357Z" transform="translate(-244.408 -151.379)" fill="#263238"/></g><g transform="translate(25.541 33.197)"><path d="M248.595,162.844a554.578,554.578,0,0,1,.557-2.924,3.728,3.728,0,0,1-.557,2.924Z" transform="translate(-248.576 -159.92)" fill="#263238"/></g><g transform="translate(21.67 38.616)"><path d="M241.758,171.43c-.05-.073.465-.5,1.084-1.032s1.109-.981,1.175-.924-.333.616-.972,1.16A3.021,3.021,0,0,1,241.758,171.43Z" transform="translate(-241.755 -169.469)" fill="#263238"/></g><g transform="translate(16.364 42.068)"><path d="M232.407,176.816a7.265,7.265,0,0,1,2.722-1.248,7.265,7.265,0,0,1-2.722,1.248Z" transform="translate(-232.405 -175.552)" fill="#263238"/></g><g transform="translate(11.03 44.558)"><path d="M223.008,181.427c-.048-.071.493-.477,1.209-.906a3.337,3.337,0,0,1,1.4-.568c.042.086-.536.428-1.245.84A3.748,3.748,0,0,1,223.008,181.427Z" transform="translate(-223.005 -179.941)" fill="#263238"/></g><g transform="translate(6.505 47.843)"><path d="M215.038,187.833c-.064-.056.33-.609.925-1.193s1.155-.969,1.21-.9-.406.55-.991,1.126S215.1,187.891,215.038,187.833Z" transform="translate(-215.031 -185.729)" fill="#263238"/></g><g transform="translate(3.071 52.289)"><path d="M208.993,196.116a3.287,3.287,0,0,1,.613-1.38c.436-.711.885-1.22.954-1.17a4.325,4.325,0,0,1-.689,1.333C209.441,195.6,209.07,196.156,208.993,196.116Z" transform="translate(-208.98 -193.563)" fill="#263238"/></g><g transform="translate(0.873 57.557)"><path d="M205.136,205.694a5.683,5.683,0,0,1,.926-2.846,10.142,10.142,0,0,1-.926,2.846Z" transform="translate(-205.107 -202.847)" fill="#263238"/></g><g transform="translate(0 63.342)"><path d="M203.69,216.023a5.58,5.58,0,0,1,.2-2.983,10.365,10.365,0,0,1-.2,2.983Z" transform="translate(-203.568 -213.041)" fill="#263238"/></g><g transform="translate(0.26 69.31)"><path d="M204.67,226.493a3.706,3.706,0,0,1-.471-1.433,2.987,2.987,0,0,1-.122-1.5A4.983,4.983,0,0,1,204.5,225,3.767,3.767,0,0,1,204.67,226.493Z" transform="translate(-204.026 -223.558)" fill="#263238"/></g><g transform="translate(1.865 75.071)"><path d="M208.2,236.391a5.627,5.627,0,0,1-1.332-2.68,4.393,4.393,0,0,1,.764,1.292A4.344,4.344,0,0,1,208.2,236.391Z" transform="translate(-206.855 -233.71)" fill="#263238"/></g><g transform="translate(4.857 80.246)"><path d="M214.071,245.116c-.061.06-.582-.376-1.121-1.012a3.285,3.285,0,0,1-.815-1.271c.07-.052.521.443,1.053,1.069S214.133,245.055,214.071,245.116Z" transform="translate(-212.127 -242.829)" fill="#263238"/></g><g transform="translate(8.987 84.564)"><path d="M221.826,252.211a3.273,3.273,0,0,1-1.327-.721c-.673-.491-1.145-.98-1.09-1.045a4.33,4.33,0,0,1,1.274.793C221.346,251.724,221.872,252.138,221.826,252.211Z" transform="translate(-219.405 -250.438)" fill="#263238"/></g><g transform="translate(14.019 87.781)"><path d="M231.05,257.24a5.586,5.586,0,0,1-2.775-1.117,4.354,4.354,0,0,1,1.428.459A4.408,4.408,0,0,1,231.05,257.24Z" transform="translate(-228.273 -256.108)" fill="#263238"/></g><g transform="translate(19.689 89.512)"><path d="M238.377,259.321c-.015.085-.052.149-.081.144s-.04-.078-.025-.163.052-.149.081-.144S238.392,259.236,238.377,259.321Z" transform="translate(-238.264 -259.158)" fill="#263238"/></g></g><g transform="translate(67.971 85.96)"><g transform="translate(0.002 0.001)"><g transform="translate(0 0)"><rect width="6.53" height="4.062" transform="translate(1.268 0) rotate(18.185)" fill="#e8505b"/></g><g transform="translate(0 0)" opacity="0.3"><rect width="6.53" height="4.062" transform="translate(1.268 0) rotate(18.185)"/></g></g><g transform="translate(1.266)"><path d="M226.057,231.721a25.037,25.037,0,0,1-3.6,1.479l-.108.04-.07-.092-.1-.136a26.548,26.548,0,0,1-2.325-3.328,26.486,26.486,0,0,1,2.574,3.139l.1.136-.178-.052A25.082,25.082,0,0,1,226.057,231.721Z" transform="translate(-219.85 -229.682)" fill="#e8505b"/><g opacity="0.1"><path d="M226.057,231.721a25.037,25.037,0,0,1-3.6,1.479l-.108.04-.07-.092-.1-.136a26.548,26.548,0,0,1-2.325-3.328,26.486,26.486,0,0,1,2.574,3.139l.1.136-.178-.052A25.082,25.082,0,0,1,226.057,231.721Z" transform="translate(-219.85 -229.682)"/></g></g><g transform="translate(0 2.354)"><path d="M220.681,233.843a9.362,9.362,0,0,1-3.06,1.494,9.378,9.378,0,0,1,3.06-1.494Z" transform="translate(-217.619 -233.83)" fill="#e8505b"/><g opacity="0.1"><path d="M220.681,233.843a9.362,9.362,0,0,1-3.06,1.494,9.378,9.378,0,0,1,3.06-1.494Z" transform="translate(-217.619 -233.83)"/></g></g><g transform="translate(4.985 2.936)"><path d="M227.737,237.856a4.616,4.616,0,0,1-.8-1.437c-.377-.847-.625-1.569-.51-1.562a4.857,4.857,0,0,1,.8,1.437A4.425,4.425,0,0,1,227.737,237.856Z" transform="translate(-226.404 -234.857)" fill="#e8505b"/><g opacity="0.1"><path d="M227.737,237.856a4.616,4.616,0,0,1-.8-1.437c-.377-.847-.625-1.569-.51-1.562a4.857,4.857,0,0,1,.8,1.437A4.425,4.425,0,0,1,227.737,237.856Z" transform="translate(-226.404 -234.857)"/></g></g></g><g transform="translate(81.526 97.881)"><g transform="translate(0.001 0.001)"><rect width="16.798" height="10.45" transform="matrix(0.95, 0.312, -0.312, 0.95, 3.261, 0)" fill="#e8505b"/></g><g transform="translate(3.261 0)"><path d="M263.213,255.933a3.849,3.849,0,0,1-.712.323l-1.986.777c-1.685.645-4.026,1.518-6.639,2.474l-.108.04-.07-.092-.266-.35c-1.741-2.3-3.3-4.388-4.421-5.911l-1.311-1.812a4.178,4.178,0,0,1-.447-.691,4.134,4.134,0,0,1,.544.617l1.39,1.753c1.163,1.488,2.753,3.557,4.494,5.855l.266.351-.178-.052c2.614-.953,4.968-1.793,6.672-2.385l2.02-.685A3.807,3.807,0,0,1,263.213,255.933Z" transform="translate(-247.252 -250.69)" fill="#e8505b"/><g opacity="0.2"><path d="M263.213,255.933a3.849,3.849,0,0,1-.712.323l-1.986.777c-1.685.645-4.026,1.518-6.639,2.474l-.108.04-.07-.092-.266-.35c-1.741-2.3-3.3-4.388-4.421-5.911l-1.311-1.812a4.178,4.178,0,0,1-.447-.691,4.134,4.134,0,0,1,.544.617l1.39,1.753c1.163,1.488,2.753,3.557,4.494,5.855l.266.351-.178-.052c2.614-.953,4.968-1.793,6.672-2.385l2.02-.685A3.807,3.807,0,0,1,263.213,255.933Z" transform="translate(-247.252 -250.69)"/></g></g><g transform="translate(0 6.081)"><path d="M249.378,261.411a61.644,61.644,0,0,1-7.872,3.843,61.534,61.534,0,0,1,7.872-3.843Z" transform="translate(-241.506 -261.406)" fill="#e8505b"/><g opacity="0.2"><path d="M249.378,261.411a61.644,61.644,0,0,1-7.872,3.843,61.534,61.534,0,0,1,7.872-3.843Z" transform="translate(-241.506 -261.406)"/></g></g><g transform="translate(12.888 7.552)"><path d="M267.581,271.713A56.638,56.638,0,0,1,264.224,264a56.935,56.935,0,0,1,3.357,7.715Z" transform="translate(-264.218 -263.998)" fill="#e8505b"/><g opacity="0.2"><path d="M267.581,271.713A56.638,56.638,0,0,1,264.224,264a56.935,56.935,0,0,1,3.357,7.715Z" transform="translate(-264.218 -263.998)"/></g></g></g><g transform="translate(81.698 95.819)"><g transform="translate(0 0)"><path d="M245.778,251.558a2.493,2.493,0,1,1,.533-3.485A2.493,2.493,0,0,1,245.778,251.558Z" transform="translate(-241.809 -247.056)" fill="#263238"/></g><g transform="translate(1.194 1.918)"><path d="M246.784,250.555a11.491,11.491,0,0,1-1.673,1.037l-.4.222-.072.04-.039-.07a7.988,7.988,0,0,1-.684-1.347,7.942,7.942,0,0,1,.826,1.265l-.111-.031.4-.226A11.579,11.579,0,0,1,246.784,250.555Z" transform="translate(-243.912 -250.435)" fill="#fff"/></g></g><g transform="translate(80.427 86.991)"><g transform="translate(0 0)"><g transform="translate(0 0)"><rect width="8.801" height="5.475" transform="matrix(0.95, 0.312, -0.312, 0.95, 1.709, 0)" fill="#e8505b"/></g><g transform="translate(0 0)" opacity="0.2"><rect width="8.801" height="5.475" transform="matrix(0.95, 0.312, -0.312, 0.95, 1.709, 0)"/></g></g><g transform="translate(1.708)"><path d="M250.942,234.247a2.025,2.025,0,0,1-.373.169l-1.041.407c-.882.338-2.109.8-3.478,1.3l-.057.02-.037-.048-.139-.183c-.912-1.2-1.73-2.3-2.316-3.1l-.687-.949a2.176,2.176,0,0,1-.234-.361,2.155,2.155,0,0,1,.285.323l.728.918c.609.78,1.442,1.864,2.354,3.068l.139.184-.093-.028c1.37-.5,2.6-.939,3.5-1.249l1.058-.359A1.976,1.976,0,0,1,250.942,234.247Z" transform="translate(-242.58 -231.5)" fill="#e8505b"/><g opacity="0.2"><path d="M250.942,234.247a2.025,2.025,0,0,1-.373.169l-1.041.407c-.882.338-2.109.8-3.478,1.3l-.057.02-.037-.048-.139-.183c-.912-1.2-1.73-2.3-2.316-3.1l-.687-.949a2.176,2.176,0,0,1-.234-.361,2.155,2.155,0,0,1,.285.323l.728.918c.609.78,1.442,1.864,2.354,3.068l.139.184-.093-.028c1.37-.5,2.6-.939,3.5-1.249l1.058-.359A1.976,1.976,0,0,1,250.942,234.247Z" transform="translate(-242.58 -231.5)" fill="#e8505b"/></g></g><g transform="translate(0 3.186)"><path d="M243.694,237.117a32.306,32.306,0,0,1-4.124,2.013,32.2,32.2,0,0,1,4.124-2.013Z" transform="translate(-239.569 -237.114)" fill="#e8505b"/><g opacity="0.2"><path d="M243.694,237.117a32.306,32.306,0,0,1-4.124,2.013,32.2,32.2,0,0,1,4.124-2.013Z" transform="translate(-239.569 -237.114)" fill="#e8505b"/></g></g><g transform="translate(6.752 3.956)"><path d="M253.23,242.514a29.668,29.668,0,0,1-1.759-4.042,29.866,29.866,0,0,1,1.759,4.042Z" transform="translate(-251.468 -238.471)" fill="#e8505b"/><g opacity="0.2"><path d="M253.23,242.514a29.668,29.668,0,0,1-1.759-4.042,29.866,29.866,0,0,1,1.759,4.042Z" transform="translate(-251.468 -238.471)" fill="#e8505b"/></g></g></g><g transform="translate(0 9.839)"><path d="M121.182,110.312a11.852,11.852,0,1,1-8.573-14.4A11.852,11.852,0,0,1,121.182,110.312Z" transform="translate(-97.839 -95.542)" fill="#263238"/><g transform="translate(5.356 5.43)"><path d="M118.172,105.113c.207.081-1.142,4.048-3.012,8.86l-.8,2.024-.143.362-.358-.138c-3.843-1.483-6.648-2.7-6.582-2.879s2.982.745,6.856,2.148l-.5.224.778-2.032C116.281,108.87,117.965,105.033,118.172,105.113Z" transform="translate(-107.278 -105.112)" fill="#fff"/></g></g></g><g transform="translate(222.449 234.013)"><g transform="translate(20.345 26.952)"><path d="M393.757,416.307a10.983,10.983,0,0,1,6.816-.828,5.662,5.662,0,0,1,3.367,1.5,2.423,2.423,0,0,1,.035,3.362,3.225,3.225,0,0,1-2.122.538c-1.8-.021-3.8-.338-5.241.746-.821.618-1.368,1.647-2.35,1.951a2.321,2.321,0,0,1-2.554-1.136,3.971,3.971,0,0,1-.289-2.928A4.471,4.471,0,0,1,393.757,416.307Z" transform="translate(-391.271 -415.287)" fill="#e8505b"/><g opacity="0.2"><path d="M393.757,416.307a10.983,10.983,0,0,1,6.816-.828,5.662,5.662,0,0,1,3.367,1.5,2.423,2.423,0,0,1,.035,3.362,3.225,3.225,0,0,1-2.122.538c-1.8-.021-3.8-.338-5.241.746-.821.618-1.368,1.647-2.35,1.951a2.321,2.321,0,0,1-2.554-1.136,3.971,3.971,0,0,1-.289-2.928A4.471,4.471,0,0,1,393.757,416.307Z" transform="translate(-391.271 -415.287)" fill="#fff"/></g></g><g transform="translate(16.884)"><path d="M386.37,386.6c1.268,1.81,3.732,1.211,4.874.106a9.209,9.209,0,0,0,2.065-4.234c1-3.49,2.016-7.151,1.27-10.705a5.95,5.95,0,0,0-1.368-2.91,3.106,3.106,0,0,0-2.944-.98,4.546,4.546,0,0,0-2.572,2.7,25.519,25.519,0,0,0-2.522,10.951,8.853,8.853,0,0,0,1.2,5.07" transform="translate(-385.173 -367.791)" fill="#e8505b"/></g><g transform="translate(0 5.826)"><path d="M370.02,393.634a6.59,6.59,0,0,0,1.025-6.063,11.687,11.687,0,0,0-3.591-5.209,19.328,19.328,0,0,0-6.43-3.794,6.854,6.854,0,0,0-2.891-.491,3.034,3.034,0,0,0-2.427,1.469c-.677,1.29-.028,2.856.674,4.133a49.011,49.011,0,0,0,4.224,6.431,11.429,11.429,0,0,0,4.645,3.979c1.929.738,3.933.651,4.956-.687" transform="translate(-355.42 -378.058)" fill="#e8505b"/><g opacity="0.1"><path d="M370.02,393.634a6.59,6.59,0,0,0,1.025-6.063,11.687,11.687,0,0,0-3.591-5.209,19.328,19.328,0,0,0-6.43-3.794,6.854,6.854,0,0,0-2.891-.491,3.034,3.034,0,0,0-2.427,1.469c-.677,1.29-.028,2.856.674,4.133a49.011,49.011,0,0,0,4.224,6.431,11.429,11.429,0,0,0,4.645,3.979c1.929.738,3.933.651,4.956-.687" transform="translate(-355.42 -378.058)"/></g></g><g transform="translate(17.972 29.466)"><path d="M387.113,436.367a3.914,3.914,0,0,0,.115-.823c.058-.6.132-1.351.218-2.245a32.474,32.474,0,0,1,.505-3.294,25.461,25.461,0,0,1,1.2-3.887,14.324,14.324,0,0,1,1.985-3.517,7.41,7.41,0,0,1,2.509-2.086,7.023,7.023,0,0,1,2.113-.658,3.969,3.969,0,0,0,.819-.119,3.882,3.882,0,0,0-.834-.013,6.41,6.41,0,0,0-2.2.574,7.4,7.4,0,0,0-2.647,2.1,14,14,0,0,0-2.058,3.588,23.847,23.847,0,0,0-1.188,3.95,27.8,27.8,0,0,0-.437,3.335c-.071.953-.1,1.726-.112,2.259A3.823,3.823,0,0,0,387.113,436.367Z" transform="translate(-387.09 -419.717)" fill="#263238"/></g><g transform="translate(17.972 7.275)"><path d="M387.268,417.725a1.67,1.67,0,0,0,.022-.382c0-.287,0-.648,0-1.092,0-.947,0-2.318.049-4.011.084-3.385.375-8.06.939-13.2s1.319-9.762,2-13.078c.162-.831.325-1.579.478-2.234s.272-1.223.392-1.681c.1-.431.188-.782.255-1.061a.192.192,0,1,0-.066-.019l-.317,1.046c-.141.453-.285,1.016-.449,1.67s-.352,1.4-.529,2.228a123.9,123.9,0,0,0-2.107,13.091c-.565,5.148-.818,9.836-.841,13.23-.02,1.7.016,3.071.059,4.019.027.443.049.8.067,1.091A1.572,1.572,0,0,0,387.268,417.725Z" transform="translate(-387.09 -380.612)" fill="#263238"/></g><g transform="translate(6.078 10.039)"><path d="M378.225,410.791a7.2,7.2,0,0,0-.007-1.141c-.043-.733-.143-1.792-.35-3.089a40.589,40.589,0,0,0-1.005-4.5,39.889,39.889,0,0,0-1.882-5.326,28.364,28.364,0,0,0-5.528-8.607,13.952,13.952,0,0,0-1.3-1.209c-.2-.169-.376-.337-.556-.47l-.5-.348a7.187,7.187,0,0,0-.96-.615,33.951,33.951,0,0,1,3.147,2.807,29.9,29.9,0,0,1,5.39,8.577,42.457,42.457,0,0,1,1.893,5.277,45.663,45.663,0,0,1,1.069,4.456c.236,1.284.372,2.333.454,3.059A7.444,7.444,0,0,0,378.225,410.791Z" transform="translate(-366.13 -385.483)" fill="#263238"/></g></g><g transform="translate(154.315 168.264)"><path d="M235.354,278.215H259.11l9.411-26.288H267.2l-9.33,25.005-22.519.127Z" transform="translate(-235.354 -251.927)" fill="#455a64"/></g><g transform="translate(121.421 194.552)"><g transform="translate(22.392 2.709)"><path d="M216.847,303.636l.881,82.332h2.415l-.982-82.941Z" transform="translate(-216.847 -303.027)" fill="#263238"/></g><g transform="translate(73.22 2.518)"><path d="M306.447,302.689c-.326,1.572,2.179,83.324,2.179,83.324h2.281l-1.846-83.324Z" transform="translate(-306.418 -302.689)" fill="#263238"/></g><path d="M278.416,298.252H177.388v4.162h8.337L180.3,383.637l2.373.129,5.431-81.352h81.809l3.965,81.387h2.379l-3.965-81.387h6.122Z" transform="translate(-177.388 -298.252)" fill="#263238"/></g><g transform="translate(73.865 115.738)"><g transform="translate(79.605 155.01)"><g transform="translate(0.162)"><path d="M245.953,438.886l.024-6.243-11.693-.119-.131,9.132.725.054c3.224.212,16.411.851,18.575.22C255.864,441.224,245.953,438.886,245.953,438.886Z" transform="translate(-234.152 -432.524)" fill="#e8505b"/><g transform="translate(0.014 5.689)"><path d="M238.4,445.944a4.055,4.055,0,0,0-1.467-2.508,3.938,3.938,0,0,0-2.724-.878l-.036,3.268Z" transform="translate(-234.176 -442.549)" fill="#f5f5f5"/></g></g><g transform="translate(0.162 7.677)"><path d="M250.794,446.053s3.472,1.04,3.031,1.609-13.791.424-19.674-.154l.022-.261,15.571.3S250.113,446.075,250.794,446.053Z" transform="translate(-234.152 -446.053)" fill="#f5f5f5"/></g><g transform="translate(0 8.857)"><path d="M233.866,448.137a1.054,1.054,0,0,0,.2.024l.577.041,2.124.115c1.794.083,4.275.167,7.016.2s5.224.006,7.019-.037l2.126-.065.578-.028a1.051,1.051,0,0,0,.2-.019,1.1,1.1,0,0,0-.2-.009h-.579l-2.126.02c-1.8.016-4.276.027-7.016,0s-5.218-.1-7.013-.158l-2.125-.069-.579-.015A1.132,1.132,0,0,0,233.866,448.137Z" transform="translate(-233.866 -448.132)" fill="#263238"/></g><g transform="translate(15.73 7.534)"><path d="M261.605,447.621a3.081,3.081,0,0,1,1.141-1.816,1.889,1.889,0,0,0-1.141,1.816Z" transform="translate(-261.586 -445.801)" fill="#263238"/></g><g transform="translate(12.312 6.598)"><path d="M255.569,445.119c.033.022.2-.178.373-.444s.288-.5.255-.522-.2.178-.373.445S255.536,445.1,255.569,445.119Z" transform="translate(-255.563 -444.151)" fill="#263238"/></g><g transform="translate(11.374 6.403)"><path d="M253.912,444.46c.026.03.212-.091.415-.271s.347-.347.321-.377-.212.092-.415.271S253.886,444.431,253.912,444.46Z" transform="translate(-253.909 -443.808)" fill="#263238"/></g><g transform="translate(10.79 5.887)"><path d="M252.88,442.956a1.379,1.379,0,0,0,.609.085,1.362,1.362,0,0,0,.612-.058,2.677,2.677,0,0,0-1.222-.027Z" transform="translate(-252.88 -442.898)" fill="#263238"/></g><g transform="translate(10.593 5.154)"><path d="M252.533,441.617a1.717,1.717,0,0,0,1.382.119,52.566,52.566,0,0,1-1.382-.119Z" transform="translate(-252.532 -441.606)" fill="#263238"/></g><g transform="translate(12.725 5.515)"><path d="M256.291,443.279a2.179,2.179,0,0,0,.752,0,4.453,4.453,0,0,0,.8-.168,2.18,2.18,0,0,0,.46-.184.4.4,0,0,0,.188-.232.3.3,0,0,0-.111-.3,1.378,1.378,0,0,0-1.708.385,1.344,1.344,0,0,0-.251.5.417.417,0,0,0-.022.2,2.124,2.124,0,0,1,.35-.637,1.357,1.357,0,0,1,.646-.41,1.164,1.164,0,0,1,.895.071c.118.09.07.229-.064.307a2.236,2.236,0,0,1-.424.176,5.16,5.16,0,0,1-.776.193C256.578,443.258,256.291,443.256,256.291,443.279Z" transform="translate(-256.291 -442.243)" fill="#263238"/></g><g transform="translate(11.951 5.128)"><path d="M255.9,443.023a.747.747,0,0,0,.092-.521,1.231,1.231,0,0,0-.2-.551.754.754,0,0,0-.621-.39.3.3,0,0,0-.236.344.822.822,0,0,0,.124.337,2.261,2.261,0,0,0,.35.459,1.08,1.08,0,0,0,.427.309c.013-.018-.148-.136-.353-.376a2.638,2.638,0,0,1-.31-.455c-.1-.16-.169-.446.02-.478.188-.016.378.173.491.324a1.23,1.23,0,0,1,.207.491A2.735,2.735,0,0,1,255.9,443.023Z" transform="translate(-254.927 -441.56)" fill="#263238"/></g><g transform="translate(0.274 5.594)"><path d="M234.348,442.453c0,.027.335-.028.863.04a3.664,3.664,0,0,1,3.036,2.474c.173.5.187.84.213.837a.678.678,0,0,0,0-.235,3.092,3.092,0,0,0-.121-.632,3.553,3.553,0,0,0-3.121-2.543,3.083,3.083,0,0,0-.643.01A.672.672,0,0,0,234.348,442.453Z" transform="translate(-234.348 -442.381)" fill="#263238"/></g><g transform="translate(1.391 0.813)"><path d="M236.464,433.956a40.889,40.889,0,0,0-.113,4.8,40.9,40.9,0,0,0,.113-4.8Z" transform="translate(-236.317 -433.956)" fill="#263238"/></g><g transform="translate(5.886 7.947)"><path d="M244.239,446.541a9.6,9.6,0,0,0,3.417.069c0-.041-.767,0-1.709-.023S244.244,446.5,244.239,446.541Z" transform="translate(-244.239 -446.529)" fill="#263238"/></g><g transform="translate(3.589 7.927)"><path d="M240.2,446.5c-.029.028.061.163.137.339s.117.331.157.33.062-.184-.027-.387S240.222,446.47,240.2,446.5Z" transform="translate(-240.191 -446.493)" fill="#263238"/></g><g transform="translate(2.737 6.842)"><path d="M238.695,444.587c-.028.027.046.15.166.273s.239.2.268.175-.046-.15-.166-.274S238.723,444.56,238.695,444.587Z" transform="translate(-238.689 -444.581)" fill="#263238"/></g><g transform="translate(1.512 6.278)"><path d="M236.531,443.653c.008.04.163.04.334.1s.294.156.325.129-.065-.188-.277-.262S236.519,443.616,236.531,443.653Z" transform="translate(-236.53 -443.588)" fill="#263238"/></g><g transform="translate(0.633 6.076)"><path d="M234.983,443.257c-.015.036.052.1.149.136s.187.04.2,0-.052-.1-.149-.136S235,443.221,234.983,443.257Z" transform="translate(-234.981 -443.231)" fill="#263238"/></g></g><g transform="translate(101.336 149.368)"><path d="M285.413,428.282l-2.546-5.7-10.707,4.7,3.638,8.378.683-.249c3.026-1.134,15.308-5.977,17.02-7.443C295.41,426.336,285.413,428.282,285.413,428.282Z" transform="translate(-272.16 -422.583)" fill="#e8505b"/><g transform="translate(2.27 9.479)"><path d="M281.373,441.1A4.059,4.059,0,0,0,279,439.415a3.94,3.94,0,0,0-2.844.321l1.312,2.993Z" transform="translate(-276.16 -439.286)" fill="#f5f5f5"/></g><g transform="translate(3.55 4.745)"><path d="M293.073,431.106s3.593-.481,3.425.22S284.1,437.387,278.5,439.28l-.088-.247,14.315-6.132S292.461,431.407,293.073,431.106Z" transform="translate(-278.416 -430.945)" fill="#f5f5f5"/></g><g transform="translate(3.379 4.945)"><path d="M278.115,439.252a1.077,1.077,0,0,0,.192-.061l.543-.2,1.983-.769c1.669-.662,3.964-1.607,6.476-2.705s4.763-2.144,6.382-2.921l1.911-.935.515-.263a1.01,1.01,0,0,0,.175-.1,1.08,1.08,0,0,0-.188.075l-.527.239-1.929.893c-1.63.754-3.887,1.784-6.4,2.883s-4.8,2.056-6.457,2.741l-1.966.812-.533.225A1.037,1.037,0,0,0,278.115,439.252Z" transform="translate(-278.115 -431.297)" fill="#263238"/></g><g transform="translate(17.731 4.743)"><path d="M303.61,433.066a3.088,3.088,0,0,1,.293-2.125,1.89,1.89,0,0,0-.293,2.125Z" transform="translate(-303.406 -430.94)" fill="#263238"/></g><g transform="translate(14.048 5.512)"><path d="M296.94,433.435c.039.006.109-.244.158-.559a1.222,1.222,0,0,0,.017-.58,2.382,2.382,0,0,0-.175,1.139Z" transform="translate(-296.916 -432.296)" fill="#263238"/></g><g transform="translate(12.995 5.678)"><path d="M295.069,433.483c.036.016.155-.171.267-.417s.173-.46.138-.476-.155.171-.267.418S295.034,433.468,295.069,433.483Z" transform="translate(-295.059 -432.589)" fill="#263238"/></g><g transform="translate(12.013 5.315)"><path d="M293.329,432.437a1.388,1.388,0,0,0,.59-.174c.31-.132.549-.268.534-.3a1.384,1.384,0,0,0-.59.174C293.554,432.264,293.314,432.4,293.329,432.437Z" transform="translate(-293.329 -431.95)" fill="#263238"/></g><g transform="translate(11.512 4.706)"><path d="M292.447,431.342a1.719,1.719,0,0,0,1.31-.46,3.725,3.725,0,0,0-.653.234A3.777,3.777,0,0,0,292.447,431.342Z" transform="translate(-292.447 -430.877)" fill="#263238"/></g><g transform="translate(14.026 3.891)"><path d="M296.878,431.106a2.147,2.147,0,0,0,.686-.306,4.389,4.389,0,0,0,.662-.483,2.2,2.2,0,0,0,.344-.356.409.409,0,0,0,.077-.289.3.3,0,0,0-.225-.229,1.378,1.378,0,0,0-1.4,1.054,1.344,1.344,0,0,0-.023.557c.024.13.056.2.064.194a2.116,2.116,0,0,1,.056-.725,1.352,1.352,0,0,1,.42-.64,1.166,1.166,0,0,1,.845-.3c.145.033.158.18.069.306a2.245,2.245,0,0,1-.314.335,5.13,5.13,0,0,1-.628.5C297.13,430.969,296.868,431.085,296.878,431.106Z" transform="translate(-296.878 -429.44)" fill="#263238"/></g><g transform="translate(12.831 4.421)"><path d="M296.159,431.466a.743.743,0,0,0-.13-.513,1.236,1.236,0,0,0-.409-.42.755.755,0,0,0-.727-.1.3.3,0,0,0-.073.411.823.823,0,0,0,.252.256,2.27,2.27,0,0,0,.507.274,1.09,1.09,0,0,0,.516.106c0-.022-.191-.064-.477-.2a2.639,2.639,0,0,1-.469-.287c-.158-.1-.338-.337-.179-.444a.672.672,0,0,1,.582.094,1.24,1.24,0,0,1,.391.362A2.693,2.693,0,0,1,296.159,431.466Z" transform="translate(-294.771 -430.374)" fill="#263238"/></g><g transform="translate(2.313 9.256)"><path d="M276.236,439.512c.013.023.294-.163.8-.319a3.663,3.663,0,0,1,3.785,1.006c.365.388.516.689.539.675a.668.668,0,0,0-.094-.216,3.067,3.067,0,0,0-.37-.526,3.554,3.554,0,0,0-3.891-1.034,3.074,3.074,0,0,0-.583.273C276.3,439.452,276.231,439.5,276.236,439.512Z" transform="translate(-276.235 -438.895)" fill="#263238"/></g><g transform="translate(1.466 4.931)"><path d="M274.746,431.272a20.3,20.3,0,0,0,.872,2.24,20.517,20.517,0,0,0,1,2.185,40.78,40.78,0,0,0-1.874-4.426Z" transform="translate(-274.744 -431.272)" fill="#263238"/></g><g transform="translate(8.372 8.311)"><path d="M286.914,438.574a9.613,9.613,0,0,0,3.143-1.343c-.02-.036-.7.313-1.567.681S286.9,438.534,286.914,438.574Z" transform="translate(-286.914 -437.228)" fill="#263238"/></g><g transform="translate(6.271 10.56)"><path d="M283.212,441.2c-.014.037.123.123.264.252s.243.254.279.236-.019-.194-.184-.341S283.224,441.169,283.212,441.2Z" transform="translate(-283.211 -441.192)" fill="#263238"/></g><g transform="translate(5.049 9.918)"><path d="M281.058,440.078c-.015.036.1.117.263.182s.3.086.316.049-.1-.117-.263-.181S281.072,440.041,281.058,440.078Z" transform="translate(-281.057 -440.06)" fill="#263238"/></g><g transform="translate(3.718 9.794)"><path d="M278.715,440.03c.023.033.165-.031.347-.044s.331.02.349-.016-.137-.145-.362-.125S278.689,440,278.715,440.03Z" transform="translate(-278.712 -439.843)" fill="#263238"/></g><g transform="translate(2.822 10.044)"><path d="M277.133,440.362c0,.039.087.067.191.062s.187-.04.185-.079-.087-.067-.191-.062S277.131,440.322,277.133,440.362Z" transform="translate(-277.133 -440.282)" fill="#263238"/></g></g><g transform="translate(0 47.24)"><path d="M102.052,308.728l-8.443-63.1a2.664,2.664,0,0,1,2.864-3.007l20.351,1.719a3.855,3.855,0,0,1,3.517,3.523L125.3,307.6Z" transform="translate(-93.585 -242.612)" fill="#e8505b"/><g opacity="0.2"><path d="M102.052,308.728l-8.443-63.1a2.664,2.664,0,0,1,2.864-3.007l20.351,1.719a3.855,3.855,0,0,1,3.517,3.523L125.3,307.6Z" transform="translate(-93.585 -242.612)"/></g></g><g transform="translate(25.765)"><g transform="translate(0.956)"><path d="M142.055,179.987c-.17-2.4-.8-4.746-1.15-7.129a13.3,13.3,0,0,1,.54-7.113,10.351,10.351,0,0,1,5.866-5.369,17.97,17.97,0,0,1,8.045-.919,3.8,3.8,0,0,1,1.424.325,1.41,1.41,0,0,1,.815,1.139.882.882,0,0,1-.907.919,14.21,14.21,0,0,1,3.048.653,1.752,1.752,0,0,1,.986.712,1.344,1.344,0,0,1-.136,1.338,3.964,3.964,0,0,1-1.022.963.941.941,0,0,1,1.1.745,1.808,1.808,0,0,1-.389,1.4c-.291.406-.667.745-.967,1.144-1.227,1.632-.986,3.9-.688,5.918" transform="translate(-140.672 -159.365)" fill="#263238"/></g><g transform="translate(2.309 5.368)"><path d="M143.31,198.177l11.468-.207c.153-1.328.376-6.488.376-6.488s4.793-.445,5.145-5.189.2-15.7.2-15.7h0a16.531,16.531,0,0,0-16.707,1.061l-.737.5Z" transform="translate(-143.057 -168.824)" fill="#b78876"/><g transform="translate(6.029 20.449)"><path d="M159.761,207a11.061,11.061,0,0,1-6.08-2.14s1.252,3.506,6.016,3.371Z" transform="translate(-153.681 -204.86)" fill="#a36957"/></g></g><g transform="translate(1.032 2.735)"><path d="M141.931,173.748l.247,6.156s2.159-.656,2.3-.718-.041-7.541-.041-7.541-.3-2.82,1.537-3.489c1.933-.7,2.776.7,5.516,1.162,9.041,1.523,8.417-1.251,8.417-1.251s1.141-1.218-1.181-2.56c-2.4-1.385-8.129-1.792-11.309-.7-6.257,2.154-6.617,4.29-6.617,6.18C140.806,173.634,141.931,173.748,141.931,173.748Z" transform="translate(-140.806 -164.184)" fill="#263238"/></g><g transform="translate(0 12.88)"><path d="M142.208,182.095c-.1-.039-3.522-.483-3.2,3.553s4.293,2.376,4.291,2.26S142.208,182.095,142.208,182.095Z" transform="translate(-138.988 -182.062)" fill="#b78876"/><g transform="translate(1.032 1.393)"><path d="M142.737,187.652c-.019-.011-.066.055-.18.119a.709.709,0,0,1-.525.053,1.746,1.746,0,0,1-.93-1.5,2.328,2.328,0,0,1,.116-1.023.815.815,0,0,1,.486-.582.36.36,0,0,1,.431.16c.063.108.044.191.066.2s.081-.075.035-.239a.451.451,0,0,0-.179-.24.534.534,0,0,0-.4-.072.993.993,0,0,0-.684.685,2.4,2.4,0,0,0-.154,1.145,1.831,1.831,0,0,0,1.166,1.661.752.752,0,0,0,.634-.158C142.737,187.75,142.751,187.658,142.737,187.652Z" transform="translate(-140.806 -184.517)" fill="#a36957"/></g></g></g><g transform="translate(74.054 67.268)"><path d="M224.084,277.977s5.65-.27,6.827.243c1.967.858,7.81,10.02,7.515,10.022-.882,0-2.7-.008-2.7-.008l-9.094-3.442-2.137.541Z" transform="translate(-224.084 -277.906)" fill="#b78876"/></g><g transform="translate(89.959 93.638)"><path d="M260.6,324.374s17,58.816,17.02,58.514-15.219,7.337-15.219,7.337L252.111,347.7Z" transform="translate(-252.111 -324.374)" fill="#263238"/><g transform="translate(9.135 56.213)"><path d="M269.032,433.431l16.085-7.849-.7-2.148-16.21,7.858Z" transform="translate(-268.209 -423.434)" fill="#455a64"/></g><g transform="translate(7.3 42.852)"><path d="M265.522,401.612c-.082.025-.263-.341-.4-.817s-.186-.881-.1-.905.263.342.4.817S265.605,401.587,265.522,401.612Z" transform="translate(-264.976 -399.889)" fill="#455a64"/><g transform="translate(1.026 3.44)"><path d="M267.352,407.667c-.082.026-.267-.337-.414-.811s-.2-.878-.116-.9.268.338.414.811S267.434,407.641,267.352,407.667Z" transform="translate(-266.783 -405.951)" fill="#455a64"/></g><g transform="translate(2.1 6.866)"><path d="M269.268,413.7c-.082.027-.272-.334-.426-.806s-.211-.876-.129-.9.272.334.426.806S269.35,413.67,269.268,413.7Z" transform="translate(-268.676 -411.989)" fill="#455a64"/></g><g transform="translate(3.222 10.277)"><path d="M271.268,419.7c-.081.028-.277-.33-.436-.8s-.224-.873-.142-.9.278.331.437.8S271.35,419.673,271.268,419.7Z" transform="translate(-270.654 -417.999)" fill="#455a64"/></g><g transform="translate(4.393 13.673)"><path d="M273.354,425.677c-.081.03-.281-.326-.448-.794s-.236-.869-.154-.9.282.326.448.793S273.435,425.648,273.354,425.677Z" transform="translate(-272.717 -423.984)" fill="#455a64"/></g><g transform="translate(5.611 17.052)"><path d="M275.523,431.624c-.081.031-.287-.322-.46-.788s-.248-.867-.167-.9.287.323.459.788S275.6,431.594,275.523,431.624Z" transform="translate(-274.864 -429.939)" fill="#455a64"/></g></g><g transform="translate(6.74 46.202)"><path d="M269.913,422.594a3.015,3.015,0,0,1-.34-.616c-.2-.406-.472-1-.784-1.746-.631-1.487-1.41-3.58-2.191-5.915s-1.439-4.465-1.907-6.009l-.54-1.832a3.078,3.078,0,0,1-.159-.684,3.052,3.052,0,0,1,.275.647c.157.423.373,1.039.634,1.8.533,1.6,1.226,3.677,1.993,5.977.78,2.332,1.523,4.429,2.1,5.933l.69,1.779A3.1,3.1,0,0,1,269.913,422.594Z" transform="translate(-263.989 -405.792)" fill="#455a64"/></g></g><g transform="translate(19.241 84.748)"><path d="M127.491,313.511c.143-3.118-1.629,17.1,13.908,17.633,15.553.537,47.283.3,47.283.3L184.964,382.7H203.6l3.9-54.509s1.984-15.8-8.824-17.815c-6.766-1.263-48.832-1.669-48.832-1.669Z" transform="translate(-127.491 -308.709)" fill="#263238"/></g><g transform="translate(76.288 155.798)"><path d="M228.021,436.967h19.628v-3.053l-19.628.024Z" transform="translate(-228.021 -433.914)" fill="#455a64"/></g><g transform="translate(45.579 103.301)"><path d="M173.9,342.86a1.1,1.1,0,0,1,.2-.021l.588-.033,2.27-.1,8.424-.321,28.425-.976.18-.006-.022.18c-.257,2.091-.471,4.295-.653,6.54-.247,3.2-.488,6.328-.721,9.348s-.573,5.926-.855,8.693l-1.544,14.7c-.449,4.173-.813,7.554-1.067,9.911-.131,1.156-.234,2.06-.306,2.693l-.087.7a1.429,1.429,0,0,1-.04.237,1.425,1.425,0,0,1,.009-.241c.014-.173.033-.406.057-.7.058-.634.141-1.54.248-2.7.23-2.36.561-5.745.969-9.921.421-4.193.921-9.178,1.477-14.712.275-2.77.6-5.672.837-8.689s.469-6.146.714-9.349c.182-2.247.4-4.456.657-6.553l.158.174-28.428.873-8.427.227-2.272.047-.588.005A1,1,0,0,1,173.9,342.86Z" transform="translate(-173.905 -341.402)" fill="#455a64"/></g><g transform="translate(45.579 101.492)"><g transform="translate(0 0.929)"><path d="M175.7,339.987c0,.086-.4.165-.894.177s-.9-.049-.9-.134.4-.166.894-.177S175.7,339.9,175.7,339.987Z" transform="translate(-173.905 -339.851)" fill="#455a64"/></g><g transform="translate(3.592 0.844)"><path d="M182.031,339.838c0,.086-.4.166-.894.177s-.9-.049-.9-.135.4-.165.894-.177S182.029,339.753,182.031,339.838Z" transform="translate(-180.235 -339.702)" fill="#455a64"/></g><g transform="translate(7.184 0.76)"><path d="M188.36,339.689c0,.086-.4.166-.894.177s-.9-.048-.9-.135.4-.165.894-.177S188.359,339.6,188.36,339.689Z" transform="translate(-186.565 -339.553)" fill="#455a64"/></g><g transform="translate(10.776 0.675)"><path d="M194.69,339.541c0,.086-.4.165-.894.177s-.9-.049-.9-.135.4-.165.894-.177S194.688,339.455,194.69,339.541Z" transform="translate(-192.894 -339.405)" fill="#455a64"/></g><g transform="translate(14.368 0.591)"><path d="M201.02,339.392c0,.086-.4.165-.894.177s-.9-.049-.9-.135.4-.165.894-.177S201.018,339.306,201.02,339.392Z" transform="translate(-199.224 -339.256)" fill="#455a64"/></g><g transform="translate(17.959 0.507)"><path d="M207.349,339.243c0,.086-.4.166-.894.177s-.9-.049-.9-.135.4-.165.894-.177S207.347,339.157,207.349,339.243Z" transform="translate(-205.553 -339.107)" fill="#455a64"/></g><g transform="translate(21.551 0.422)"><path d="M213.679,339.094c0,.086-.4.166-.894.177s-.9-.049-.9-.134.4-.166.894-.177S213.677,339.009,213.679,339.094Z" transform="translate(-211.883 -338.958)" fill="#455a64"/></g><g transform="translate(25.143 0.338)"><path d="M220.008,338.946c0,.086-.4.165-.894.177s-.9-.048-.9-.135.4-.165.894-.177S220.007,338.86,220.008,338.946Z" transform="translate(-218.213 -338.81)" fill="#455a64"/></g><g transform="translate(28.735 0.253)"><path d="M226.338,338.8c0,.086-.4.165-.894.177s-.9-.049-.9-.135.4-.165.894-.177S226.336,338.711,226.338,338.8Z" transform="translate(-224.542 -338.661)" fill="#455a64"/></g><g transform="translate(32.327 0.169)"><path d="M232.668,338.648c0,.086-.4.165-.894.177s-.9-.049-.9-.135.4-.165.894-.177S232.666,338.562,232.668,338.648Z" transform="translate(-230.872 -338.512)" fill="#455a64"/></g><g transform="translate(35.919 0.085)"><path d="M239,338.5c0,.086-.4.166-.894.177s-.9-.049-.9-.135.4-.165.894-.177S239,338.413,239,338.5Z" transform="translate(-237.202 -338.363)" fill="#455a64"/></g><g transform="translate(39.511)"><path d="M245.327,338.35c0,.086-.4.166-.894.177s-.9-.048-.9-.134.4-.166.894-.177S245.325,338.265,245.327,338.35Z" transform="translate(-243.531 -338.214)" fill="#455a64"/></g><g transform="translate(41.21 1.604)"><path d="M246.616,342.828c-.086-.009-.116-.415-.068-.909s.157-.887.243-.878.116.415.067.909S246.7,342.837,246.616,342.828Z" transform="translate(-246.525 -341.041)" fill="#455a64"/></g><g transform="translate(40.859 5.18)"><path d="M246,349.13c-.086-.009-.116-.416-.067-.91s.157-.887.243-.878.116.415.068.909S246.084,349.138,246,349.13Z" transform="translate(-245.907 -347.342)" fill="#455a64"/></g><g transform="translate(40.508 8.755)"><path d="M245.38,355.431c-.086-.009-.116-.416-.068-.91s.157-.887.243-.878.116.415.068.909S245.466,355.439,245.38,355.431Z" transform="translate(-245.289 -353.643)" fill="#455a64"/></g><g transform="translate(40.158 12.331)"><path d="M244.762,361.732c-.086-.009-.116-.415-.068-.909s.157-.888.243-.879.116.415.068.909S244.848,361.741,244.762,361.732Z" transform="translate(-244.671 -359.944)" fill="#455a64"/></g><g transform="translate(39.807 15.906)"><path d="M244.143,368.033c-.086-.009-.116-.415-.067-.909s.157-.887.243-.879.116.415.067.91S244.229,368.041,244.143,368.033Z" transform="translate(-244.053 -366.245)" fill="#455a64"/></g><g transform="translate(39.456 19.483)"><path d="M243.525,374.334c-.086-.008-.116-.415-.068-.909s.157-.887.243-.878.116.415.068.909S243.611,374.343,243.525,374.334Z" transform="translate(-243.434 -372.547)" fill="#455a64"/></g><g transform="translate(39.105 23.058)"><path d="M242.907,380.635c-.086-.009-.116-.415-.067-.909s.157-.887.243-.878.116.415.068.909S242.993,380.644,242.907,380.635Z" transform="translate(-242.816 -378.848)" fill="#455a64"/></g><g transform="translate(38.754 26.634)"><path d="M242.289,386.936c-.086-.009-.116-.415-.068-.909s.157-.887.243-.878.116.415.068.909S242.375,386.945,242.289,386.936Z" transform="translate(-242.198 -385.149)" fill="#455a64"/></g><g transform="translate(38.403 30.209)"><path d="M241.671,393.237c-.086-.008-.116-.415-.068-.909s.157-.887.243-.878.116.415.067.909S241.757,393.246,241.671,393.237Z" transform="translate(-241.58 -391.45)" fill="#455a64"/></g><g transform="translate(38.053 33.785)"><path d="M241.052,399.538c-.086-.008-.116-.415-.067-.909s.157-.888.243-.879.116.415.067.909S241.138,399.547,241.052,399.538Z" transform="translate(-240.962 -397.751)" fill="#455a64"/></g><g transform="translate(37.702 37.361)"><path d="M240.434,405.84c-.086-.009-.116-.415-.068-.909s.157-.888.243-.879.116.415.068.909S240.52,405.848,240.434,405.84Z" transform="translate(-240.343 -404.052)" fill="#455a64"/></g><g transform="translate(37.351 40.936)"><path d="M239.816,412.141c-.086-.008-.116-.415-.067-.909s.157-.888.243-.879.116.415.068.909S239.9,412.15,239.816,412.141Z" transform="translate(-239.725 -410.353)" fill="#455a64"/></g><g transform="translate(37 44.512)"><path d="M239.2,418.442c-.086-.009-.116-.415-.068-.909s.157-.887.243-.879.116.415.068.91S239.284,418.45,239.2,418.442Z" transform="translate(-239.107 -416.654)" fill="#455a64"/></g><g transform="translate(36.649 48.088)"><path d="M238.58,424.743c-.086-.008-.116-.415-.068-.909s.157-.887.243-.878.116.415.068.909S238.665,424.752,238.58,424.743Z" transform="translate(-238.489 -422.956)" fill="#455a64"/></g><g transform="translate(36.298 51.664)"><path d="M237.961,431.044c-.086-.009-.116-.415-.068-.909s.157-.887.243-.878.116.415.068.909S238.047,431.053,237.961,431.044Z" transform="translate(-237.87 -429.257)" fill="#455a64"/></g><g transform="translate(36.053 55.237)"><path d="M237.589,435.663c-.086-.009-.153-.039-.15-.069s.074-.046.16-.038.153.039.15.069S237.674,435.672,237.589,435.663Z" transform="translate(-237.439 -435.554)" fill="#455a64"/></g></g><g transform="translate(80.314 105.088)"><path d="M237.775,344.558a10.45,10.45,0,0,1-2.656,2.431,10.5,10.5,0,0,1,2.656-2.431Z" transform="translate(-235.115 -344.552)" fill="#263238"/></g><g transform="translate(80.124 105.773)"><path d="M238.918,345.771a16.587,16.587,0,0,1-4.137,1.857,16.56,16.56,0,0,1,4.137-1.857Z" transform="translate(-234.78 -345.76)" fill="#263238"/></g><g transform="translate(18.051 30.278)"><path d="M153.7,247.551s-1.9-20.366-5.279-29.283l.673-.506-1.006-3.509-12.632-1.532.195,2.74a9,9,0,0,0-4.321,4.106c-4.524,9.615-2.294,20.837-4.707,41.639,0,0-2.824,9.755.1,12.807l27.558-6.423L152.96,261.3c12.03-.23,31.812-2.441,31.812-2.441l-.552-11.381s-29.555.177-30.522.072" transform="translate(-125.394 -212.721)" fill="#455a64"/></g><g transform="translate(18.265 30.441)"><g transform="translate(22.366 1.352)"><path d="M165.274,215.391a9.8,9.8,0,0,1,.912,2.283,4.331,4.331,0,0,1,.251.96.7.7,0,0,1-.162.475.856.856,0,0,1-.342.239c-.477.147-.747.043-.75.02-.011-.058.3-.051.658-.22a.519.519,0,0,0,.308-.5,5.885,5.885,0,0,0-.26-.874A9.8,9.8,0,0,1,165.274,215.391Z" transform="translate(-165.185 -215.39)" fill="#e0e0e0"/></g><g transform="translate(2.779 16.361)"><path d="M153.358,242c0,.086-5.079.156-11.344.156s-11.345-.07-11.345-.156,5.079-.156,11.345-.156S153.358,241.91,153.358,242Z" transform="translate(-130.669 -241.84)" fill="#263238"/></g><g transform="translate(4.169 10.622)"><path d="M153.228,231.883c0,.086-4.5.155-10.055.155s-10.056-.07-10.056-.155,4.5-.156,10.056-.156S153.228,231.8,153.228,231.883Z" transform="translate(-133.117 -231.727)" fill="#263238"/></g><g transform="translate(5.989 5.574)"><path d="M152.96,222.986c0,.086-3.724.156-8.317.156s-8.319-.07-8.319-.156,3.724-.156,8.319-.156S152.96,222.9,152.96,222.986Z" transform="translate(-136.325 -222.83)" fill="#263238"/></g><g transform="translate(9.713 2.015)"><path d="M155.634,216.715c0,.086-2.854.156-6.373.156s-6.373-.07-6.373-.156,2.853-.156,6.373-.156S155.634,216.629,155.634,216.715Z" transform="translate(-142.888 -216.559)" fill="#263238"/></g><g transform="translate(2.265 21.878)"><path d="M153.763,251.718c0,.086-5.373.155-12,.155s-12-.07-12-.155,5.372-.156,12-.156S153.763,251.632,153.763,251.718Z" transform="translate(-129.762 -251.562)" fill="#263238"/></g><g transform="translate(2.265 27.423)"><path d="M154.74,261.489c0,.086-5.592.156-12.488.156s-12.49-.07-12.49-.156,5.591-.156,12.49-.156S154.74,261.4,154.74,261.489Z" transform="translate(-129.762 -261.333)" fill="#263238"/></g><g transform="translate(2.265 32.534)"><path d="M155.354,270.5c0,.086-5.729.156-12.8.156s-12.8-.07-12.8-.156,5.728-.155,12.8-.155S155.354,270.41,155.354,270.5Z" transform="translate(-129.762 -270.34)" fill="#263238"/></g><g transform="translate(1.794 38.119)"><path d="M182.928,280.338c0,.086-12.088.156-27,.156s-27-.07-27-.156,12.086-.156,27-.156S182.928,280.252,182.928,280.338Z" transform="translate(-128.932 -280.182)" fill="#263238"/></g><g transform="translate(1.592 42.595)"><path d="M182.981,288.225c0,.086-12.18.156-27.2.156s-27.2-.07-27.2-.156,12.177-.156,27.2-.156S182.981,288.139,182.981,288.225Z" transform="translate(-128.577 -288.069)" fill="#263238"/></g><g transform="translate(0.942 48.111)"><path d="M153.427,297.945c0,.086-5.82.156-13,.156s-13-.07-13-.156,5.819-.156,13-.156S153.427,297.859,153.427,297.945Z" transform="translate(-127.431 -297.789)" fill="#263238"/></g><g transform="translate(0 53.227)"><path d="M154.032,306.961c0,.086-6.327.156-14.129.156s-14.131-.07-14.131-.156,6.326-.155,14.131-.155S154.032,306.876,154.032,306.961Z" transform="translate(-125.771 -306.806)" fill="#263238"/></g><g transform="translate(4.04 10.41)"><path d="M133.047,275.682c-.086,0-.156-9.924-.156-22.164s.07-22.166.156-22.166.156,9.922.156,22.166S133.133,275.682,133.047,275.682Z" transform="translate(-132.891 -231.352)" fill="#263238"/></g><g transform="translate(10.861)"><path d="M145.066,267.2c-.086,0-.156-12.132-.156-27.094s.07-27.1.156-27.1.155,12.13.155,27.1S145.152,267.2,145.066,267.2Z" transform="translate(-144.91 -213.008)" fill="#263238"/></g><g transform="translate(18.391 1.138)"><path d="M158.336,267.259c-.086,0-.156-11.7-.156-26.121s.07-26.123.156-26.123.155,11.694.155,26.123S158.422,267.259,158.336,267.259Z" transform="translate(-158.18 -215.014)" fill="#263238"/></g><g transform="translate(24.716 13.713)"><path d="M169.482,278.182c-.086,0-.156-9.181-.156-20.5s.07-20.505.156-20.505.155,9.179.155,20.505S169.568,278.182,169.482,278.182Z" transform="translate(-169.326 -237.173)" fill="#263238"/></g><g transform="translate(31.186 34.642)"><path d="M181.115,274.054a12.664,12.664,0,0,1,.062,1.994c0,1.23-.024,2.928-.069,4.8s-.1,3.572-.16,4.8a12.692,12.692,0,0,1-.158,1.989,12.508,12.508,0,0,1-.063-1.99c0-1.23.024-2.93.069-4.807s.1-3.576.161-4.8A12.481,12.481,0,0,1,181.115,274.054Z" transform="translate(-180.727 -274.054)" fill="#263238"/></g><g transform="translate(38.325 34.879)"><path d="M193.676,274.473a11.081,11.081,0,0,1,.066,1.869c0,1.152-.02,2.743-.062,4.5s-.1,3.346-.153,4.5a11.114,11.114,0,0,1-.155,1.864,11.032,11.032,0,0,1-.065-1.865c0-1.152.02-2.745.062-4.5s.1-3.349.153-4.5A11.091,11.091,0,0,1,193.676,274.473Z" transform="translate(-193.307 -274.473)" fill="#263238"/></g><g transform="translate(45.462 34.754)"><path d="M206.246,274.252a10.414,10.414,0,0,1,.067,1.811c0,1.117-.018,2.659-.058,4.361s-.095,3.244-.15,4.359a10.49,10.49,0,0,1-.153,1.806,10.313,10.313,0,0,1-.067-1.807c0-1.117.018-2.66.058-4.366s.095-3.247.15-4.363A10.447,10.447,0,0,1,206.246,274.252Z" transform="translate(-205.885 -274.252)" fill="#263238"/></g><g transform="translate(52.601 34.551)"><path d="M218.819,273.895a9.819,9.819,0,0,1,.069,1.758c0,1.084-.016,2.58-.056,4.232s-.092,3.147-.147,4.23a9.84,9.84,0,0,1-.152,1.752,9.771,9.771,0,0,1-.068-1.754c0-1.084.016-2.581.056-4.236s.092-3.151.147-4.233A9.848,9.848,0,0,1,218.819,273.895Z" transform="translate(-218.465 -273.895)" fill="#263238"/></g><g transform="translate(10.964 7.705)"><g transform="translate(14.644 26.535)"><path d="M170.905,276.311a5.916,5.916,0,0,1,2.644-2.958,15.976,15.976,0,0,1-1.345,1.459A15.936,15.936,0,0,1,170.905,276.311Z" transform="translate(-170.897 -273.347)" fill="#263238"/></g><g transform="translate(16.186 26.537)"><path d="M173.71,276.45a3.116,3.116,0,0,1,1.135-3.1c.069.062-.413.641-.718,1.493S173.8,276.447,173.71,276.45Z" transform="translate(-173.615 -273.349)" fill="#263238"/></g><g transform="translate(44.309 27.29)"><path d="M224.183,285.6a96.352,96.352,0,0,1-.986-10.922,96.393,96.393,0,0,1,.986,10.922Z" transform="translate(-223.173 -274.677)" fill="#263238"/></g><g transform="translate(45.284 29.307)"><path d="M225.311,278.363c.024.04-.159.152-.18.436a.538.538,0,0,0,.137.414.475.475,0,0,0,.762-.33.535.535,0,0,0-.209-.383c-.222-.179-.429-.121-.441-.167-.031-.026.208-.2.561-.018a.724.724,0,0,1,.376.548.741.741,0,0,1-1.259.546.723.723,0,0,1-.144-.649C225.02,278.376,225.313,278.322,225.311,278.363Z" transform="translate(-224.891 -278.232)" fill="#263238"/></g><path d="M162.18,253.493a.68.68,0,0,1,.142,0l.418.032c.367.04.914.074,1.629.1,1.429.06,3.528.087,6.2.065,5.342-.037,12.972-.233,22.119-.6l.134-.005.006.134c.178,3.535.371,7.4.574,11.45l.007.129-.119.023c-1.454.275-2.919.387-4.424.541l-4.589.4c-3.11.253-6.317.491-9.584.724L162.7,267.3h-.02a14.565,14.565,0,0,1-9.214-3.763,11.335,11.335,0,0,1-2.676-3.933,28.732,28.732,0,0,1-1.344-4.326c-1.4-5.7-2.284-10.843-2.975-15.133-.343-2.146-.631-4.08-.878-5.774a35.273,35.273,0,0,1-.5-4.351,5.379,5.379,0,0,1,.557-2.678,2.7,2.7,0,0,1,.578-.757,5.143,5.143,0,0,0-.529.783,5.45,5.45,0,0,0-.5,2.651,36.766,36.766,0,0,0,.548,4.329l.92,5.765c.718,4.283,1.622,9.419,3.039,15.1a28.44,28.44,0,0,0,1.342,4.281,11.055,11.055,0,0,0,2.619,3.833,14.284,14.284,0,0,0,9.033,3.668h-.019l11.99-.815,9.581-.718,4.585-.394c1.494-.15,2.987-.266,4.38-.527l-.112.151c-.193-4.052-.378-7.916-.547-11.452l.14.128c-9.152.336-16.785.493-22.13.483-2.672,0-4.773-.054-6.2-.141-.715-.037-1.263-.085-1.63-.139l-.416-.054A.727.727,0,0,1,162.18,253.493Z" transform="translate(-145.092 -226.586)" fill="#263238"/><g transform="translate(11.524 3.776)"><path d="M170.964,256.371a5.464,5.464,0,0,1-.291-.891c-.169-.578-.4-1.42-.665-2.462-.54-2.085-1.221-4.982-1.945-8.185s-1.394-6.1-1.893-8.193c-.238-1.006-.436-1.84-.587-2.48a5.414,5.414,0,0,1-.18-.919,5.332,5.332,0,0,1,.3.889c.173.577.406,1.417.684,2.457.554,2.081,1.258,4.973,1.982,8.178.719,3.176,1.369,6.05,1.856,8.2.231,1.007.422,1.843.569,2.484A5.378,5.378,0,0,1,170.964,256.371Z" transform="translate(-165.399 -233.24)" fill="#263238"/></g></g><g transform="translate(10.003 1.589)"><path d="M155.887,215.808a2.42,2.42,0,0,1-.058.627c-.057.4-.151.977-.273,1.688a9.87,9.87,0,0,1-.239,1.177.848.848,0,0,1-.508.55,1.482,1.482,0,0,1-.76-.023c-.938-.192-1.961-.442-3.025-.733-2.129-.585-4.026-1.2-5.4-1.624l-1.63-.51a2.482,2.482,0,0,1-.59-.22,2.423,2.423,0,0,1,.621.1c.395.088.962.228,1.66.416,1.4.37,3.305.952,5.426,1.534,1.059.29,2.074.546,3,.753a1.26,1.26,0,0,0,.616.043.588.588,0,0,0,.352-.382,11.529,11.529,0,0,0,.264-1.126c.149-.706.276-1.277.37-1.669A2.488,2.488,0,0,1,155.887,215.808Z" transform="translate(-143.399 -215.808)" fill="#263238"/></g></g><g transform="translate(0.014 47.241)"><g transform="translate(1.958 63.349)"><g transform="translate(28.855)"><path d="M147.909,354.249l3.964,53.837,1.66-.387-.616-52.314Z" transform="translate(-147.909 -354.249)" fill="#263238"/></g><g transform="translate(0 1.872)"><path d="M109.106,357.548l-12.046,51.9h2.178l17.245-51.9Z" transform="translate(-97.06 -357.548)" fill="#263238"/></g><g transform="translate(43.912 1.872)"><path d="M174.441,357.548l16.434,51.9h1.761l-13.059-51.9Z" transform="translate(-174.441 -357.548)" fill="#263238"/></g><g transform="translate(9.283 5.359)"><path d="M150.248,363.692l-36.829,24.064v1.321l37.856-25.384Z" transform="translate(-113.419 -363.692)" fill="#263238"/></g><g transform="translate(14.859 4.185)"><path d="M123.245,362.8l39.911,26.852v-2.054l-38.737-25.971Z" transform="translate(-123.245 -361.624)" fill="#263238"/></g></g><g transform="translate(7.724 59.188)"><path d="M108,353.842l47.452-.86a3.034,3.034,0,0,0,2.958-3.387h0a3.033,3.033,0,0,0-3.062-2.679l-48.125.773Z" transform="translate(-107.221 -346.915)" fill="#e8505b"/><g opacity="0.2"><path d="M108,353.842l47.452-.86a3.034,3.034,0,0,0,2.958-3.387h0a3.033,3.033,0,0,0-3.062-2.679l-48.125.773Z" transform="translate(-107.221 -346.915)"/></g></g><path d="M97.277,272.047l4.786,36.681,37.416-.893-.1-22.278a6.247,6.247,0,0,0-6.807-6.308l-28.532,2.574-3.755-38.879-3.791-.321a2.663,2.663,0,0,0-2.862,3.018Z" transform="translate(-93.609 -242.614)" fill="#e8505b"/></g></g></g></svg>