<svg xmlns="http://www.w3.org/2000/svg" width="89.642" height="89.642" viewBox="0 0 89.642 89.642"><g transform="translate(-8 -8)"><path d="M48.675,408H45.783a5.783,5.783,0,1,0,0,11.567h2.892a5.783,5.783,0,1,0,0-11.567Zm0,8.675H45.783a2.892,2.892,0,0,1,0-5.783h2.892a2.892,2.892,0,0,1,0,5.783Z" transform="translate(-26.217 -327.708)"/><path d="M48.675,307.567a5.783,5.783,0,1,0,0-11.567H45.783a5.783,5.783,0,1,0,0,11.567Zm-5.783-5.783a2.9,2.9,0,0,1,2.892-2.892h2.892a2.892,2.892,0,0,1,0,5.783H45.783A2.9,2.9,0,0,1,42.892,301.783Z" transform="translate(-26.217 -235.95)"/><path d="M94.75,45.592V32.238L89.461,21.66a3.763,3.763,0,0,0-6.278-.721V8H62.942V29.2L61.3,24.559,50.528,13.783H49.082a6.336,6.336,0,0,0-4.512,1.869l-.424.424V31.4l5.324,14.2h-.986a2.9,2.9,0,0,0-2.892,2.892v5.783a2.9,2.9,0,0,0,2.892,2.892h1.638l1.239,8.675H44.3a7.257,7.257,0,0,1-4.517-1.585L33.343,59.1a22.131,22.131,0,0,0-13.776-4.832,11.565,11.565,0,0,0-5.6,21.687,11.565,11.565,0,0,0,5.6,21.687,22.131,22.131,0,0,0,13.777-4.833l6.437-5.15A7.263,7.263,0,0,1,44.3,86.075h9.955l.766,5.361a7.265,7.265,0,0,0,7.157,6.206H81.059a7.265,7.265,0,0,0,7.157-6.206l1.3-9.077a25.6,25.6,0,0,0,6.349-5.48l.771-.925-.772-.925a25.614,25.614,0,0,0-4.682-4.335l1.933-13.536H94.75a2.9,2.9,0,0,0,2.892-2.892V48.483A2.9,2.9,0,0,0,94.75,45.592Zm-14.458,0V34.025H91.858V45.592Zm4.984-22.64a.927.927,0,0,1,1.6,0l4.092,8.182h-9.78Zm-4.984-12.06V26.455L77.4,32.238V45.592H65.833V39.808h8.675V36.917H65.833V34.025h5.783V31.133H65.833V28.242h8.675V25.35H65.833V22.458h5.783V19.567H65.833V16.675h8.675V13.783H65.833V10.892Zm-17.35,27v7.7H61.029L54.452,29.147l4.737-1.894ZM49.082,16.675h.249l8.146,8.147L47.037,29V17.337a3.52,3.52,0,0,1,2.044-.662ZM47.442,31.95l4.323-1.729,6.149,15.371H52.559ZM76.229,68.725a22.584,22.584,0,0,1,15.107,5.783H52.615a5.715,5.715,0,0,0-8.47-3.534V68.712c.051,0,.1.013.15.013Zm-26.3,7.229a2.892,2.892,0,1,1-2.892-2.892A2.895,2.895,0,0,1,49.929,75.954ZM10.892,65.833a8.684,8.684,0,0,1,8.675-8.675,19.235,19.235,0,0,1,11.971,4.2l6.437,5.15a10.111,10.111,0,0,0,3.279,1.725v6.276H19.567A8.684,8.684,0,0,1,10.892,65.833ZM37.975,85.4l-6.437,5.15a19.235,19.235,0,0,1-11.971,4.2,8.675,8.675,0,0,1,0-17.35H41.254v6.276A10.139,10.139,0,0,0,37.975,85.4Zm6.171-2.2V80.934a5.715,5.715,0,0,0,8.47-3.534H91.336a22.584,22.584,0,0,1-15.107,5.783H44.3C44.246,83.183,44.2,83.195,44.146,83.2Zm41.208,7.829a4.359,4.359,0,0,1-4.294,3.724H62.174a4.359,4.359,0,0,1-4.294-3.724l-.707-4.951H76.229a25.513,25.513,0,0,0,10.135-2.121ZM88.5,69.005a25.486,25.486,0,0,0-12.271-3.172H54.281l-1.239-8.675H90.191ZM48.483,54.267V48.483H94.75v5.783Z"/></g></svg>