<svg xmlns="http://www.w3.org/2000/svg" width="91.198" height="97.9" viewBox="0 0 91.198 97.9"><g transform="translate(-32 -16)"><path d="M275.591,268.8a6.422,6.422,0,0,0-4.571,1.893l-1.992,1.992-1.992-1.992a6.465,6.465,0,1,0-9.143,9.143h0l9.983,9.983a1.629,1.629,0,0,0,2.3,0h0l9.984-9.983a6.465,6.465,0,0,0-4.572-11.037Zm2.269,8.733h0l-8.832,8.832-8.832-8.832A3.208,3.208,0,0,1,264.732,273l3.143,3.143a1.629,1.629,0,0,0,2.3,0h0L273.323,273a3.208,3.208,0,0,1,4.537,4.537Z" transform="translate(-178.4 -201.338)"/><path d="M122.4,42.284,78.43,16.227a1.629,1.629,0,0,0-1.665,0L32.794,42.474a1.628,1.628,0,0,0-.794,1.4v68.4a1.629,1.629,0,0,0,1.629,1.629h0l87.941-.187a1.628,1.628,0,0,0,1.625-1.629v-68.4A1.63,1.63,0,0,0,122.4,42.284ZM64.571,68.249V73a1.628,1.628,0,0,0,.9,1.457l5.675,2.838a7.685,7.685,0,0,1,4.126,5.4L76,86.346a1.629,1.629,0,0,0,.445.832l.165.165a3.254,3.254,0,0,1,.24,4.338l-.525.656h0l-.525.656a7.471,7.471,0,0,1-11.117.616l-.592-.592a1.629,1.629,0,0,0-2.3,2.3h0l.592.592a10.728,10.728,0,0,0,15.172,0l0,0,2.026,2.535a1.629,1.629,0,0,0,.825.549l.438.125a13.551,13.551,0,0,1,9.68,11.336H52.746l-.631-2.052A39.028,39.028,0,0,1,56.5,75.925L57.8,73.873a1.658,1.658,0,0,0,.083-.146l.377-.753A8.737,8.737,0,0,1,64.571,68.249ZM81.8,96l-2.129-2.661a6.507,6.507,0,0,0-.573-8.109l-.636-3.178A10.923,10.923,0,0,0,72.6,74.38l-4.775-2.387V67.083l6.662-.606a1.629,1.629,0,0,0,1.309-.893l1.629-3.257a1.629,1.629,0,0,0-2.913-1.457l-1.223,2.446L57.246,64.775,55.429,62.05l.213-.142a6.865,6.865,0,0,0,2.772-7.625l5.256-2.628a1.629,1.629,0,0,0,.784-.852l1.995-4.987a5.689,5.689,0,0,1,3.49-3.291l3.868-1.289a8.989,8.989,0,0,1,1.831-.4,17.113,17.113,0,0,1,1.749,2.4L79.046,46a12.7,12.7,0,0,1,1.81,6.537v3.405a8.143,8.143,0,0,0,16.285,0,15.852,15.852,0,0,0-.124-1.975q.978,1.264,1.872,2.6a61.007,61.007,0,0,1,9.783,26.588,60.371,60.371,0,0,1-2.146,24.544l-.835,2.786-11.884.025A16.822,16.822,0,0,0,81.8,96ZM53.316,58.88a1.629,1.629,0,0,1,.452-2.258,1.61,1.61,0,0,1,.175-.1l1.466-.733A3.6,3.6,0,0,1,53.837,59.2l-.213.143ZM89.6,46.431a12.728,12.728,0,0,1,4.29,9.514,4.859,4.859,0,0,1-2.7,4.37,4.91,4.91,0,0,1-4.37,0,4.859,4.859,0,0,1-2.7-4.37v-3.4a15.961,15.961,0,0,0-2.274-8.21l-1.659-2.765c-.047-.079-.1-.155-.147-.232a23.732,23.732,0,0,1,7.593,3.606Q88.634,45.658,89.6,46.431Zm30.346,64.028-10.848.023.553-1.842a63.617,63.617,0,0,0,2.26-25.861A64.28,64.28,0,0,0,101.6,54.764a47.966,47.966,0,0,0-9.906-10.825q-.59-.517-1.234-.979a1.635,1.635,0,0,0-.155-.1c-.26-.193-.521-.386-.785-.574A26.982,26.982,0,0,0,79.06,37.756a12.276,12.276,0,0,0-6.282.391L68.91,39.437a8.941,8.941,0,0,0-5.484,5.171L61.66,49.019l-9.175,4.587a4.886,4.886,0,0,0-1.88,7.08l1.21,1.815h0l3.257,4.886a1.629,1.629,0,0,0,1.5.718l1.45-.132a12.1,12.1,0,0,0-2.677,3.542l-.339.679-1.261,1.981A42.279,42.279,0,0,0,49,109.36l.384,1.248-14.127.03V44.8L77.6,19.523l42.339,25.09Z" transform="translate(0 0)"/><circle cx="2" cy="2" r="2" transform="translate(67.606 82.489)"/><ellipse cx="3" cy="2.5" rx="3" ry="2.5" transform="translate(67.606 48.489)"/></g></svg>