<svg xmlns="http://www.w3.org/2000/svg" width="87.999" height="87.945" viewBox="0 0 87.999 87.945"><g transform="translate(0 -0.159)"><g transform="translate(0 0.159)"><path d="M213.662,211.841a21.532,21.532,0,0,0-8.342,1.665,1.719,1.719,0,1,0,1.325,3.172,18.2,18.2,0,1,1-9.806,9.811,1.719,1.719,0,0,0-3.173-1.323,21.659,21.659,0,1,0,20-13.326Z" transform="translate(-159.005 -175.459)"/><path d="M250.1,284.028a14.094,14.094,0,1,0-14.094-14.094A14.11,14.11,0,0,0,250.1,284.028Zm0-24.75a10.656,10.656,0,1,1-10.656,10.656A10.668,10.668,0,0,1,250.1,259.278Z" transform="translate(-195.443 -211.896)"/><path d="M79.282,110.841H74.054l-6-10.155a1.719,1.719,0,0,0-1.48-.844H42.74a1.718,1.718,0,0,0-1.48.844l-6,10.155H25.437v-2.062a6.187,6.187,0,1,0-12.375,0v2.062H8.717A8.727,8.727,0,0,0,0,119.558v42.378a8.727,8.727,0,0,0,8.717,8.717H79.282A8.727,8.727,0,0,0,88,161.936V119.558a8.726,8.726,0,0,0-8.717-8.717Zm-35.561-7.562H65.593l4.469,7.562H39.252Zm-27.221,5.5a2.75,2.75,0,1,1,5.5,0v2.062H16.5Zm68.062,53.158a5.285,5.285,0,0,1-5.279,5.279H8.717a5.285,5.285,0,0,1-5.279-5.279V119.558a5.285,5.285,0,0,1,5.279-5.279H79.282a5.285,5.285,0,0,1,5.279,5.279v42.378Z" transform="translate(0 -82.708)"/><path d="M309.725,301.778a3.355,3.355,0,0,1,3.352,3.352,1.719,1.719,0,1,0,3.437,0,6.8,6.8,0,0,0-6.789-6.789,1.719,1.719,0,0,0,0,3.437Z" transform="translate(-255.068 -247.091)"/><path d="M309.725,12.77a1.719,1.719,0,0,0,1.719-1.719V1.878a1.719,1.719,0,0,0-3.437,0v9.173A1.719,1.719,0,0,0,309.725,12.77Z" transform="translate(-255.068 -0.159)"/><path d="M357.31,26.585a1.714,1.714,0,0,0,1.215-.5l6.306-6.306a1.719,1.719,0,0,0-2.431-2.431l-6.306,6.306a1.719,1.719,0,0,0,1.215,2.934Z" transform="translate(-294.475 -13.974)"/><path d="M230.54,26.083a1.719,1.719,0,0,0,2.431-2.431l-6.306-6.306a1.719,1.719,0,0,0-2.431,2.431Z" transform="translate(-185.277 -13.975)"/><path d="M86.656,245.841H77.719a1.719,1.719,0,0,0,0,3.437h8.937a1.719,1.719,0,0,0,0-3.437Z" transform="translate(-62.938 -203.615)"/><path d="M227.679,249.277a1.719,1.719,0,1,0-1.215-.5A1.732,1.732,0,0,0,227.679,249.277Z" transform="translate(-187.124 -203.614)"/></g></g></svg>