<svg xmlns="http://www.w3.org/2000/svg" width="91.165" height="98.247" viewBox="0 0 91.165 98.247"><g transform="translate(-989 79.003)"><g transform="translate(989 -79.003)"><path d="M989-39.975a2.274,2.274,0,0,1,2.2-1.368c2.376-.188,4.745-.465,7.12-.679a.759.759,0,0,0,.8-.676,33.16,33.16,0,0,1,3.775-8.979.836.836,0,0,0-.093-1.166c-1.612-1.892-3.188-3.814-4.77-5.731a1.657,1.657,0,0,1,.131-2.579q4.365-4.371,8.746-8.726a1.625,1.625,0,0,1,2.569-.123c1.921,1.577,3.84,3.157,5.735,4.765a.84.84,0,0,0,1.161.09,34.719,34.719,0,0,1,8.841-3.728c.543-.145.784-.363.831-.934.192-2.326.435-4.648.64-6.973.16-1.819.576-2.22,2.39-2.22q5.65,0,11.3,0c1.521,0,1.992.465,2.133,2,.228,2.474.5,4.944.714,7.419a.633.633,0,0,0,.564.645,35.786,35.786,0,0,1,9.254,3.9.615.615,0,0,0,.844-.105q2.946-2.465,5.916-4.9a1.591,1.591,0,0,1,2.456.1q4.439,4.4,8.854,8.832a1.643,1.643,0,0,1,.1,2.533q-2.4,2.906-4.823,5.785a.738.738,0,0,0-.1,1.032,33.808,33.808,0,0,1,3.806,9.048.768.768,0,0,0,.786.693c2.375.205,4.745.476,7.119.685,1.714.151,2.172.6,2.172,2.286q0,5.989,0,11.978c0,1.328-.564,1.9-1.892,2.02-2.475.222-4.946.482-7.422.692a.72.72,0,0,0-.748.638,35.6,35.6,0,0,1-3.838,9.119.7.7,0,0,0,.087.97c1.591,1.877,3.157,3.775,4.732,5.665.946,1.135.885,1.941-.214,2.906q-3.2,2.808-6.395,5.617a1.627,1.627,0,0,1-2.736-.294q-5.014-6.92-10.009-13.853a1.645,1.645,0,0,1,.216-2.479,25.547,25.547,0,0,0,5.854-9.8,24.509,24.509,0,0,0-13.853-29.879,24.4,24.4,0,0,0-33.6,18.285c-1.425,7.918.761,14.954,6.168,20.952.151.168.31.328.462.5a1.632,1.632,0,0,1,.166,2.422q-3.759,5.409-7.528,10.812c-.717,1.029-1.426,2.065-2.153,3.088a1.61,1.61,0,0,1-2.629.327q-3.336-2.937-6.653-5.895a1.6,1.6,0,0,1-.2-2.5c1.613-1.956,3.229-3.911,4.869-5.844a.753.753,0,0,0,.08-1.041,35.108,35.108,0,0,1-3.8-9.053.758.758,0,0,0-.809-.663c-2.4-.211-4.795-.492-7.2-.663A2.076,2.076,0,0,1,989-26.564Zm45.447-20.918a27.956,27.956,0,0,1,10.211,1.962,27.72,27.72,0,0,1,16.774,31.879,27.539,27.539,0,0,1-6.011,11.9.75.75,0,0,0-.066,1.129q3.873,5.282,7.673,10.617c.37.52.592.471,1.007.09q1.662-1.531,3.386-2.993c.391-.331.436-.534.086-.944-1.466-1.719-2.889-3.474-4.332-5.213-1-1.2-1.031-1.553-.215-2.87a34.841,34.841,0,0,0,4.32-10.286c.35-1.458.71-1.718,2.222-1.849,2.275-.2,4.546-.437,6.822-.635.506-.044.663-.236.659-.747-.024-2.812-.045-5.625.011-8.437.015-.77-.237-.973-.948-1.028-2.277-.176-4.549-.409-6.822-.63-1.183-.115-1.6-.481-1.891-1.675a33.811,33.811,0,0,0-4.416-10.485c-.767-1.191-.716-1.636.206-2.752,1.487-1.8,2.962-3.61,4.472-5.39.319-.376.288-.574-.048-.905q-3.136-3.1-6.226-6.238c-.358-.365-.563-.312-.912-.016-1.741,1.479-3.5,2.932-5.259,4.394-1.232,1.026-1.578,1.072-2.934.221a33.378,33.378,0,0,0-10.283-4.317c-1.424-.329-1.675-.651-1.819-2.154-.22-2.3-.446-4.6-.632-6.9-.042-.52-.227-.668-.735-.663-2.737.022-5.474.025-8.211,0-.538-.006-.742.133-.788.686-.2,2.35-.45,4.7-.661,7.046-.11,1.225-.435,1.654-1.6,1.929a33.6,33.6,0,0,0-10.562,4.419c-1.2.772-1.655.737-2.753-.178-1.812-1.511-3.632-3.014-5.429-4.543-.322-.273-.491-.256-.781.038q-3.122,3.163-6.287,6.284c-.366.359-.315.571-.022.92,1.485,1.769,2.947,3.556,4.42,5.335.967,1.168,1.01,1.574.179,2.882a32.668,32.668,0,0,0-4.335,10.352c-.28,1.232-.756,1.607-2.026,1.723-2.3.211-4.6.439-6.9.641-.5.044-.734.176-.727.761q.051,4.331,0,8.663c-.006.567.193.729.713.774,2.3.2,4.6.431,6.9.639,1.3.118,1.743.451,2.036,1.7a34.5,34.5,0,0,0,4.472,10.623,1.729,1.729,0,0,1-.209,2.507c-1.49,1.8-2.968,3.6-4.474,5.388-.3.356-.34.559.047.886,1.188,1.005,2.358,2.034,3.5,3.1.417.389.589.3.883-.125q3.7-5.36,7.444-10.686a.679.679,0,0,0-.058-1.013,27.119,27.119,0,0,1-6.533-21.672A27.644,27.644,0,0,1,1034.447-60.893Z" transform="translate(-989 79.003)"/><path d="M1213.792,166.387a20.637,20.637,0,0,1-4.282-1.955,11.58,11.58,0,0,1-5.051-8.6c-.648-5.521,1.594-9.7,6.073-12.79a.919.919,0,0,0,.454-.858q-.015-11.562,0-23.123a.8.8,0,0,0-.542-.854c-5.17-2.322-7.581-7.5-7.1-12.955a12.018,12.018,0,0,1,5.7-9.587,12.657,12.657,0,0,1,2.872-1.3,1.627,1.627,0,0,1,2.292,1.758c-.151,1.977-.306,3.954-.53,5.923-.073.646.13.9.716,1.053a5.167,5.167,0,0,0,2.818,0,.779.779,0,0,0,.669-.961c-.169-1.647-.268-3.3-.4-4.953-.025-.325-.064-.65-.076-.976-.052-1.449.862-2.157,2.284-1.8,9.513,2.387,11.139,12.749,7.25,18.794a13.991,13.991,0,0,1-4.247,4.3.931.931,0,0,0-.488.9q.017,11.6,0,23.2a.779.779,0,0,0,.538.836c5.406,2.472,7.564,7.808,7.1,12.887a12.168,12.168,0,0,1-4.963,9.086,13.55,13.55,0,0,1-3.546,1.787,1.9,1.9,0,0,0-.309.18h-.9a2.049,2.049,0,0,1-1.124-2.356c.231-1.888.326-3.792.507-5.687a.638.638,0,0,0-.493-.774,4.933,4.933,0,0,0-3.1-.052.729.729,0,0,0-.63.907c.179,1.9.323,3.794.453,5.693.094,1.368-.126,1.706-1.343,2.269Zm8.593-4.2c.2-.113.3-.164.4-.232a8.958,8.958,0,0,0,3.739-5.958c.814-4.474-1.21-9.428-6.093-11.02-1.156-.377-1.423-.811-1.423-2.079,0-8.538.009-17.077-.014-25.615a1.978,1.978,0,0,1,1.221-2.035,5.79,5.79,0,0,0,.714-.418,10,10,0,0,0,3.637-13.127,7.547,7.547,0,0,0-3.713-3.47c0,.288-.012.481,0,.673.106,1.477.208,2.955.329,4.431a1.855,1.855,0,0,1-.891,1.781,7.787,7.787,0,0,1-8.908.075,2.069,2.069,0,0,1-.994-2.167c.177-1.5.258-3.012.389-4.629-.221.133-.329.189-.427.259a8.986,8.986,0,0,0-3.818,7.1c-.3,4.744,2.025,8.522,6.421,10.008.985.333,1.255.828,1.255,2.054,0,8.463-.008,16.926.013,25.389a2.2,2.2,0,0,1-1.293,2.163A9.959,9.959,0,0,0,1208.1,157.5a8.22,8.22,0,0,0,4.228,4.859c0-.257.01-.423,0-.588-.108-1.452-.2-2.906-.337-4.355a1.931,1.931,0,0,1,.977-1.96,7.8,7.8,0,0,1,8.667-.146,2.148,2.148,0,0,1,1.15,2.384C1222.586,159.145,1222.516,160.617,1222.385,162.185Z" transform="translate(-1170.998 -68.14)"/></g></g></svg>