<svg xmlns="http://www.w3.org/2000/svg" width="90.828" height="90.827" viewBox="0 0 90.828 90.827"><g transform="translate(0 -0.003)"><g transform="translate(0.001 0.003)"><g transform="translate(0 0)"><path d="M83.841,6.99C78.627,1.776,71.273-.652,63.136.155A36.767,36.767,0,0,0,41.019,11.043q-.816.816-1.584,1.678a12.211,12.211,0,1,0-11.956,17.21,12.358,12.358,0,0,0,3.185-.2A29.6,29.6,0,0,0,30.457,41.3h-.024c-.038,3.649-.825,13.809-3.966,16.951l-6.375,6.375a3.2,3.2,0,0,0-3.146.818L7.029,75.364a1.357,1.357,0,0,0,1.919,1.919l9.917-9.917a.5.5,0,0,1,.7,0l3.9,3.9a.5.5,0,0,1,0,.7L7.461,87.971a.5.5,0,0,1-.7,0l-3.9-3.9a.5.5,0,0,1,0-.7L4.5,81.735a1.357,1.357,0,0,0-1.919-1.919L.941,81.452a3.212,3.212,0,0,0,0,4.542l3.9,3.9a3.215,3.215,0,0,0,4.542,0L25.385,73.886A3.213,3.213,0,0,0,26.2,70.74l6.376-6.376c3.138-3.138,13.3-3.927,16.951-3.966v-.02a27.391,27.391,0,0,0,2.8.375q1.185.1,2.383.1a33.184,33.184,0,0,0,14.018-3.24,1.361,1.361,0,0,0,.642-1.855h0a1.353,1.353,0,0,0-1.772-.613,29.826,29.826,0,0,1-15.049,2.906,21.482,21.482,0,0,1-13.666-6.1C33.24,46.3,31.322,37.651,33.7,28.709A12.213,12.213,0,0,0,40.36,15.823a37.751,37.751,0,0,1,2.578-2.861A34.05,34.05,0,0,1,63.4,2.855c7.314-.725,13.89,1.425,18.519,6.054,9.63,9.632,7.812,27.119-4.053,38.984A37.476,37.476,0,0,1,73.2,51.861a1.357,1.357,0,0,0,1.594,2.2,40.185,40.185,0,0,0,5-4.246A36.765,36.765,0,0,0,90.677,27.7C91.483,19.559,89.055,12.2,83.841,6.99ZM21.591,24.463A9.449,9.449,0,0,1,18.886,18.9a9.5,9.5,0,0,1,8.271,8.275A9.424,9.424,0,0,1,21.591,24.463Zm18.72,32.168a23.273,23.273,0,0,0,2.611,1.537q-.476.06-.965.129-2.228.318-4.079.767Zm-3.344-2.766q.571.571,1.176,1.1l-13.57,13.57L22.3,66.259,35.872,52.687Q36.4,53.292,36.967,53.865ZM34.2,50.518l-2.435,2.435q.448-1.851.767-4.079.071-.5.131-.982A23.436,23.436,0,0,0,34.2,50.518Zm.82-26.055a9.427,9.427,0,0,1-5.145,2.651A12.209,12.209,0,0,0,18.946,16.176a9.466,9.466,0,0,1,7.792-7.791,12.211,12.211,0,0,0,10.93,10.935A9.442,9.442,0,0,1,35.024,24.463ZM32.17,13.883A9.393,9.393,0,0,1,29.46,8.325a9.468,9.468,0,0,1,8.269,8.269A9.391,9.391,0,0,1,32.17,13.883Z" transform="translate(-0.001 -0.003)"/></g></g><g transform="translate(36.567 6.59)"><path d="M248.745,42.195c-3.793-3.793-9.261-5.547-15.4-4.939a30.172,30.172,0,0,0-18.108,8.991,30.172,30.172,0,0,0-8.991,18.108c-.608,6.137,1.146,11.606,4.939,15.4a18.066,18.066,0,0,0,13.044,5.057q1.158,0,2.355-.118A30.173,30.173,0,0,0,244.693,75.7a30.173,30.173,0,0,0,8.991-18.108C254.292,51.457,252.538,45.987,248.745,42.195Zm-1.008,2.927a14.448,14.448,0,0,1,2.681,5.184l-3.932-3.932ZM217.283,60.974l5.382-5.382,5.381,5.381-5.382,5.382Zm3.462,7.3-5.382,5.382-5.381-5.381,5.382-5.382Zm3.839-14.6,5.38-5.38,5.381,5.381-5.38,5.38Zm5.381,9.22,5.381,5.381-5.382,5.382-5.381-5.381Zm1.919-1.919,5.38-5.38,5.381,5.381-5.38,5.38Zm7.3-7.3,5.382-5.382,5.381,5.381-5.382,5.382Zm6.632-10.47-1.251,1.251-3.928-3.928A14.445,14.445,0,0,1,245.816,43.2Zm-8.551-2.212,5.381,5.381-5.382,5.382-5.382-5.381Zm-3.652-1.036c.309-.031.616-.053.92-.07l-4.569,4.569-2.893-2.893A24.385,24.385,0,0,1,233.614,39.956Zm-9.173,2.812,3.605,3.605-5.38,5.38-4.528-4.528A29.82,29.82,0,0,1,224.44,42.769Zm-8.222,6.378,4.528,4.528-5.382,5.382-3.605-3.605A29.825,29.825,0,0,1,216.218,49.146Zm-7.271,15.476a24.387,24.387,0,0,1,1.606-6.541l2.892,2.892-4.569,4.569C208.893,65.239,208.916,64.932,208.947,64.623Zm3.247,12.2a14.453,14.453,0,0,1-2.68-5.182l3.931,3.931Zm1.919,1.919,1.251-1.251,3.931,3.931A14.451,14.451,0,0,1,214.113,78.746Zm8.551,2.211-5.381-5.381,5.382-5.382,5.381,5.381Zm3.653,1.036q-.464.046-.922.071l4.57-4.57,2.893,2.893A24.379,24.379,0,0,1,226.317,81.993Zm9.172-2.812-3.606-3.606,5.381-5.382,4.528,4.528A29.822,29.822,0,0,1,235.489,79.181Zm8.223-6.378-4.528-4.528,5.38-5.38,3.606,3.606A29.832,29.832,0,0,1,243.713,72.8Zm7.271-15.476a24.389,24.389,0,0,1-1.606,6.542l-2.893-2.893,4.57-4.57Q251.029,56.862,250.983,57.326Z" transform="translate(-206.129 -37.138)"/></g></g></svg>