<svg xmlns="http://www.w3.org/2000/svg" width="89.344" height="89.29" viewBox="0 0 89.344 89.29"><g transform="translate(-780.679 -398.638)"><g transform="translate(780.679 398.638)"><path d="M866.54,540.043q-7.405,0-14.81,0c-1.37,0-1.522-.132-1.5-1.486a69.254,69.254,0,0,1,.153-7.908,4.25,4.25,0,0,1,3.825-3.842,16.684,16.684,0,0,1,2.879-.148,1.241,1.241,0,0,0,1.365-.993c.9-3.037,1.821-6.066,2.716-9.1.26-.882.033-1.092-.958-.915a25.174,25.174,0,0,1-15.281-1.842,23.6,23.6,0,0,1-3.774-2.2,33.152,33.152,0,0,0-2.82-1.975,2.659,2.659,0,0,1-1.328-2.226,8.387,8.387,0,0,1,.908-4.415,47.679,47.679,0,0,1,7.451-10.875c1.63-1.868,1.678-1.828.4-3.961-.989-1.651-2-3.288-2.961-4.958a4.476,4.476,0,0,0-1.968-1.881,4.255,4.255,0,0,1-1.727-6.177c1.608-2.644,5.75-2.717,7.23-.007a7.272,7.272,0,0,0,2.923,2.848c3.639,2.141,7.25,4.33,10.865,6.512.378.228.988.4.83.975a3.242,3.242,0,0,1-1.126,1.772c-.245.184-.537-.03-.777-.171-.7-.409-1.4-.806-2.075-1.249a1.129,1.129,0,0,0-1.587.083c-1.42,1.342-2.859,2.665-4.29,4a1.08,1.08,0,0,0-.151,1.51c.467.77.911,1.554,1.39,2.316.351.558.309.982-.313,1.291-.166.083-.318.194-.478.289-1.022.6-1.139.575-1.753-.426-.227-.37-.44-.75-.673-1.117-.528-.83-.735-.872-1.385-.138a52.818,52.818,0,0,0-5.425,7.092c-.573.922-1.107,1.871-1.6,2.837a10.727,10.727,0,0,0-.75,1.9c-.458,1.587.018,2.068,1.594,1.643a13.449,13.449,0,0,0,3.146-1.386,59.818,59.818,0,0,0,10.569-8.052,78.8,78.8,0,0,0,10.685-12.009,26.378,26.378,0,0,0,2.718-4.551c.389-.858.874-1.042,1.667-.609a2.652,2.652,0,0,0,.518.209c.719.213.8.6.486,1.265a40.59,40.59,0,0,1-3.616,5.966c-.833,1.182-.831,1.267.1,2.4.553.67,1.092,1.353,1.608,2.051.393.533.7.632,1.1-.009a77.513,77.513,0,0,1,6.708-9.043,1.044,1.044,0,0,0,.14-1.345c-1.267-2.279-2.525-4.563-3.747-6.866a1.513,1.513,0,0,0-1.439-.8,5.8,5.8,0,0,1-4.454-9.085,5.879,5.879,0,0,1,6.3-2.363,5.661,5.661,0,0,1,4.267,5.165,1.774,1.774,0,0,0,1.055,1.683c2.063,1.077,4.114,2.182,6.128,3.348a1.537,1.537,0,0,0,2.074-.272,65.088,65.088,0,0,1,6.96-5.6,28.422,28.422,0,0,1,7.6-4.083,7.551,7.551,0,0,1,3.123-.356,2.858,2.858,0,0,1,1.9.9c2.653,3.047,5.263,6.123,6.755,9.964,3.275,8.428,2.287,16.429-2.367,24.071a28.73,28.73,0,0,1-5.168,6.207,2.035,2.035,0,0,0-.626,2.246q2.445,9.614,4.811,19.248a1.744,1.744,0,0,0,1.608,1.5,4.1,4.1,0,0,1,3.416,3.592,71.252,71.252,0,0,1,.166,8.651c.008.616-.353.891-.947.9-.279,0-.559.012-.838.012q-13.087,0-26.174,0c-1.771,0-1.826-.032-1.795-1.844a64.578,64.578,0,0,1,.15-7.535,4.176,4.176,0,0,1,3.722-3.826,1.772,1.772,0,0,0,1.534-1.278c1.724-4.889,3.469-9.771,5.2-14.659.087-.246.324-.534.057-.773-.207-.185-.477-.017-.707.055a29.168,29.168,0,0,1-21.68-1.414c-.406-.188-.8-.352-1.211,0a1.351,1.351,0,0,0-.363,1.366q.982,6.351,1.957,12.7c.142.92.308,1.838.43,2.761a1.076,1.076,0,0,0,1.256,1.056,14.711,14.711,0,0,1,2.785.168A4.223,4.223,0,0,1,882.8,530.5a71.028,71.028,0,0,1,.162,8.651.793.793,0,0,1-.869.875c-.341.011-.683.018-1.024.018Q873.805,540.045,866.54,540.043Zm38.807-72.865c.031-1.41-.278-1.7-1.38-1.628a5.851,5.851,0,0,0-1.532.375,20.838,20.838,0,0,0-3.9,1.965,65.769,65.769,0,0,0-8.351,6.229c-.9.759-.854,1,.192,1.6.862.492,1.718,1.007,2.62,1.416.867.393.851.889.446,1.619-.651,1.17-.812,1.293-1.733.814q-1.817-.945-3.592-1.969a1.374,1.374,0,0,0-1.834.144c-1.649,1.428-2.975,3.162-4.548,4.658a1.184,1.184,0,0,0-.118,1.607c.7,1.242,1.363,2.509,2.062,3.753a.857.857,0,0,1-.416,1.365,6.482,6.482,0,0,0-.571.314c-.659.418-1.117.322-1.476-.432-.439-.924-.95-1.815-1.467-2.7-.466-.8-.711-.818-1.294-.089-1.1,1.382-2.234,2.75-3.248,4.2-2.068,2.948-4.137,5.908-5.271,9.381-.285.872-.766,1.875,0,2.637s1.77.26,2.631-.059a29.389,29.389,0,0,0,6.917-3.986,91.722,91.722,0,0,0,14.289-13.14,74.87,74.87,0,0,0,9.374-12.6A16.435,16.435,0,0,0,905.348,467.178Zm-38.742,69.908c4.036,0,8.071.007,12.107,0,1.116,0,1.3-.2,1.312-1.312.015-1.459.021-2.918,0-4.377-.023-1.328-.426-1.765-1.728-1.768q-11.688-.022-23.376,0c-1.3,0-1.7.438-1.726,1.769-.026,1.4-.016,2.794-.008,4.191.007,1.348.153,1.5,1.5,1.5Q860.645,537.1,866.606,537.086Zm34.275,0c3.539,0,7.078.007,10.617,0,1.117,0,1.3-.2,1.315-1.309.015-1.459.021-2.918,0-4.377-.023-1.331-.425-1.767-1.725-1.771q-10.2-.024-20.4,0c-1.3,0-1.706.444-1.73,1.767-.025,1.4-.015,2.794-.008,4.191.007,1.35.153,1.5,1.5,1.5Q895.666,537.1,900.881,537.087Zm.082-10.431c1.83,0,3.659.005,5.489,0,1.431-.006,1.529-.13,1.186-1.506Q905.5,516.573,903.352,508c-.053-.211-.11-.42-.174-.627-.133-.429-.4-.515-.783-.3a4.485,4.485,0,0,0-2.371,2.458c-1.844,5.333-3.778,10.635-5.671,15.951-.341.957-.2,1.157.843,1.165C897.118,526.665,899.041,526.654,900.963,526.656Zm1.456-35.95a7.051,7.051,0,0,0-.273-.655A29.43,29.43,0,0,0,899,485.22c-.627-.785-.8-.784-1.5.007-1.356,1.534-2.676,3.1-4.154,4.521-2.012,1.935-3.859,4.041-6.013,5.828a1.063,1.063,0,0,0-.228,1.671,16.934,16.934,0,0,0,3.527,3.55,1.038,1.038,0,0,0,1.361.045,47.39,47.39,0,0,0,10.079-9.178A1.217,1.217,0,0,0,902.42,490.705Zm-35.706,35.95v0c1.52,0,3.039-.007,4.559,0,.744.005,1.094-.281.971-1.075-.676-4.351-1.328-8.706-2.011-13.057-.135-.858-.369-.94-1.121-.464a22.875,22.875,0,0,1-3.6,1.942,1.761,1.761,0,0,0-1.037,1.232c-1.034,3.445-2.078,6.888-3.1,10.337-.274.926-.143,1.071.868,1.08C863.737,526.665,865.225,526.655,866.714,526.655Zm44.51-51.969a2.053,2.053,0,0,0-.07-.415,19.125,19.125,0,0,0-2.784-4.817c-.439-.539-.671-.182-.833.258a45.554,45.554,0,0,1-6.854,11.566,1.141,1.141,0,0,0-.009,1.652,31.625,31.625,0,0,1,3.223,4.552c.561.938.675.936,1.3,0a50.514,50.514,0,0,0,5.824-12.026C911.111,475.189,911.164,474.915,911.224,474.686Zm-42.888,21.586a1.777,1.777,0,0,0-.354-1.139,31.628,31.628,0,0,0-2.224-2.981c-.512-.618-.866-.565-1.386.039A83.674,83.674,0,0,1,855.7,501a1.111,1.111,0,0,0-.257,1.625,14.622,14.622,0,0,0,2.576,3.043,1.279,1.279,0,0,0,1.816.117,52.086,52.086,0,0,0,6.375-5.122C867.559,499.443,867.521,497.553,868.336,496.272Zm9.8,11.035a3.277,3.277,0,0,0,.453-.058,43.624,43.624,0,0,0,9.321-3.916c.592-.34.489-.662.062-1.08a19.869,19.869,0,0,1-3.022-3.272c-.469-.727-.877-.649-1.487-.155a48.092,48.092,0,0,1-6.324,4.409c-.943.54-1.91,1.027-2.9,1.47-.308.138-.764.4-.244.706A16.559,16.559,0,0,0,878.14,507.308Zm34.474-27.727a2.711,2.711,0,0,0-.312.416,53.518,53.518,0,0,1-6,10.772,1.464,1.464,0,0,0-.124,1.5,32.668,32.668,0,0,1,1.364,4.535c.079.312.049.777.459.831.381.05.54-.371.719-.644a24.706,24.706,0,0,0,4.242-15.854A3.764,3.764,0,0,0,912.614,479.581Zm-13.7,23.792c1.157-.12,2.613-.231,4.056-.435a3.238,3.238,0,0,0,2.317-2.7,27.96,27.96,0,0,0-1.129-5.369c-.2-.649-.531-.719-.983-.23-.526.57-1.018,1.172-1.56,1.726a59.653,59.653,0,0,1-6.216,5.468c-.237.183-.624.324-.564.677.07.413.518.392.832.466A15.512,15.512,0,0,0,898.914,503.373Zm-51.762,8.311a4.985,4.985,0,0,0,.5-.075,39.939,39.939,0,0,0,7.889-3.287c.585-.312.521-.7.1-1.11a13.131,13.131,0,0,1-2.374-2.853c-.387-.683-.778-.639-1.335-.214-.961.734-1.951,1.431-2.94,2.128a32.136,32.136,0,0,1-4.99,2.884c-.258.12-.875.3-.435.656A11.514,11.514,0,0,0,847.152,511.683Zm32.687-31.5a2.07,2.07,0,0,0,.413-.266c1.229-1.227,2.458-2.454,3.665-3.7.429-.444.181-.785-.271-1.031-1.826-1-3.66-1.975-5.474-2.991-.665-.372-1.03,0-1.434.423s-.907.771-.5,1.5c1.028,1.843,2.02,3.706,3.029,5.559C879.382,479.89,879.486,480.127,879.839,480.184Zm-26.674,3.783a.647.647,0,0,0-.391-.655c-1.807-1.089-3.62-2.168-5.424-3.262-.732-.444-1.126.048-1.585.491s-.825.848-.417,1.52q1.617,2.666,3.209,5.347c.265.444.558.543.961.158,1.1-1.048,2.211-2.084,3.309-3.134A2.816,2.816,0,0,0,853.165,483.966Zm44.6,22.444a1.065,1.065,0,0,0-.912-.4,17.4,17.4,0,0,1-4.569-1.188,1.7,1.7,0,0,0-1.671.155,45.439,45.439,0,0,1-5.951,3.031c-.266.116-.617.139-.789.651A25.767,25.767,0,0,0,897.767,506.411Zm-25.223-40.877a2.986,2.986,0,1,0,3.009,3.01A2.759,2.759,0,0,0,872.544,465.533Zm-5.857,43.429a3.778,3.778,0,0,0,3.534-1.266c.535-.612.583-.959-.109-1.475-.939-.7-2.108-1.077-2.837-2.073-.274-.373-.592-.16-.881.071-1.282,1.028-2.573,2.045-3.855,3.072-.206.165-.545.289-.44.633.091.3.419.348.682.424A11.424,11.424,0,0,0,866.686,508.963Zm-14.027,4.015c.218.29.553.243.848.246,1.334.011,2.673.063,4-.018a19.253,19.253,0,0,0,5.095-1.039c.3-.105.8-.123.8-.515,0-.345-.481-.316-.762-.4a15.372,15.372,0,0,1-2.928-1.19,1.479,1.479,0,0,0-1.581.028,45.2,45.2,0,0,1-5.08,2.53C852.888,512.686,852.678,512.723,852.659,512.977ZM842.8,475.988a1.334,1.334,0,0,0-1.509,1.391,1.351,1.351,0,0,0,1.438,1.557,1.334,1.334,0,0,0,1.509-1.391A1.349,1.349,0,0,0,842.8,475.988Z" transform="translate(-826.492 -450.754)"/><path d="M950.393,398.638a17.689,17.689,0,0,1,14.166,6.879c.34.418,1.048.869.2,1.525-1.321,1.02-1.623,1.05-2.379.138a15,15,0,0,0-26.649,7.043A14.73,14.73,0,0,0,940.88,427.9c.3.267.872.489.63,1.012a4.035,4.035,0,0,1-1.243,1.706c-.258.18-.53-.1-.738-.269a17.559,17.559,0,0,1-6.7-12.894,17,17,0,0,1,3.384-11.542A17.394,17.394,0,0,1,950.393,398.638Z" transform="translate(-904.458 -398.638)"/><path d="M780.682,470.934a16.256,16.256,0,0,1,24.951-13.729c.464.291,1.024.533.529,1.288-.886,1.353-1.153,1.516-2.033,1.006-8.441-4.892-18.847-.311-20.451,9.069a13.205,13.205,0,0,0,2.683,10.789c.28.357.88.691.544,1.26a2.954,2.954,0,0,1-1.547,1.289c-.467.165-.725-.261-.97-.572a15.677,15.677,0,0,1-3.659-9.563C780.724,471.491,780.7,471.213,780.682,470.934Z" transform="translate(-780.679 -444.253)"/><path d="M964.841,442.614a11.756,11.756,0,0,1,10.442-11.844,11.557,11.557,0,0,1,9.984,3.729c.427.452,1.081.906.313,1.614-1.111,1.023-1.559,1.108-2.3.277a9.31,9.31,0,0,0-11.177-1.731,9.136,9.136,0,0,0-2.266,13.824c.127.136.259.267.391.4,1.032,1.036,1,1.744-.111,2.709-.582.5-.972.067-1.355-.286A11.277,11.277,0,0,1,964.841,442.614Z" transform="translate(-930.53 -424.73)"/><path d="M812.941,496.961a10.143,10.143,0,0,1,7-9.881,10.32,10.32,0,0,1,11.473,3.6c.656.891.642.961-.338,1.528-1.041.6-1.2.978-2.271-.336a7.523,7.523,0,0,0-8.339-2.016,7.289,7.289,0,0,0-4.766,6.8,7.5,7.5,0,0,0,1.585,4.939,1.937,1.937,0,0,1-.954,2.652c-.456.111-.675-.253-.9-.528A9.485,9.485,0,0,1,812.941,496.961Z" transform="translate(-806.915 -470.186)"/></g></g></svg>