<?xml version="1.0" encoding="utf-8"?>
<!-- Generator: Adobe Illustrator 22.0.1, SVG Export Plug-In . SVG Version: 6.00 Build 0)  -->
<svg version="1.1" id="Layer_1" xmlns="http://www.w3.org/2000/svg" xmlns:xlink="http://www.w3.org/1999/xlink" x="0px" y="0px"
	 viewBox="0 0 113.7 129.3" style="enable-background:new 0 0 113.7 129.3;" xml:space="preserve">
<style type="text/css">
	.st0{fill:#FD2E3D;}
</style>
<g transform="translate(-31)">
	<path class="st0" d="M144.2,47.5c-1.5-4.3-6.5-6.7-12.9-6.5c2.4-4.4,2.7-8.8,0.6-12c-2.2-3.1-6.4-4.3-11.5-3.5
		c1.2-3.3,0.5-7-1.7-9.7c-2.8-3.1-7.7-3.6-13.2-1.6l-2.7-10.4c-0.1-0.5-0.4-0.9-0.8-1.2C101.4,2.1,98,0,87.9,0h-0.2
		C77.7,0,74.2,2.1,73.6,2.6c-0.4,0.3-0.7,0.7-0.8,1.2l-2.7,10.4c-5.5-2-10.4-1.5-13.2,1.6c-2.2,2.7-2.8,6.4-1.7,9.7
		c-5-0.8-9.2,0.4-11.5,3.5c-2.2,3.1-1.9,7.5,0.6,11.9c-6.4-0.1-11.4,2.3-12.9,6.5c-1.7,4.7,1.2,10.2,7.2,14.3
		c-2.7,1.4-4.5,4.1-4.7,7.2c0,5.7,7.3,10.1,17.3,10.7c0,3.4,0.1,6.8,0.6,10.2c0.3,2.4,2.5,4,4.8,3.7c0.6-0.1,1.1-0.3,1.6-0.5
		c3.1,5.2,7.5,9.5,12.7,12.4c-1.3,4.6,1.4,9.3,6,10.6c0.1,0,0.1,0,0.2,0v3.5l-5.5,3.7c-1,0.7-1.3,2-0.6,3s2,1.3,3,0.6l3.1-2.1v2.4
		c0,1.2,1,2.2,2.2,2.2c1.2,0,2.2-1,2.2-2.2c0,0,0,0,0,0v-2.4l3.1,2.1c1,0.7,2.3,0.4,3-0.6s0.4-2.3-0.6-3l-5.5-3.7v-3.5
		c3-0.8,5.4-3.1,6.2-6.2c0.1,0,0.2,0,0.3,0s0.2,0,0.3,0c0.8,3,3.1,5.4,6.2,6.2v3.5l-5.5,3.7c-1,0.7-1.3,2-0.6,3s2,1.3,3,0.6l3.1-2.1
		v2.4c0,1.2,1,2.2,2.2,2.2c1.2,0,2.2-1,2.2-2.2c0,0,0,0,0,0v-2.4l3.1,2.1c1,0.7,2.3,0.4,3-0.6s0.4-2.3-0.6-3l-5.5-3.7v-3.5
		c4.6-1.2,7.4-5.9,6.2-10.5c0-0.1,0-0.1,0-0.2c5.2-3,9.6-7.3,12.7-12.4c2.1,1.2,4.7,0.5,5.9-1.6c0.3-0.5,0.5-1,0.5-1.6
		c0.4-3.4,0.6-6.8,0.6-10.2c10-0.6,17.3-5,17.3-10.7c-0.2-3-2-5.8-4.7-7.1C143,57.7,145.9,52.2,144.2,47.5z M128.3,31.5
		c1.6,2.3,0.5,6.3-2.7,10.2c-1.3,0.3-2.5,0.6-3.7,1.1c-3.7,1.3-7,3.3-9.9,5.9c-2.6-2-5.6-3.5-8.8-4.4c0.2-0.6,0.4-1.2,0.6-1.7
		c1.2-2.4,2.8-4.6,4.8-6.4c4.7-1.4,7.8-3.3,9.1-5.5C122.5,28.9,126.8,29.2,128.3,31.5z M87.8,75.4c-2.4,0-4.3-1.9-4.3-4.3V48.9
		c0-2.3-1.2-4.4-3.1-5.6c-0.3-0.2-0.6-0.3-0.9-0.6c-0.9-0.6-1.8-1.3-2.5-2.1c-1.6-1.7-2.8-3.7-3.5-6c0,0,0,0,0-0.1
		c-0.4-1.3-0.6-2.7-0.7-4.1v-0.3c0-2.7,0.7-5.3,2.1-7.7c8.6-1.3,17.3-1.3,25.9,0c1.4,2.3,2.1,5,2.1,7.7v0.3c0,1.4-0.3,2.8-0.7,4.2v0
		c-0.7,2.2-1.9,4.3-3.5,6c-0.8,0.8-1.6,1.5-2.6,2.1c-0.3,0.2-0.6,0.4-0.8,0.5c-2,1.2-3.2,3.3-3.1,5.6v22.2
		C92.1,73.5,90.2,75.4,87.8,75.4L87.8,75.4z M61.5,28c0-0.6,1.5-2.7,8.1-4.4c-0.8,2.1-1.2,4.3-1.2,6.6v0.4c0,0.5,0.1,1.1,0.1,1.6
		C63.9,30.7,61.8,29.2,61.5,28z M85.7,17.2v-4.3H90v4.3H85.7z M107.1,32.1L107.1,32.1c0-0.5,0.1-1.1,0.1-1.6v-0.3
		c0-2.2-0.4-4.5-1.2-6.6c6.6,1.8,8.1,3.8,8.1,4.6C113.8,29.2,111.8,30.7,107.1,32.1L107.1,32.1z M115.5,18.6
		c1.1,1.5,1.4,3.4,0.8,5.1c-2.8-2.2-6.1-3.7-9.6-4.4l-0.2-1C110.5,16.8,113.9,16.9,115.5,18.6L115.5,18.6z M87.8,4.3L87.8,4.3
		c3.8-0.2,7.5,0.3,11.1,1.5l3.1,11.8l0.2,0.8c-2.5-0.4-5.1-0.7-7.9-0.9v-4.6c0-2.4-1.9-4.3-4.3-4.3h-4.3c-2.4,0-4.3,1.9-4.3,4.3v4.6
		c-2.7,0.2-5.4,0.5-7.9,0.9l0.2-0.7l3.1-11.9C80.3,4.6,84.1,4.1,87.8,4.3z M60.1,18.6c1.6-1.8,5-1.9,9-0.3l-0.2,1
		c-3.5,0.7-6.8,2.2-9.6,4.4C58.7,22,59.1,20.1,60.1,18.6z M47.3,31.5c1.6-2.2,5.8-2.6,10.6-0.9c1.3,2.2,4.3,4.1,9.1,5.5
		c2,1.8,3.7,4,4.9,6.4c0.3,0.6,0.5,1.1,0.6,1.7c-3.2,0.9-6.1,2.4-8.8,4.4c-2.9-2.6-6.2-4.6-9.9-5.9c-1.2-0.4-2.5-0.8-3.7-1.1
		C46.9,37.8,45.8,33.7,47.3,31.5z M35.5,49c1.1-3.1,6.7-4.5,12.9-3.2c1.3,0.3,2.6,0.6,3.9,1.1c3,1.1,5.7,2.7,8.1,4.8
		c-1.9,2-3.4,4.3-4.6,6.7c-0.8,0-1.6-0.1-2.5-0.1c-3.4,0-6.7,0.5-9.9,1.5C37.8,56.6,34.4,52.1,35.5,49L35.5,49z M38.3,69
		c0-1.8,2.2-3.7,5.7-4.9c3-1,6.2-1.6,9.4-1.5c0.2,0,0.4,0,0.6,0c-1.4,4.2-2.3,8.5-2.6,12.8C43.8,74.9,38.3,71.8,38.3,69L38.3,69z
		 M56.1,89.3c-0.5-3.9-0.7-7.8-0.5-11.6c0,0,0,0,0-0.1s0,0,0-0.1c0.1-5.4,1.2-10.7,3.3-15.7c0.1-0.2,0.2-0.4,0.3-0.6
		c3.1-7,9.4-12,16.9-13.4C75.9,54.8,74.2,78.2,56.1,89.3z M79.2,112.1c-2.4,0-4.3-1.9-4.3-4.3c0-0.1,0-0.2,0-0.4
		c2.6,1.1,5.4,1.8,8.2,2.2C82.4,111.1,80.9,112.1,79.2,112.1L79.2,112.1z M96.4,112.1c-1.7,0-3.2-1-3.9-2.5c2.8-0.4,5.5-1.1,8.1-2.2
		c0,0.1,0,0.2,0,0.4C100.8,110.1,98.8,112.1,96.4,112.1C96.5,112.1,96.4,112.1,96.4,112.1z M101.1,102.5c-3.5,1.7-7.4,2.7-11.3,3
		c-0.6,0.1-1.3,0.1-2,0.1s-1.3,0-2-0.1c-3.9-0.2-7.7-1.3-11.2-3c-5.4-2.6-9.8-6.8-12.8-12C73,82,77.5,68.9,79.2,59.1v12
		c0,4.8,3.9,8.6,8.6,8.6c4.8,0,8.6-3.9,8.6-8.6v-12c1.7,9.8,6.2,22.9,17.4,31.5C110.9,95.7,106.4,99.9,101.1,102.5L101.1,102.5z
		 M119.6,89.3c-18.2-11-19.8-34.5-19.9-41.5h0c4.1,0.8,7.9,2.7,11,5.4l0,0h0c2.4,2.2,4.4,4.9,5.8,7.9c0.1,0.2,0.2,0.5,0.3,0.7
		c2.1,5,3.2,10.3,3.3,15.8v0c0,0,0,0,0,0C120.3,81.5,120.1,85.4,119.6,89.3z M124.2,75.4c-0.3-4.4-1.2-8.7-2.6-12.8
		c0.2,0,0.4,0,0.6,0c3.2,0,6.4,0.5,9.4,1.5c3.4,1.2,5.7,3.2,5.7,4.9C137.4,71.8,131.9,74.9,124.2,75.4L124.2,75.4z M132.2,59.7
		c-3.2-1-6.6-1.5-9.9-1.5c-0.9,0-1.7,0-2.4,0.1c-1.2-2.4-2.8-4.7-4.6-6.7c3.4-3,7.5-5,12-5.8c6.3-1.2,11.8,0.1,12.9,3.2
		C141.3,52.1,137.9,56.6,132.2,59.7L132.2,59.7z"/>
	<path class="st0" d="M83.5,28c0,1.2-1,2.2-2.2,2.2c-1.2,0-2.2-1-2.2-2.2c0-1.2,1-2.2,2.2-2.2C82.6,25.9,83.5,26.8,83.5,28
		C83.5,28,83.5,28,83.5,28z"/>
	<path class="st0" d="M96.4,28c0,1.2-1,2.2-2.2,2.2c-1.2,0-2.2-1-2.2-2.2c0-1.2,1-2.2,2.2-2.2l0,0C95.5,25.9,96.4,26.8,96.4,28z"/>
	<path class="st0" d="M96.4,36.9c0.1-0.8-0.3-1.6-0.9-2.1L89,30.5c-1-0.6-2.3-0.3-3,0.7c-0.6,1-0.4,2.3,0.6,2.9l2.8,1.9l-2.3,0.8
		c-1.1,0.4-1.7,1.6-1.4,2.7c0.4,1.1,1.6,1.7,2.7,1.4l6.5-2.2C95.8,38.4,96.3,37.7,96.4,36.9z"/>
</g>
</svg>
