<svg xmlns="http://www.w3.org/2000/svg" width="97.24" height="98.841" viewBox="0 0 97.24 98.841"><g transform="translate(-4.147 0)"><g transform="translate(4.147 0)"><g transform="translate(0 0)"><path d="M99.144,34.09A48.606,48.606,0,0,0,6.371,63.13l3.143-.985a45.313,45.313,0,1,1,5.228,11.123l-2.763,1.791A48.775,48.775,0,0,0,52.854,97.2a48.589,48.589,0,0,0,46.29-63.11Z" transform="translate(-4.147 0)"/></g></g><g transform="translate(22.283 14.888)"><g transform="translate(0)"><path d="M119.024,85.282l.945-3.155L103.5,77.187a1.644,1.644,0,0,0-1.637.413l-3.293,3.293a1.647,1.647,0,0,0,.5,2.669l14.819,6.586,1.337-3.01L102.6,81.526l.9-.9Z" transform="translate(-98.092 -77.117)"/></g></g><g transform="translate(22.283 11.597)"><path d="M134.32,61.719a1.646,1.646,0,0,0-1.647-1.647h0a13.476,13.476,0,0,0-9.591,3.973L109.117,78.006l-5.682-1.421a1.646,1.646,0,0,0-1.564.433l-3.293,3.293a1.645,1.645,0,0,0,.316,2.575l7.88,4.729L111.5,95.5a1.645,1.645,0,0,0,1.21.787,1.612,1.612,0,0,0,.2.012,1.659,1.659,0,0,0,1.166-.481l3.293-3.293a1.651,1.651,0,0,0,.433-1.564l-1.419-5.676,14.185-14.045A13.584,13.584,0,0,0,134.32,61.719ZM113.4,83.6a1.647,1.647,0,0,0-.44,1.569l1.421,5.682-1.143,1.143-3.855-6.425a1.64,1.64,0,0,0-.565-.565L102.4,81.148,103.539,80l5.682,1.421a1.646,1.646,0,0,0,1.564-.433l14.621-14.621a10.186,10.186,0,0,1,5.49-2.857,10.152,10.152,0,0,1-2.676,5.412Z" transform="translate(-98.094 -60.072)"/></g><g transform="translate(42.176 25.947)"><path d="M214.108,151.082l-4.94-16.679-3.158.935,4.641,15.672-1,.883-5.49-12.734-3.025,1.3,6.389,14.819a1.648,1.648,0,0,0,1.152.955,1.688,1.688,0,0,0,.361.04,1.642,1.642,0,0,0,1.088-.412l3.491-3.079A1.648,1.648,0,0,0,214.108,151.082Z" transform="translate(-201.138 -134.403)"/></g><g transform="translate(4.228 40.163)"><path d="M35.846,258.669c-11.727,5.557-20.926,6.275-25.233,1.969-7.465-7.465.642-29.155,18.858-50.454l-2.5-2.141C6.989,231.4-.7,253.989,8.283,262.966c2.508,2.506,6.049,3.756,10.442,3.756,5.121,0,11.4-1.7,18.53-5.078Z" transform="translate(-4.565 -208.043)"/></g><g transform="translate(60.154 46.172)"><path d="M325.358,249.922a1.647,1.647,0,0,0-1.452-.869h-5.568l-4.485-8.969a1.649,1.649,0,0,0-1.474-.911H295.914a1.646,1.646,0,0,0-1.647,1.647v13.172a1.645,1.645,0,0,0,1.647,1.647h4.94V273.75A1.645,1.645,0,0,0,302.5,275.4h8.233a1.647,1.647,0,0,0,1.166-.484l6.586-6.586a1.64,1.64,0,0,0,.482-1.164v-6.087l6.309-9.464A1.647,1.647,0,0,0,325.358,249.922Zm-9.41,9.743a1.655,1.655,0,0,0-.277.914v5.9l-5.621,5.621h-5.906V253.992a1.645,1.645,0,0,0-1.647-1.646h-4.939v-9.879h13.8l4.485,8.969a1.649,1.649,0,0,0,1.474.911h3.51Z" transform="translate(-294.267 -239.173)"/></g><g transform="translate(63.448 18.181)"><path d="M340.273,118.877l-6.112-10.7a1.647,1.647,0,0,0-1.429-.83h-9.879a1.648,1.648,0,0,0-1.37.733l-2.8,4.207H314.62v-8.233h8.233a1.642,1.642,0,0,0,1.164-.482l6.1-6.1h7.551V94.179h-8.233a1.642,1.642,0,0,0-1.164.482l-6.1,6.1h-9.2a1.646,1.646,0,0,0-1.647,1.647v11.526a1.646,1.646,0,0,0,1.647,1.647h6.586a1.648,1.648,0,0,0,1.37-.733l2.8-4.207h8.043l6.112,10.7a1.646,1.646,0,0,0,1.429.83H345.9v-3.293Z" transform="translate(-311.327 -94.179)"/></g><g transform="translate(27.224 54.405)"><path d="M148.385,286.759h-9.2L134.73,282.3a1.642,1.642,0,0,0-1.164-.482h-8.233a1.646,1.646,0,0,0-1.646,1.647v11.526a1.646,1.646,0,0,0,1.646,1.647h6.586V313.1a1.647,1.647,0,0,0,2.635,1.317l6.586-4.94a1.648,1.648,0,0,0,.659-1.317v-4.149l7.615-6.091a1.647,1.647,0,0,0,.617-1.286v-8.233A1.646,1.646,0,0,0,148.385,286.759Zm-1.647,9.089-7.615,6.09a1.648,1.648,0,0,0-.617,1.286v4.116l-3.293,2.47V294.991a1.646,1.646,0,0,0-1.647-1.647H126.98v-8.233h5.9l4.457,4.457a1.643,1.643,0,0,0,1.164.482h8.233v5.8Z" transform="translate(-123.687 -281.819)"/></g><g transform="translate(5.819 26.414)"><g transform="translate(0)"><path d="M25.745,145.856l-4.94-8.233a1.644,1.644,0,0,0-1.411-.8H17.748v3.293h.715l3.8,6.331L18.23,150.48a1.642,1.642,0,0,0-.482,1.164v4.94h-4.94v3.293h6.586a1.647,1.647,0,0,0,1.647-1.646v-5.9l4.457-4.457A1.648,1.648,0,0,0,25.745,145.856Z" transform="translate(-12.808 -136.825)"/></g></g><g transform="translate(34.721 1.716)"><path d="M183.015,8.889V10.9l-5.34,1.335a1.673,1.673,0,0,0-.514.227l-4.144,2.763-9.025-4.513-1.474,2.946L172.4,18.6a1.647,1.647,0,0,0,1.648-.1l4.7-3.135,6.311-1.577a1.647,1.647,0,0,0,1.248-1.6V8.889Z" transform="translate(-162.519 -8.889)"/></g></g></svg>