<?xml version="1.0" encoding="utf-8"?>
<!-- Generator: Adobe Illustrator 22.0.1, SVG Export Plug-In . SVG Version: 6.00 Build 0)  -->
<svg version="1.1" id="Layer_1" xmlns="http://www.w3.org/2000/svg" xmlns:xlink="http://www.w3.org/1999/xlink" x="0px" y="0px"
	 viewBox="0 0 130.3 130.3" style="enable-background:new 0 0 130.3 130.3;" xml:space="preserve">
<style type="text/css">
	.st0{fill:#FD2E3D;}
</style>
<g transform="translate(0.001 0.001)">
	<path class="st0" d="M116.8,113.5c1.4,0,2.5-1.1,2.5-2.5s-1.1-2.5-2.5-2.5c-1.4,0-2.5,1.1-2.5,2.5c0,0,0,0,0,0
		C114.3,112.4,115.4,113.5,116.8,113.5z"/>
	<path class="st0" d="M121.4,5.6c-2.4,0-4.7,1-6.4,2.8c-1.6-1.8-3.9-2.8-6.4-2.8c-4.9,0-8.9,3.9-8.9,8.7c0,0.1,0,0.1,0,0.2
		c0,6.2,6,9.8,13.7,16c0.9,0.7,2.3,0.7,3.2,0c7.7-6.2,13.7-9.8,13.7-16c0.1-4.9-3.8-8.9-8.7-8.9C121.5,5.6,121.5,5.6,121.4,5.6z
		 M115,25.2c-6.3-4.9-10.2-7.7-10.2-10.7c-0.1-2,1.5-3.8,3.6-3.8c0.1,0,0.2,0,0.3,0c2.8,0,3.8,3,3.9,3.3c0.4,1.3,1.8,2.1,3.2,1.7
		c0.8-0.2,1.5-0.9,1.7-1.7c0,0,1-3.3,3.9-3.3c2-0.1,3.8,1.5,3.8,3.6c0,0.1,0,0.2,0,0.3C125.2,17.6,121,20.5,115,25.2L115,25.2z"/>
	<path class="st0" d="M71.7,69c-0.1,0-0.2,0-0.3,0c-6.9,0.2-12.7,5.8-13.5,13.1c-1.3,11.7,9,18.3,23.5,30.9c1,0.8,2.4,0.8,3.3,0
		c14.2-12.3,24.8-19.1,23.5-30.8c-0.8-7.3-6.6-12.9-13.5-13.1c-5.6-0.1-9.4,3.1-11.7,6.5C80.8,72.1,77.1,69,71.7,69z M83.1,83.9
		c1.1,0,2.1-0.8,2.5-1.9c0-0.1,2.3-8,8.9-8c0.1,0,0.1,0,0.2,0c4.3,0.1,8.1,3.9,8.5,8.5c0.9,8.3-7,13.7-20.2,25
		c-12.8-10.9-21-16.7-20.1-25c0.5-4.7,4.3-8.4,8.5-8.5c0,0,0.1,0,0.2,0c6.6,0,8.8,7.7,8.9,8C80.9,83.2,81.9,83.9,83.1,83.9z"/>
	<path class="st0" d="M127.8,51.4H90.3c4.7-3.8,7.9-6.9,7.9-11.4c0.1-4.9-3.8-8.9-8.7-8.9c-0.1,0-0.1,0-0.2,0c-2.4,0-4.7,1-6.4,2.8
		C81.3,32,79,31,76.6,31c-4.9,0-8.9,3.9-8.9,8.7c0,0.1,0,0.1,0,0.2c0,4.5,3.2,7.7,7.9,11.4H46.7l34.8-34.8c1-1,1-2.6,0-3.6L70.6,2.2
		c-3-3-7.8-3-10.8,0l-8.2,8.2c-1.5-5.4-7-8.7-12.5-7.2c-0.9,0.2-1.7,0.6-2.5,1.1c-0.1-0.1-0.1-0.2-0.2-0.2c-4-4-10.4-4-14.4,0
		c-2,2-3.1,4.7-3,7.5c0,0,0.3,7.9,0.3,7.9l-7.9-0.3C5.9,18.9,1.2,23.4,1.1,29c-0.1,2.9,1.1,5.7,3.2,7.7c-2.9,4.8-1.2,11.1,3.6,14
		c0.8,0.5,1.6,0.8,2.5,1.1l-8.2,8.2c-3,3-3,7.8,0,10.8c0,0,0,0,0,0L13,81.4c1,1,2.6,1,3.6,0l19.5-19.5v60.7c0,4.2,3.4,7.6,7.6,7.6
		h78.9c4.2,0,7.6-3.4,7.6-7.6V53.9C130.3,52.5,129.2,51.4,127.8,51.4C127.8,51.4,127.8,51.4,127.8,51.4z M72.8,40
		c-0.1-2,1.5-3.8,3.6-3.8c0.1,0,0.2,0,0.3,0c2.8,0,3.8,3,3.9,3.3c0.4,1.3,1.8,2.1,3.2,1.7c0.8-0.2,1.5-0.9,1.7-1.7
		c0,0,1-3.3,3.9-3.3c2-0.1,3.8,1.5,3.8,3.6c0,0.1,0,0.2,0,0.3c0,3.1-4.2,6-10.2,10.7C76.7,45.8,72.8,43,72.8,40z M31,23.8
		c2,2,2,5.2,0,7.2s-5.2,2-7.2,0s-2-5.2,0-7.2c0,0,0,0,0,0C25.8,21.8,29,21.8,31,23.8C31,23.8,31,23.8,31,23.8z M40,29.2L50.8,40
		L40,50.8L29.2,40L40,29.2z M63.4,5.8c1-1,2.6-1,3.6,0l9,9L54.4,36.4L43.6,25.6L63.4,5.8z M45.4,9.4c2,2,2,5.2,0,7.2c0,0,0,0,0,0
		l0,0l-8.2,8.2c-0.1-0.3-0.2-0.6-0.3-0.8l-0.3-10.8c-0.1-2.8,2.2-5.1,5-5.2C43.1,7.9,44.5,8.5,45.4,9.4L45.4,9.4z M29.2,6.1
		c1.5,0,2.9,0.6,3.8,1.7c-1,1.6-1.5,3.5-1.4,5.4l0.1,4.9c-2.3-1.1-4.9-1.3-7.4-0.5l-0.3-6.4c-0.1-2.8,2.2-5.1,5-5.2
		C29.2,6.1,29.2,6.1,29.2,6.1L29.2,6.1z M11.3,24.1l6.4,0.3c-0.8,2.4-0.6,5.1,0.5,7.4l-4.9-0.1c-1.9-0.1-3.8,0.4-5.4,1.4
		c-2.1-1.9-2.3-5.1-0.5-7.2C8.4,24.7,9.8,24.1,11.3,24.1L11.3,24.1z M13,46.9c-2.8,0-5.1-2.3-5.1-5.1c0-2.8,2.3-5.1,5.1-5.1
		c0,0,0,0,0.1,0L24,37c0.3,0.1,0.6,0.2,0.8,0.3l-8.2,8.2C15.7,46.4,14.4,46.9,13,46.9L13,46.9z M14.8,76l-9-9c-1-1-1-2.6,0-3.6
		c0,0,0,0,0,0l19.8-19.8l10.8,10.8L14.8,76z M125.2,122.7c0,1.4-1.1,2.5-2.5,2.5H43.8c-1.4,0-2.5-1.1-2.5-2.5V56.9l0.4-0.4h83.6
		V122.7z"/>
	<path class="st0" d="M116.8,103.3c1.4,0,2.5-1.1,2.5-2.5V70.2c0-1.4-1.1-2.5-2.5-2.5c-1.4,0-2.5,1.1-2.5,2.5v30.5
		C114.3,102.2,115.4,103.3,116.8,103.3C116.8,103.3,116.8,103.3,116.8,103.3z"/>
</g>
</svg>
